<svg xmlns="http://www.w3.org/2000/svg" viewBox="0 0 496.247 496.247" width="512" height="512"><path d="M458.946 310.606c.4-2.6.7-5.1 1-7.7.1-.5.1-1 .1-1.5l.3-3.6c.1-.6.1-1.2.1-1.9.1-1.1.2-2.2.2-3.3 0-.6.1-1.3.1-1.9.1-1.2.1-2.3.1-3.5 0-.6 0-1.1.1-1.7 0-1.7.1-3.4.1-5.1 0-65.5-29.5-126.5-81-167.1-7.8-6.2-19.1-4.8-25.3 3-6.2 7.8-4.8 19.1 3 25.3 42.8 33.8 67.3 84.4 67.3 138.9 0 1.4 0 2.8-.1 4.3v1.4c0 1-.1 1.9-.1 2.9 0 .5-.1 1.1-.1 1.6-.1.9-.1 1.8-.2 2.8 0 .5-.1 1-.1 1.5l-.3 3c0 .3-.1.6-.1 1-2.4-.2-4.7-.3-7.2-.3-43.8 0-79.4 35.6-79.4 79.4 0 9.9 8.1 18 18 18s18-8.1 18-18c0-23.9 19.5-43.4 43.4-43.4s43.4 19.5 43.4 43.4-19.5 43.4-43.4 43.4c-9.9 0-18 8.1-18 18s8.1 18 18 18c43.8 0 79.4-35.6 79.4-79.4.1-28.6-14.8-53.5-37.3-67.5zM313.246 42.806c-11-18.2-28.3-31-48.9-36-20.6-5.1-41.9-1.9-60.1 9.1s-31 28.3-36 48.9c-1.5 5.9-2.2 11.9-2.3 17.9-9.2 3.9-18.2 8.5-26.8 13.7-56.1 33.9-93 90.6-101.2 155.7-1.1 9.8 5.9 18.8 15.7 20.1.8.1 1.5.1 2.3.1 8.9 0 16.7-6.7 17.8-15.7 6.8-54.1 37.5-101.3 84.1-129.4 5.3-3.2 10.7-6.1 16.2-8.7 1 2.1 2.2 4.2 3.4 6.3 14.9 24.7 41.2 38.4 68.1 38.4 14 0 28.1-3.7 40.9-11.4 8.5-5.1 11.2-16.2 6.1-24.7s-16.2-11.2-24.7-6.1c-20.5 12.4-47.2 5.8-59.6-14.7-12.4-20.5-5.8-47.2 14.7-59.6 9.9-6 21.6-7.8 32.8-5 11.2 2.8 20.7 9.8 26.7 19.7 5.1 8.5 16.2 11.2 24.7 6.1s11.2-16.2 6.1-24.7zM338.046 452.006c-3.8-9.2-14.3-13.6-23.5-9.8-50.4 20.8-106.6 17.5-154.1-9.1-.1 0-.1-.1-.2-.1-1.2-.7-2.4-1.3-3.5-2-.4-.2-.8-.5-1.2-.7-.8-.5-1.6-1-2.5-1.5-.5-.3-.9-.6-1.3-.9-.8-.5-1.5-1-2.3-1.5-.4-.3-.9-.6-1.3-.9-.8-.5-1.6-1.1-2.4-1.7-.3-.2-.5-.4-.8-.6 1.3-2 2.6-4 3.8-6.1 21.4-38.2 7.7-86.7-30.5-108-8.7-4.9-19.6-1.8-24.5 6.9-4.9 8.7-1.8 19.6 6.9 24.5 20.9 11.7 28.3 38.2 16.7 59-7.9 14.2-22.7 22.2-37.9 22.2-7.2 0-14.4-1.8-21.1-5.5-20.9-11.7-28.3-38.2-16.7-59 4.9-8.7 1.8-19.6-6.9-24.5-8.7-4.9-19.6-1.8-24.5 6.9-21.6 38.4-7.9 86.9 30.3 108.3 12.2 6.9 25.5 10.1 38.6 10.1 13.4 0 26.6-3.4 38.4-9.8.7.5 1.3 1 2 1.5.1.1.2.1.3.2 1.3.9 2.6 1.9 3.9 2.8.4.3.9.6 1.3.9 1 .7 1.9 1.3 2.9 2 .5.3 1 .7 1.6 1 .9.6 1.9 1.2 2.8 1.8.5.3 1.1.7 1.6 1l3 1.8c.5.3.9.6 1.4.8 1.5.9 3 1.7 4.5 2.6 32.3 18.1 68 27.2 103.8 27.2 27.6 0 55.2-5.4 81.6-16.3 9.2-3.8 13.6-14.3 9.8-23.5z" fill="#FFF"/></svg>