<svg xmlns="http://www.w3.org/2000/svg" viewBox="0 0 491 491" width="512" height="512"><path d="M413.45 117.7c-9.9 0-18 8.1-18 18v287.8c0 17.4-14.1 31.5-31.5 31.5h-236.9c-17.4 0-31.5-14.1-31.5-31.5V153.7h51.1v30h-2.9c-9.9 0-18 8.1-18 18s8.1 18 18 18h41.8c9.9 0 18-8.1 18-18s-8.1-18-18-18h-2.9V81.6c0-25.1 20.4-45.6 45.6-45.6h34.5c25.1 0 45.6 20.4 45.6 45.6v36.1h-58.4c-9.9 0-18 8.1-18 18s8.1 18 18 18h58.4v30h-2.9c-9.9 0-18 8.1-18 18s8.1 18 18 18h41.8c9.9 0 18-8.1 18-18s-8.1-18-18-18h-2.9V81.6c-.1-45-36.7-81.6-81.7-81.6h-34.5c-45 0-81.6 36.6-81.6 81.6v36.1h-69c-9.9 0-18 8.1-18 18v287.8c0 37.2 30.3 67.5 67.5 67.5h236.9c37.2 0 67.5-30.3 67.5-67.5V135.7c0-9.9-8.1-18-18-18z" fill="#FFF"/></svg>