<svg xmlns="http://www.w3.org/2000/svg" viewBox="0 0 197.85 54.33"><defs><style>.cls-1{fill:#2e3349}.cls-2{fill:#ff8500}</style></defs><g id="Слой_2" data-name="Слой 2"><g id="Слой_1-2" data-name="Слой 1"><path class="cls-1" d="M9.2 25.81a10 10 0 0 1 7.44 2.94 10.36 10.36 0 0 1 2.88 7.58 10.39 10.39 0 0 1-2.9 7.56 10 10 0 0 1-7.46 3 10.77 10.77 0 0 1-5.56-1.46A9.13 9.13 0 0 1 0 41.61l3.68-2.08c.88 2.1 2.72 3.16 5.52 3.16a5.75 5.75 0 0 0 3.66-1.22A6.09 6.09 0 0 0 15 38.29H7v-4h8a6 6 0 0 0-2.08-3.2 5.7 5.7 0 0 0-3.64-1.2 6.27 6.27 0 0 0-3.34.86 5.23 5.23 0 0 0-2.1 2.3L.08 31a9.36 9.36 0 0 1 3.68-3.78 10.71 10.71 0 0 1 5.44-1.41zM40.81 46.33h-5.16l-8.2-9.24v9.24h-4.32v-20h4.32v8.84l7.76-8.84h5.28l-8.8 9.8zM54.1 36.09a4.9 4.9 0 0 1 3.2 4.76 5.34 5.34 0 0 1-2.08 4.28 8.89 8.89 0 0 1-5.8 1.72q-6 0-8.16-4.8L44.78 40q1.08 3 4.68 3a4.45 4.45 0 0 0 2.64-.7 2.2 2.2 0 0 0 1-1.86 2 2 0 0 0-.76-1.66 3.23 3.23 0 0 0-2.12-.62h-2.88v-3.8h2.12a3.13 3.13 0 0 0 2.06-.62 2.12 2.12 0 0 0 .74-1.7 2.06 2.06 0 0 0-.84-1.7 3.53 3.53 0 0 0-2.24-.66A4.17 4.17 0 0 0 45 32.29l-3.52-2q2.23-4.48 7.6-4.48a7.89 7.89 0 0 1 5.34 1.7 5.25 5.25 0 0 1 2 4.14 4.85 4.85 0 0 1-2.32 4.44zM76.36 26.33h4.32v20h-4.32v-2.88a8.11 8.11 0 0 1-7 3.4 9.36 9.36 0 0 1-7-3.06 10.4 10.4 0 0 1-2.92-7.46 10.36 10.36 0 0 1 2.92-7.48 9.38 9.38 0 0 1 7-3 8.13 8.13 0 0 1 7 3.36zM65.52 40.91a6.52 6.52 0 0 0 9 0 6.26 6.26 0 0 0 1.8-4.58 6.24 6.24 0 0 0-1.8-4.58 6.52 6.52 0 0 0-9 0 6.24 6.24 0 0 0-1.8 4.58 6.26 6.26 0 0 0 1.8 4.58zM105.82 26.33v20h-4.2V33.17l-5.76 9.16h-.52l-5.72-9.12v13.12h-4.2v-20h4.4l5.8 9.24 5.8-9.24zM126.35 26.33h4.32v20h-4.32v-2.88a8.11 8.11 0 0 1-7 3.4 9.38 9.38 0 0 1-7-3.06 10.4 10.4 0 0 1-2.92-7.46 10.36 10.36 0 0 1 2.92-7.48 9.4 9.4 0 0 1 7-3 8.13 8.13 0 0 1 7 3.36zm-10.84 14.58a6.52 6.52 0 0 0 9 0 6.26 6.26 0 0 0 1.8-4.58 6.24 6.24 0 0 0-1.8-4.58 6.52 6.52 0 0 0-9 0 6.24 6.24 0 0 0-1.8 4.58 6.26 6.26 0 0 0 1.8 4.58zM150.6 26.33v4.16h-6.52v15.84h-4.32V30.49h-6.56v-4.16zM162.49 46.85a10.28 10.28 0 0 1-7.48-3 10.12 10.12 0 0 1-3.08-7.48 10.1 10.1 0 0 1 3.07-7.52 10.75 10.75 0 0 1 15 0 10.12 10.12 0 0 1 3.06 7.48 10.14 10.14 0 0 1-3.06 7.48 10.26 10.26 0 0 1-7.51 3.04zm-4.44-6a6.38 6.38 0 0 0 8.88 0 6.58 6.58 0 0 0 0-9 6.38 6.38 0 0 0-8.88 0 6.58 6.58 0 0 0 0 9zM187.89 25.81a9.4 9.4 0 0 1 7 3.06 10.42 10.42 0 0 1 2.92 7.46 10.42 10.42 0 0 1-2.92 7.48 9.45 9.45 0 0 1-7 3 8.12 8.12 0 0 1-7-3.36v10.88h-4.32v-28h4.32v2.88a8.08 8.08 0 0 1 7-3.4zm-5.2 15.1a6.52 6.52 0 0 0 9 0 6.26 6.26 0 0 0 1.8-4.58 6.24 6.24 0 0 0-1.8-4.58 6.52 6.52 0 0 0-9 0 6.24 6.24 0 0 0-1.8 4.58 6.26 6.26 0 0 0 1.8 4.58z"/><path class="cls-2" d="M6.74 9.77a3.81 3.81 0 0 1-2.8 1.13 3.79 3.79 0 0 1-2.79-1.13A3.76 3.76 0 0 1 0 7a3.73 3.73 0 0 1 1.15-2.82A3.79 3.79 0 0 1 3.94 3a3.82 3.82 0 0 1 2.8 1.14A3.73 3.73 0 0 1 7.89 7a3.76 3.76 0 0 1-1.15 2.77zm-4.9-.69a2.84 2.84 0 0 0 2.1.86A2.82 2.82 0 0 0 6 9.08 2.88 2.88 0 0 0 6.9 7 2.86 2.86 0 0 0 6 4.87 2.83 2.83 0 0 0 3.94 4a2.85 2.85 0 0 0-2.1.87A2.85 2.85 0 0 0 1 7a2.87 2.87 0 0 0 .84 2.08zM14.8 3.22h1v7.5h-1V7.46h-4.32v3.26h-1v-7.5h1v3.27h4.32zM24 3.22v7.5h-1V4.18h-3.36v3.35a3.64 3.64 0 0 1-.71 2.58 2.41 2.41 0 0 1-2 .61v-.93a1.36 1.36 0 0 0 1.27-.4 3.07 3.07 0 0 0 .41-1.86V3.22zM32.55 3.22h1v7.5h-1V9.25a3.36 3.36 0 0 1-3 1.65 3.73 3.73 0 0 1-2.74-1.14A3.81 3.81 0 0 1 25.65 7a3.84 3.84 0 0 1 1.13-2.79A3.73 3.73 0 0 1 29.52 3a3.36 3.36 0 0 1 3 1.65zm-5.06 5.86a3 3 0 0 0 4.2 0A2.88 2.88 0 0 0 32.55 7a2.86 2.86 0 0 0-.86-2.1 3 3 0 0 0-4.2 0 2.85 2.85 0 0 0-.85 2.1 2.87 2.87 0 0 0 .85 2.08zM41.06 3.22h.84v7.5h-1V5l-4.48 5.77h-.82V3.22h1V9zM36.8 2v-.85h3.91V2zM49.27 3.22h1v7.5h-1V7.46H45v3.26h-1v-7.5h1v3.27h4.32zM62.41 9.77A4 4 0 0 1 55.66 7a3.77 3.77 0 0 1 1.15-2.79 4 4 0 0 1 5.6 0A3.76 3.76 0 0 1 63.55 7a3.79 3.79 0 0 1-1.14 2.77zm-4.9-.69a3 3 0 0 0 4.2 0A2.87 2.87 0 0 0 62.56 7a2.85 2.85 0 0 0-.85-2.1 3 3 0 0 0-4.2 0 2.86 2.86 0 0 0-.86 2.1 2.88 2.88 0 0 0 .86 2.08zM68.52 10.9a3.66 3.66 0 0 1-2.7-1.07 3.74 3.74 0 0 1-1.08-2.78 6.2 6.2 0 0 1 .57-2.95 5.06 5.06 0 0 1 2.31-1.87c.22-.1.51-.24.88-.39s.64-.27.82-.36a4.43 4.43 0 0 0 .61-.35 1.52 1.52 0 0 0 .49-.49 1.56 1.56 0 0 0 .21-.64l.79.45a2.06 2.06 0 0 1-.25.68 3.09 3.09 0 0 1-.36.5 2.65 2.65 0 0 1-.59.43 5.06 5.06 0 0 1-.61.33l-.75.32-.72.3A5.13 5.13 0 0 0 66.6 4a2.77 2.77 0 0 0-.71 1.27 3.12 3.12 0 0 1 1.3-1 4.17 4.17 0 0 1 1.54-.32 3.35 3.35 0 0 1 3.46 3.49 3.33 3.33 0 0 1-1 2.52 3.66 3.66 0 0 1-2.67.94zm0-1a2.7 2.7 0 0 0 1.93-.72 2.38 2.38 0 0 0 .76-1.81 2.46 2.46 0 0 0-.72-1.82 2.58 2.58 0 0 0-1.9-.71 3.06 3.06 0 0 0-1.93.67 2.11 2.11 0 0 0-.87 1.77 2.45 2.45 0 0 0 .79 1.88 2.73 2.73 0 0 0 1.94.76zM78.71 3.22h1.05l-3.21 8.2a4.1 4.1 0 0 1-1.23 1.74 2.49 2.49 0 0 1-1.8.56v-.93c.9.1 1.59-.41 2.06-1.56l.19-.46-3.36-7.55h1l2.82 6.29zM86 3.22h1v7.5h-1V7.88a4.74 4.74 0 0 1-2.14.44 3.29 3.29 0 0 1-2.25-.68 2.56 2.56 0 0 1-.77-2V3.22h1v2.41A1.67 1.67 0 0 0 82.28 7a2.28 2.28 0 0 0 1.5.41A5.39 5.39 0 0 0 86 7zM92.47 3a3.44 3.44 0 0 1 2.7 1.18A4.12 4.12 0 0 1 96.2 7v.47h-6.62a2.69 2.69 0 0 0 1 1.81 3.09 3.09 0 0 0 2 .66A2.88 2.88 0 0 0 94 9.59a2.32 2.32 0 0 0 1-.92l.87.51a3.56 3.56 0 0 1-1.35 1.26 4 4 0 0 1-2 .46 3.8 3.8 0 0 1-4-3.93 3.81 3.81 0 0 1 1.1-2.8A3.74 3.74 0 0 1 92.47 3zm0 1a2.82 2.82 0 0 0-2.89 2.51h5.59a2.71 2.71 0 0 0-.91-1.84A2.6 2.6 0 0 0 92.47 4zM103.09 3.22h1v7.5h-1V7.46h-4.32v3.26h-1v-7.5h1v3.27h4.32zM111.59 3.22h.84v7.5h-1V5L107 10.72h-.84v-7.5h1V9zM118 3a3.41 3.41 0 0 1 2.69 1.18 4.08 4.08 0 0 1 1 2.78v.47h-6.59a2.73 2.73 0 0 0 1 1.81 3.13 3.13 0 0 0 2 .66 2.92 2.92 0 0 0 1.48-.35 2.35 2.35 0 0 0 .93-.92l.87.51a3.56 3.56 0 0 1-1.38 1.3 4 4 0 0 1-1.95.46 3.8 3.8 0 0 1-4-3.93 3.85 3.85 0 0 1 1.1-2.8A3.77 3.77 0 0 1 118 3zm0 1a2.82 2.82 0 0 0-2.9 2.51h5.6a2.77 2.77 0 0 0-.92-1.84A2.6 2.6 0 0 0 118 4zM134 11.07l6.92-4a1 1 0 0 0 0-1.68l-6.92-4a1 1 0 0 0-1.45.84v8a1 1 0 0 0 1.45.84z"/></g></g></svg>