<svg xmlns="http://www.w3.org/2000/svg" viewBox="0 0 67.9 52.14"><g data-name="Слой 2"><g data-name="Слой 1"><path d="M67.79.09a.5.5 0 0 0-.13-.09L0 .13v15L32.66 15l.05 3.13L0 18.38V33h32.67v3.2L0 36.24V52s30.07.09 44.68.08a25.62 25.62 0 0 0 3.7-.08c3-.49 4.83-2.83 6-5.25a32.38 32.38 0 0 0 2-5.55c.54-2 1.17-4 1.68-5.86.27-1 .45-2.05.73-3.05.8-2.87 1.77-5.8 2.54-8.74 1-3.92 2.1-7.8 3.23-11.84.52-1.89 1-3.88 1.63-5.9.43-1.34.85-2.82 1.34-4.34.19-.4.54-1.25.26-1.38zm-5.9 14C60 18.82 59.65 24 57.74 28.82c-1.84 4.66-1.46 10.92-6.39 13.76l-.33.17a5 5 0 0 1-2.86 4.68c-1.28.61-44.67.26-44.67.26v-7.53l32.79-.06V29.2l-32.79-.15v-6.92h32.75V11.29H3.42l.07-7.09L64.24 4 61 7.85a6.74 6.74 0 0 1 .89 6.21z" fill="#fff"/><path d="M67.79.09a.3.3 0 0 0-.13-.09S41.22 30.76 41 31.51c1.12.64 2.27 1.13 3.36 1.76a17.16 17.16 0 0 1 3 2.2 14.93 14.93 0 0 1 2.28 2.88A9.19 9.19 0 0 1 51 42.14a5.11 5.11 0 0 1-2.28 5c-1.42 2.1-8.29 4.58-8.48 4.68l-.63.33h5.06a25.62 25.62 0 0 0 3.7-.08c3-.49 4.83-2.83 6-5.25a32.38 32.38 0 0 0 2-5.55c.54-2 1.17-4 1.68-5.86.27-1 .45-2.05.73-3.05.8-2.87 1.77-5.8 2.54-8.74 1-3.92 2.1-7.8 3.23-11.84.52-1.89 1-3.88 1.63-5.9.43-1.34.85-2.82 1.34-4.34.2-.47.55-1.32.27-1.45zM54.15 35.42c-.08.26-.32 1.35-.65 1.34s-.39-.64-.6-.9a4.12 4.12 0 0 1-.52-1 14.37 14.37 0 0 0-4-4c-.37-.23-1-.44-1-.77s.37-.7.6-1c.73-1.05 11.5-15.4 12.83-16.53 0 0 0-.05 0 0a.29.29 0 0 1 .13.08c-.1.85-6.31 21.25-6.79 22.78z" fill="#ffc431"/></g></g></svg>