<svg xmlns="http://www.w3.org/2000/svg" width="17.5" height="18.937" viewBox="0 0 17.5 18.937">
  <defs>
    <style>
      .cls-1 {
        fill: #1f5af4;
        fill-rule: evenodd;
      }
    </style>
  </defs>
  <path class="cls-1" d="M358.256,217.039a0.739,0.739,0,1,0,0-1.478h-0.583a1.672,1.672,0,0,1,0-2.216h0.583a0.739,0.739,0,1,0,0-1.478h-3.535a0.736,0.736,0,0,0-.067-1.029,0.746,0.746,0,0,0-1.05.054,2.686,2.686,0,0,1-1.751.938h-0.019a1.992,1.992,0,0,1-.981-0.2c-0.139-.059-0.3-0.126-0.5-0.192l-0.256-.085-0.251.1c-0.145.057-.266,0.109-0.373,0.155a2.132,2.132,0,0,1-1.091.226,2.607,2.607,0,0,1-1.642-.822,5.415,5.415,0,0,1-1.269-3.9,1.989,1.989,0,0,1,.825-1.7,3.883,3.883,0,0,0,1.3.7,3.072,3.072,0,0,0,.885.14,2.26,2.26,0,0,0,1.07-.26,3.063,3.063,0,0,0,.9-0.765,2.8,2.8,0,0,0,.425-0.106,3.952,3.952,0,0,1,1.383-.163c1.551,0,2.477.8,2.477,2.151a0.748,0.748,0,0,0,.017.157,8.782,8.782,0,0,1-.061.928,0.74,0.74,0,0,0,.647.823c0.031,0,.061,0,0.091,0a0.742,0.742,0,0,0,.737-0.65,10.431,10.431,0,0,0,.074-1.264,0.725,0.725,0,0,0-.023-0.176c-0.084-2.072-1.653-3.452-3.959-3.452a8.5,8.5,0,0,0-1.057.057,3.777,3.777,0,0,1,.894-1.157,0.736,0.736,0,0,0,.082-1.042,0.746,0.746,0,0,0-1.047-.082,5.1,5.1,0,0,0-1.081,1.3,2.77,2.77,0,0,0-1.17-.659,5.548,5.548,0,0,0-3.859.613l0,0a0.739,0.739,0,0,0-.269,1.011l0.008,0.013a6.4,6.4,0,0,0,.508.8,3.492,3.492,0,0,0-1.284,2.779,6.859,6.859,0,0,0,1.528,4.758h-2.16a1.855,1.855,0,0,0-1.858,1.847v1.478a1.833,1.833,0,0,0,.284.98,1.468,1.468,0,0,0-.284.867v1.109A1.855,1.855,0,0,0,343.358,220h14.9a0.739,0.739,0,1,0,0-1.478H357.6a1.3,1.3,0,0,1,0-1.478h0.656Zm-9.8-13.728a0.979,0.979,0,0,1,.676.457,1.192,1.192,0,0,1,.1.562v0.058a1.652,1.652,0,0,1-.377.3,1.009,1.009,0,0,1-.826.011,3.274,3.274,0,0,1-1.547-1.222A3.3,3.3,0,0,1,348.459,203.311Zm7.513,15.206H343.358a0.371,0.371,0,0,1-.372-0.369v-1.109h0a0.767,0.767,0,0,0,.145-0.014,1.882,1.882,0,0,0,.227.014h7.5a0.739,0.739,0,1,0,0-1.478h-7.5a0.371,0.371,0,0,1-.372-0.369v-1.478a0.371,0.371,0,0,1,.372-0.369h12.586a3.556,3.556,0,0,0,0,2.216h-1.366a0.739,0.739,0,1,0,0,1.478h1.394A3.113,3.113,0,0,0,355.972,218.517Z" transform="translate(-341.5 -201.063)"/>
</svg>
