<svg xmlns="http://www.w3.org/2000/svg" width="15.532" height="19" viewBox="0 0 15.532 19">
  <defs>
    <style>
      .cls-1 {
        fill: #1f5af4;
        fill-rule: evenodd;
      }
    </style>
  </defs>
  <path class="cls-1" d="M355.916,688.35a6.772,6.772,0,0,0-4.714-2.026,2.2,2.2,0,0,0-2.055-1.45h0a2.154,2.154,0,0,0-.768.141v-1.477a0.738,0.738,0,0,0-.732-0.743h-0.734l0-.815a0.732,0.732,0,1,0-1.464,0V682.8h-0.731a0.737,0.737,0,0,0-.731.743v8.535a0.736,0.736,0,0,0,.731.742h0.731v0.744a0.736,0.736,0,0,0,.73.743h0a0.736,0.736,0,0,0,.731-0.741l0-.746h0.733a0.736,0.736,0,0,0,.731-0.742v-2.886a2.17,2.17,0,0,0,.766.142h0a2.2,2.2,0,0,0,2.081-1.52,5.435,5.435,0,0,1,5.237,5.454,0.732,0.732,0,1,0,1.463,0A6.938,6.938,0,0,0,355.916,688.35Zm-9,2.98h-1.464v-7.05h1.464v7.05Zm2.232-3.486h0a0.743,0.743,0,0,1,0-1.485h0A0.743,0.743,0,0,1,349.145,687.844Zm7.135,7.943H343.144a0.743,0.743,0,0,0,0,1.485h2.305v1.484h-2.305a0.743,0.743,0,0,0,0,1.485h7.922a6.751,6.751,0,0,0,3.4-.916,6.957,6.957,0,0,0,2.441-2.408,0.751,0.751,0,0,0,.015-0.752A0.731,0.731,0,0,0,356.28,695.787Zm-5.214,2.97h-4.153v-1.484h7.839A5.3,5.3,0,0,1,351.066,698.757Z" transform="translate(-342.406 -681.25)"/>
</svg>
