<svg xmlns="http://www.w3.org/2000/svg" width="53.156" height="68.844"><path d="M51.506 26.884H37.771V1.671a1.651 1.651 0 0 0-2.678-1.29c-.2.161-20.286 16.129-26.507 20.769-7.749 5.78-8.6 8.53-8.6 13.024v28.217a6.461 6.461 0 0 0 6.46 6.453h45.06a1.649 1.649 0 0 0 1.65-1.649V28.533a1.649 1.649 0 0 0-1.65-1.649zm-9.564 3.3v20.26l-21.936 5.674 16.991-10.622a1.65 1.65 0 0 0 .775-1.4V30.182h4.173zm7.914 35.363H6.446a3.158 3.158 0 0 1-3.156-3.154V34.174c0-3.091 0-4.957 7.271-10.381 4.88-3.64 18.183-14.164 23.909-18.7v38.1L9.179 59.005a1.649 1.649 0 0 0 .875 3.047 1.683 1.683 0 0 0 .414-.052l33.54-8.671a1.65 1.65 0 0 0 1.237-1.6V30.182h4.613v35.362zm-28.31-30.978a4.022 4.022 0 0 0 2.625.916 6.939 6.939 0 0 0 5.094-2.67 7.6 7.6 0 0 0 1.791-4 4.369 4.369 0 0 0-1.4-3.905 4.021 4.021 0 0 0-2.624-.916 6.945 6.945 0 0 0-5.1 2.671c-2.27 2.71-2.441 6.179-.386 7.904zm2.917-5.781a3.785 3.785 0 0 1 2.567-1.493.768.768 0 0 1 .5.145 1.21 1.21 0 0 1 .24 1.03 4.343 4.343 0 0 1-1.037 2.225 3.782 3.782 0 0 1-2.565 1.492.771.771 0 0 1-.5-.144c-.453-.38-.362-1.871.795-3.255z" fill="#94a8b2" fill-rule="evenodd"/></svg>