<svg xmlns="http://www.w3.org/2000/svg" xmlns:xlink="http://www.w3.org/1999/xlink" viewBox="0 0 181.83 168.75"><defs><style>.cls-3{fill:#1a4765}.cls-4{fill:#1f5af4}.cls-13,.cls-7,.cls-8{fill:#d0dae9}.cls-8{opacity:.55;mix-blend-mode:screen}.cls-11{fill:#fcd2c5}.cls-13{mix-blend-mode:multiply}.cls-14{fill:#10609d}.cls-17{fill:#e4eef4}.cls-18{fill:#fff}</style><linearGradient id="Ѕезым_нный_градиент_156" x1="544.6" y1="-55.17" x2="528.99" y2="-117.09" gradientTransform="matrix(-.95 .31 .31 .95 560.12 47.43)" gradientUnits="userSpaceOnUse"><stop offset="0" stop-color="#34aab6"/><stop offset=".99" stop-color="#41d9d9"/></linearGradient><linearGradient id="Ѕезым_нный_градиент_156-2" x1="560.43" y1="-62.75" x2="553.81" y2="-89" xlink:href="#Ѕезым_нный_градиент_156"/></defs><g style="isolation:isolate"><g id="Слой_2" data-name="Слой 2"><g id="layer_1" data-name="layer 1"><path d="M27.06 164.54c4.34-.33 12.87-3.7 14.94-8.5s1.1-9.64-1.6-14.16c-1.32-2.19-5-5.44-5.57-8.16-.89-4.62 1.07-9.44 1-12.56s-1.65-6.76-4.76-8.11c-7.8-3.39-14.28-9.66-16.4-10.69-2.55-1.22-5.91-1-7.64 1.24-3.35 4.23.97 7.4 2.47 9.4 6.54 8.53-4.66 11.53-4.92 19.82-.14 4.4 11.68 12.58 11.68 13.6a4.64 4.64 0 0 1-2.21 3.63 5.84 5.84 0 0 0-1.79 6.15c2.31 7.08 10 8.7 14.8 8.34z" fill="url(#Ѕезым_нный_градиент_156)"/><path class="cls-3" d="M18.9 123.47c1.2 3.16 2.33 6.35 3.44 9.55s2.15 6.4 3.24 9.6l3.07 9.67c1 3.23 2 6.46 2.89 9.72-1.2-3.16-2.32-6.35-3.44-9.54l-3.24-9.61c-1-3.22-2.08-6.43-3.07-9.66s-1.98-6.47-2.89-9.73z"/><path class="cls-3" d="M25.24 143.52a59 59 0 0 1 2-6.73c.39-1.1.79-2.2 1.24-3.28a13 13 0 0 1 1.52-3.14 33 33 0 0 0-1 3.33c-.33 1.12-.7 2.23-1.08 3.33a57 57 0 0 1-2.68 6.49zM21.16 151.39a20.48 20.48 0 0 1 4.66 2 23.52 23.52 0 0 1 2.18 1.38c.35.25.68.51 1 .78a2 2 0 0 1 .72 1.08 2.17 2.17 0 0 0-.93-.77l-1.11-.59c-.74-.4-1.46-.82-2.19-1.23-1.49-.84-2.93-1.67-4.33-2.65zM14 127.87a22.56 22.56 0 0 1 4.5 3.3c1.38 1.25 2.68 2.54 4 3.91a24.89 24.89 0 0 1-4.5-3.35c-1.36-1.24-2.66-2.53-4-3.86z"/><path class="cls-4" d="M28.12 164.15c2.13-1.47 4.4-3.61 3.77-6.49s-3-4.61-5.79-5.25c-1.38-.3-3.15-.16-4.38-.81a2.6 2.6 0 0 1-1.25-1.3 10.39 10.39 0 0 1-.62-2.63 3.56 3.56 0 0 0-1.79-2.67c-2.33-1.24-5.55.43-7.85-1.2-1.09-.76-1.1-1.9-1.38-3.22s-.53-3.09-1.61-4.22-2.56-2-4.25-1.21S.65 138 .4 140a16.92 16.92 0 0 0-.4 3.86c.32 4 .41 7.33 3.86 10.15 2.78 2.27 7.09.61 10.43 8.37 3.08 7.07 11.44 3.43 13.83 1.77z"/><path class="cls-3" d="M9.36 148.26c1.81 1 3.57 2 5.33 3s3.5 2.12 5.23 3.2 3.44 2.21 5.13 3.36 3.38 2.3 5 3.52c-1.81-1-3.58-2-5.34-3s-3.49-2.12-5.22-3.21-3.45-2.2-5.14-3.35-3.35-2.29-4.99-3.52zM18.3 154.09a28.75 28.75 0 0 1-2.2-3.71 9.26 9.26 0 0 1-.7-2.08 4.32 4.32 0 0 1 .08-2.2 8.19 8.19 0 0 0 .49 2.05c.24.65.51 1.28.81 1.92a18 18 0 0 1 1.52 4.02z"/><path class="cls-3" d="M21.15 160.42c.48-.28.86-.62 1.31-.92a5 5 0 0 1 1.5-.75 3.38 3.38 0 0 1 1.73 0 3.65 3.65 0 0 1 1.45.82 6.37 6.37 0 0 0-3-.11 10.27 10.27 0 0 0-1.41.53 4.07 4.07 0 0 1-1.58.43zM6.9 151a13.44 13.44 0 0 1 3.49-.7 8.46 8.46 0 0 1 1.81.1 3.41 3.41 0 0 1 1.68.71 8.51 8.51 0 0 0-1.73-.13c-.57 0-1.14 0-1.72.08A17.42 17.42 0 0 1 6.9 151z"/><path d="M14.12 162c.17-2.08-.91-3.71-.13-7.61 1.32-6.68-7.36-6.57-9.91-10.25-2.09-3-3.3-6-1.82-8.44A6.75 6.75 0 0 0 .4 140a16.92 16.92 0 0 0-.4 3.86c.32 4 .41 7.33 3.86 10.15 2.75 2.22 6.94.7 10.26 7.99z" fill="url(#Ѕезым_нный_градиент_156-2)"/><path fill="#1499ab" d="M79 119.37L63 122l-9.56 1.57-19.35-3.47-12.43-2.23 19.77-5.12L79 119.37z"/><path class="cls-3" d="M63 122l-9.56 1.57-19.35-3.47 7.34-1.9L63 122zM80.9 84.46l-8.37 23a.63.63 0 0 0 .54.85l25.42 2a3.1 3.1 0 0 0 3.16-2l7.73-21.2a.63.63 0 0 0-.54-.85l-27.3-2.16a.61.61 0 0 0-.64.36z"/><path class="cls-7" d="M101.28 106.6l7.11-19.51-26.71-2.12-7.1 19.51 26.7 2.12z"/><path class="cls-8" d="M82.99 91.96l.64-1.75-3.18-.25-.64 1.75 3.18.25zM82.05 94.47l.64-1.75-3.17-.25-.64 1.75 3.17.25zM81.12 96.98l.64-1.75-3.17-.25-.64 1.75 3.17.25zM80.19 99.5l.64-1.76-3.18-.25-.64 1.75 3.18.26z"/><path d="M76.45 108.53l-26.64-2.15a1.13 1.13 0 0 1-1-1.22 1.14 1.14 0 0 1 1.22-1l26.64 2.14a1.14 1.14 0 0 1 1.05 1.23 1.14 1.14 0 0 1-1.27 1z" fill="#aec0de"/><path class="cls-8" d="M100.18 85.36L82.83 106.6l5.8.62 17.35-21.24-5.8-.62z"/><path d="M99.58 110.39l-24.52-2a1.16 1.16 0 0 1-1.06-1.23 1.16 1.16 0 0 1 1.25-1.07l24.53 2a1.16 1.16 0 0 1 1.07 1.25 1.17 1.17 0 0 1-1.27 1.05z" fill="#d2dbea"/><path class="cls-3" transform="rotate(4.59 93.075 108.61)" d="M91.96 108.28h2.21v.66h-2.21z"/><path class="cls-3" transform="rotate(4.58 90.498 108.465)" d="M89.71 108.08h1.6v.66h-1.6z"/><path class="cls-8" d="M84.18 87.16a1.27 1.27 0 0 1-1.34 1.14 1.19 1.19 0 0 1-1.06-1.3 1.27 1.27 0 0 1 1.34-1.13 1.16 1.16 0 0 1 1.06 1.29z"/><path class="cls-11" d="M66.75 108.24c0 .29-1.21.59-1.48.51-.6-.39-.37-.74-1-1a6.11 6.11 0 0 0 1.81.22c.34-.05.69-.18.67.27z"/><path class="cls-11" d="M65.66 108.53c.71.46 2.19 1.67 2.29 1.75a9.86 9.86 0 0 1 1.25 1.09 1.59 1.59 0 0 1 .09.95.48.48 0 0 1-.47.27c-.08.4-1 0-1 .12 0 .42-.57.57-1.7-.4-.07-.06-3.32-1.89-4.31-2.56a15.7 15.7 0 0 1 2-2.26 15.38 15.38 0 0 1 1.85 1.04z"/><path class="cls-11" d="M48.65 92.64a2.41 2.41 0 0 1 .6.33C52 95.29 60.76 105.64 64 107.59a12.47 12.47 0 0 0-1.83 2.41c-5.3-3.32-17.58-13.08-16.9-15.49a2.42 2.42 0 0 1 3.38-1.87z"/><path class="cls-11" d="M48.12 73.45c.9 3.21 1 14 2 19.12 1.27 6.3-3.58 4.94-4.58 3.15-2.64-4.7-7-18.69-4.71-20.31 1.04-.7 7.17-2.55 7.29-1.96z"/><path d="M49.23 73c2.21 2.68 1.16 16.86 1.67 19.39a9.76 9.76 0 0 1 .18 1.24c1.11 1.1 2.54 2.63 4 4.24 3.3 3.53 7.4 7.91 9.29 9l-2.64 3.71c-4.67-2.93-14.88-10.89-16.88-14.6S38.13 79 39.81 75.54c2.53-5.15 7.46-4.88 9.42-2.54z" fill="#c6fff0"/><path class="cls-4" d="M45.24 110.8c4.56-1.73 27.1-6.74 38.9-4.84 7.07 1.14 6 8.33 3.9 9.26-5.55 2.51-27.27 10.33-37.22 9-7.64-1.07-8.02-12.49-5.58-13.42z"/><path class="cls-4" d="M38.71 111.87c2.86-4 27.54-8.9 39.34-7 7.07 1.14 5.71 7.87 3.9 9.26-3.74 2.86-19.07 11.33-35.36 9.12-7.65-1.03-11.01-7.07-7.88-11.38z"/><path class="cls-11" d="M84.4 146.87a6.21 6.21 0 0 0-.6 1.84 4 4 0 0 1-3 .48 9.69 9.69 0 0 1 .41-3c.2.05 2.12-.68 3.19.68z"/><path class="cls-4" d="M89.51 112.77c-2.51 17.25-4.81 35-4.81 35a3.32 3.32 0 0 0-3.76.07s-1.25-17.27-1.77-32.6c-.34-10.08 11.36-9.51 10.34-2.47z"/><path class="cls-7" d="M84 148a2.59 2.59 0 0 0 .44.7c.74 1 4.42 3.37 4.35 4.7 0 .67-1.48 1.2-2.64 1.19a5.47 5.47 0 0 1-2.76-.54 13.92 13.92 0 0 1-2.39-2.93 3.48 3.48 0 0 1-.1-2.59c.93-1.46 3.1-.53 3.1-.53z"/><path class="cls-13" d="M83.71 149.59c1 1 4.48 2.85 4.42 4 0 .57-1.25 1-2.22 1a4.74 4.74 0 0 1-2.33-.45 10.45 10.45 0 0 1-2-2.45c-.97-2.02 1.15-3.05 2.13-2.1z"/><path class="cls-11" d="M57.67 146.07c-.32 1.71-.82 3.38-.82 3.38a9.18 9.18 0 0 1-3.48-1.79 25.42 25.42 0 0 0 1.3-2.25c1.27-1.17 2.82.68 3 .66z"/><path class="cls-4" d="M72.54 121.35c-8.46 15.25-14.73 25.76-14.73 25.76a3.22 3.22 0 0 0-3.46-1.32s4.15-12.07 9.1-26.59c3.26-9.57 12.55-4.07 9.09 2.15z"/><path class="cls-7" d="M53.53 147.54A2.3 2.3 0 0 1 56 147a1.59 1.59 0 0 1 1 1.62 4.12 4.12 0 0 1-.47 1.89 12.72 12.72 0 0 1-2.8 2.49 5.43 5.43 0 0 1-2.81.09c-1.15-.16-2.5-.91-2.42-1.58.13-1.34 4.14-3.12 5.03-3.97z"/><path class="cls-13" d="M54.08 148.54c1.12-.78 3 .57 1.74 2.38A10.8 10.8 0 0 1 53.5 153a4.65 4.65 0 0 1-2.37.08c-1-.14-2.1-.77-2-1.34.07-1.08 3.79-2.39 4.95-3.2z"/><path class="cls-7" d="M39.07 101.68a153 153 0 0 0 16.26 1.63c3.38.07 4.43-.8 7.44-1.67a9.88 9.88 0 0 0 1.72 4.45c1.13 1.51 2.82 5.28-5.1 9.46-13.35 7.07-24.38-.78-24.9-.82a130.89 130.89 0 0 1 .92-13.61c1.18.23 2.41.4 3.66.56z"/><path class="cls-11" d="M49.54 61.13c.39.29 4.47 2.57 5.64 2.4 0 .32-.81 3.74-.06 5.58-.33 1.71-5.07 1.71-6.36-1.19.54-.82 1.01-5.21.78-6.79z"/><path class="cls-11" d="M56.22 53.07c2.63.37 5 1.5 5.06 4.07 0 .92-2 8.85-6.5 9-3.2.13-4.67-3.65-4.37-5.76 0 0 .41-2.87.41-2.89.4-2.76 2.58-4.82 5.4-4.42z"/><path class="cls-14" d="M43.94 69.19c1.22-.29 4.82-1.27 4.82-1.27a4.74 4.74 0 0 0 2.89 1.45 6 6 0 0 0 3.47-.26s4.32 1.83 5.07 2.29c4.47 2.73 3.3 5.66 3.49 9.69.09 1.87-2.41 15.13.73 23.53 1.09 2.92-8.77 11.93-26.51 7.73l-1.47-6.73-1.25 6.38c-.68-.08-1.3-.15-1.84-.19.09-16.34 4.72-32.21 4.92-32.95.84-3.2 2.05-8.81 5.68-9.67z"/><path class="cls-3" d="M48.14 49.8c4.14-3.24 10.59-1.07 12.42 3.17 1.37 3.16 3.16 1.94 3 1.1.44 2.1-.45 3.93-4.56 3.61-.85-.06 1.89.79 1.89.79s-4.34 9-11 6.79a10.42 10.42 0 0 1-3.73-2.6s2.18.36 1-1.41c-2.16-3.44-2.67-8.59.98-11.45z"/><path class="cls-11" d="M88.75 104.84c.13.26-1.45 1.61-1.73 1.62-.72 0-1.18-.26-1.14-.8a9 9 0 0 0 2.15-.81c.28-.16.55-.42.72-.01z"/><path class="cls-11" d="M87.13 105.79a35.89 35.89 0 0 1 4.4 1.08c.16.11.76.24.74.72 0 .32-.57.55-.57.55.29.7-1 .61-.9.7.3.42-.33.65-1.8.42-1.18-.18-3-.31-4.88-.72a14.62 14.62 0 0 1 .91-2.92 17 17 0 0 1 2.1.17z"/><path class="cls-11" d="M66.84 97.75a2.09 2.09 0 0 1 .64.23c3.14 1.78 14.6 6.5 18.16 7.84a12.89 12.89 0 0 0-1.49 2.72c-5.3-1.17-20.78-5.32-20.55-7.81a3.05 3.05 0 0 1 3.24-2.98z"/><path class="cls-11" d="M62.49 77.65c1.28 3.08 2.69 13.75 4.34 18.73 2 6.11-3 5.34-4.17 3.69-3.19-4.35-9.86-17.8-7.78-19.69.9-.81 7.38-3.29 7.61-2.73z"/><path class="cls-14" d="M63.57 76c.48 3.37 1 6.49 1.69 10.18S67.79 97 67.88 97.36c1.22 1 13.64 6.15 15.66 7L82 108.59c-5.12-1.61-17.59-4.68-20-8.12-2.59-3.56-10.41-17.4-8.34-20.61s9.87-4.17 9.91-3.86z"/><path fill="#3dc7c9" d="M53.44 123.57v45.18l17.01-5.01L79 119.37l-25.56 4.2z"/><path fill="#79d9d3" d="M53.44 123.57l-31.78-5.7 6.62 45.87 25.16 5.01v-45.18z"/><path class="cls-11" d="M132.82 89.37c1.12 14.31 4.08 16.2 3.4 23.5-1.19 12.6 3.72 42.19 3.72 42.19a3.91 3.91 0 0 0 3.06-.64s.72-21.88 2.49-42.37c.62-7.29 2.12-11.73 3.33-22.68z"/><path class="cls-3" d="M143.28 153.48c1.46 3.29 5.45 3.18 4.83 4.58-.32.7-2.35.84-3.67.84s-3-1.4-3.56-2c-1.06-1.12-2.58-.52-2.58-2 0-1 .77-1.47 1-1.85.43-.75 3.7-.24 3.98.43z"/><path class="cls-11" d="M143.05 151.64a2.46 2.46 0 0 0 .23 1.84c.14.23.47.81-.78.72a20.58 20.58 0 0 1-3.21-1.15 7.84 7.84 0 0 0 .47-1.64z"/><path class="cls-3" d="M139 158.85c0 .07-.26.06-.29 0-.12-.25-.43-3.83-.43-3.83l.57-.17s.27 3.66.15 4z"/><path class="cls-11" d="M96.49 71.57c-.08.29 1.09.88 1.39.86.7-.27.54-.67 1.23-.82a6.36 6.36 0 0 1-1.89-.19c-.32-.1-.65-.31-.73.15z"/><path class="cls-11" d="M97.53 72.12c-.83.3-2.6 1.19-2.72 1.25a11.13 11.13 0 0 0-1.51.82 1.66 1.66 0 0 0-.31 1c.05.32.42.38.42.38 0 .43 1 .25 1 .36-.1.42.45.7 1.82 0 .08 0 3.79-1.16 5-1.61a15.24 15.24 0 0 0-1.57-2.76 14 14 0 0 0-2.13.56zM125.38 41.41c-1.64 3.06-6.28 13-8.5 18-2.72 6.11 2.52 5.83 3.94 4.24 3.74-4.17 12-17.4 10.07-19.57-.89-.92-5.22-3.22-5.51-2.67z"/><path class="cls-11" d="M118.4 59.84a2.27 2.27 0 0 0-.68.21c-3.33 1.72-14.56 10.24-18.31 11.48a12.4 12.4 0 0 1 1.32 2.87c6.14-2.16 20.82-9.28 20.68-11.88a2.53 2.53 0 0 0-3.01-2.68z"/><path class="cls-17" d="M124.57 60c3.66-5.54 8.49-14.52 6.46-16.7-.89-.95-4.4-2.73-5.66-2.51a.89.89 0 0 0-.66.46c-.62 1.21-4.17 8.93-6.68 14.59a27.51 27.51 0 0 1 6.54 4.16z"/><path class="cls-3" d="M128.84 29.63c-.05-.06-3.58-3.39-4.63-1.52-.6 2.25 1.07 6.89.06 10.31-.36 1.23 5.53-1.66 5.41-2.16-.56-2.26-1.35-4.82-.84-6.63z"/><path class="cls-11" d="M137.93 89.37h-16c1.21 10.95 2.7 15.39 3.33 22.68 1.76 20.49 2.49 42.37 2.49 42.37a3.91 3.91 0 0 0 3.06.64s4.9-29.59 3.72-42.19c-.68-7.3 2.28-9.19 3.4-23.5zM128.43 32c0 .37 1.41 4.15.8 6.35.6 1.9 6 1.27 7.09-2.2-.73-.86-1.24-6.29-1.79-7.62-.41.34-4.75 3.47-6.1 3.47z"/><path class="cls-18" d="M143.82 44.94c-.53-4.57-3.81-6.93-7.5-8.84 0 0-2.6 2.86-4.5 3.23a3.44 3.44 0 0 1-2.59-1s-4.19 1.13-4.66 3.4c-1.19 5.67-4.15 7.91-4.28 11.08-.15 3.63 3.95 6.74 4 8.1 1.35 22.56-8 28.66-9.12 42.52 6.37 2.77 29.3 4.91 41.93-2.36-2.71-13.36-8.63-25.2-11.15-35.33-1.95-8.13-1.67-16.74-2.13-20.8z"/><path class="cls-11" d="M128.45 22.24c-2.47.12-4.32 1.34-4.59 3.71-.09.85 1.15 8.26 5.26 8.92 1.74.28 4.63-3 4.53-5l.21-3a5.28 5.28 0 0 0-5.41-4.63z"/><path class="cls-3" d="M127 19.92a3.89 3.89 0 0 0-2.49.65c-2.71 1.78-2 8.2.44 10-1.47-5.41.54-7.45.54-7.45A6.31 6.31 0 0 1 131 24c2.74 2 3.75 11.62 3.21 14.95-.28 1.71 6.08-2.43 6.93-5.06 2.63-8.15-1-12-3.6-14.83s-9.28-2.92-10.54.86z"/><path class="cls-11" d="M133.54 25.92a2.25 2.25 0 0 0-1.13.23 32.2 32.2 0 0 0 .71 3.15 2.33 2.33 0 0 0 1.59-1.66 1.68 1.68 0 0 0-1.17-1.72z"/><path class="cls-3" d="M127.47 153.48c-1.46 3.29-5.44 3.18-4.82 4.58.31.7 2.34.84 3.67.84s3-1.4 3.56-2c1.06-1.12 2.58-.52 2.58-2 0-1-.77-1.47-1-1.85-.46-.75-3.69-.24-3.99.43z"/><path class="cls-11" d="M127.71 151.64a2.49 2.49 0 0 1-.24 1.84c-.14.23-.47.81.79.72a20.4 20.4 0 0 0 3.2-1.15 8.54 8.54 0 0 1-.47-1.64z"/><path class="cls-3" d="M131.74 158.85c0 .07.25.06.28 0 .12-.25.44-3.83.44-3.83l-.57-.17s-.26 3.66-.15 4z"/><path class="cls-11" d="M114.19 77.12c-.34-.05-.7-.2-.7.27 0 .29 1.22.68 1.51.61.65-.37.42-.75 1.08-1a6.65 6.65 0 0 1-1.89.12z"/><path class="cls-11" d="M116.57 76.78a16.3 16.3 0 0 0-2 1c-.76.44-2.36 1.61-2.47 1.69a11.35 11.35 0 0 0-1.35 1.06 1.64 1.64 0 0 0-.15 1 .5.5 0 0 0 .47.3c.06.43 1.09.08 1.08.18 0 .44.55.63 1.78-.32.07-.05 3.55-1.77 4.62-2.42a15.36 15.36 0 0 0-1.98-2.49zM134.76 42.29c-1.11 3.29-1.82 14.46-3.18 19.74-1.67 6.48 3.45 5.33 4.59 3.53 3-4.74 6.37-19.53 4.08-21.34-1-.78-5.25-2.53-5.49-1.93z"/><path class="cls-11" d="M133.15 62.19a2.12 2.12 0 0 0-.64.31c-3 2.25-12.65 12.52-16.15 14.36a12.65 12.65 0 0 1 1.78 2.62c5.7-3.16 19-12.61 18.42-15.15a2.53 2.53 0 0 0-3.41-2.14z"/><path class="cls-17" d="M140.05 57.5c1.36-5.06 2.31-10.84 1.71-13.1-.94-3.52-5.63-4.93-7.69-2.28-.61.77-1.47 6.94-2.13 12.33a27 27 0 0 1 8.11 3.05z"/><path class="cls-4" d="M110.53 20.15L92 20.17a2.76 2.76 0 0 0-2.75 2.75v9.11A2.75 2.75 0 0 0 92 34.78h1.7a.78.78 0 0 1 .21 0l9.1 3.6a.56.56 0 0 0 .73-.69l-.74-2.2a.55.55 0 0 1 .52-.73h7A2.75 2.75 0 0 0 113.3 32v-9.11a2.75 2.75 0 0 0-2.77-2.74z"/><path class="cls-18" d="M95.27 25.4a.89.89 0 0 1-.82-.89.9.9 0 0 1 .9-.9h11.85a.9.9 0 0 1 0 1.8H95.35zM95.28 28.51a.9.9 0 0 1 .07-1.79h11.86a.9.9 0 0 1 0 1.8H95.35zM95.28 31.62a.89.89 0 0 1-.82-.89.9.9 0 0 1 .9-.9h5.34a.9.9 0 0 1 0 1.8h-5.42z"/><path class="cls-4" d="M150 0h27.73a4.12 4.12 0 0 1 4.1 4.12v13.62a4.12 4.12 0 0 1-4.12 4.1h-4.21a.52.52 0 0 0-.21 0l-13.12 5.54a.52.52 0 0 1-.68-.7l1.82-4.17a.52.52 0 0 0-.48-.73h-10.84a4.1 4.1 0 0 1-4.1-4.12V4.04A4.1 4.1 0 0 1 150 0z"/><path class="cls-18" d="M167.28 3.37h-7.49c-3.86 0-6.91 0-6.87 7.35 0 7.06 3 7.23 6.87 7.23h7.49c3.88 0 6.93-.17 7.05-7.29.13-7.38-3.17-7.29-7.05-7.29z"/><path class="cls-4" d="M162.16 14.09l5-2.86a.66.66 0 0 0 0-1.14l-5-2.86a.66.66 0 0 0-1 .57v5.72a.66.66 0 0 0 1 .57z"/></g></g></g></svg>