<svg xmlns="http://www.w3.org/2000/svg" width="756.872" height="548.625"><path d="M750.672 135.782c-8.41 35.727-4.07 77.971.48 122.327 6.83 66.442 14.14 137.621-20.19 198.727a183.782 183.782 0 0 1-27.12 36.612c-80.15 84.435-200.93 53.5-251.31 27.476-28.71-10.718-111.69-52.514-213.91-133.955-127.777-101.8-139.194-231.332-28.08-268.387 41.99-14 80.14-2.288 118.7 9.552 63.46 19.49 128.02 39.316 212.6-54.689 135.97-151.113 232.45-38.013 208.83 62.337zM50.616 399.266c-95.969 60.633-43.615 191.145 57.977 107 29.973-24.826 102.8-20.7 88.569-61.2-17.75-50.503-87.262-83.255-146.546-45.8z" fill="#f1f4fa" fill-rule="evenodd"/></svg>