<svg xmlns="http://www.w3.org/2000/svg" width="447.66" height="337.28"><path data-name="Shape 7 copy" d="M443.91 81.91c-5.08 21.55-2.46 47.03.29 73.79 4.12 40.07 8.53 83.01-12.18 119.87a110.21 110.21 0 0 1-16.36 22.08c-48.34 50.94-121.2 32.28-151.59 16.58-17.32-6.47-67.38-31.68-129.04-80.8-77.07-61.41-83.96-139.55-16.93-161.9 25.33-8.45 48.34-1.38 71.6 5.76 38.28 11.76 77.22 23.72 128.24-32.99 82.02-91.15 140.22-22.93 125.97 37.61zM5.25 267.94c-24.51 60.85 44.14 104.34 63.33 30.56 5.67-21.76 41.2-44.44 20.84-58.62-25.39-17.67-69.04-9.54-84.17 28.06z" fill="#f1f4fa" fill-rule="evenodd"/></svg>