<svg xmlns="http://www.w3.org/2000/svg" width="530.15" height="528.371" viewBox="0 0 530.15 528.371">
  <defs>
    <style>
      .cls-1 {
        fill: #f1f4fa;
        fill-rule: evenodd;
      }
    </style>
  </defs>
  <path id="Shape_7_copy" data-name="Shape 7 copy" class="cls-1" d="M1525.77,815.11c-7.16,30.429-3.47,66.41.41,104.189,5.82,56.591,12.04,117.211-17.19,169.261a156.681,156.681,0,0,1-23.1,31.18c-68.25,71.92-171.12,45.57-214.02,23.41-24.46-9.13-95.13-44.73-182.18-114.1-108.821-86.7-118.545-197.029-23.91-228.59,35.76-11.927,68.25-1.948,101.08,8.136,54.05,16.6,109.03,33.486,181.07-46.58C1463.72,633.309,1545.89,729.639,1525.77,815.11Zm-388.88,403.53c84.15,38.68,150.14-55.19,47.4-87.26-30.32-9.46-59.88-61.12-81.26-33.36C1076.38,1132.62,1084.9,1194.74,1136.89,1218.64Z" transform="translate(-1000.94 -699.469)"/>
</svg>
