<svg xmlns="http://www.w3.org/2000/svg" xmlns:xlink="http://www.w3.org/1999/xlink" viewBox="0 0 101.76 114.13"><defs><style>.cls-1{fill:#79d9d3;}.cls-2,.cls-4{fill:#0d5693;}.cls-3{fill:#f7b690;}.cls-4,.cls-5{fill-rule:evenodd;}.cls-5,.cls-7{fill:#10609d;}.cls-6{fill:#f4a086;}.cls-8{fill:#3dc7c9;}.cls-9{fill:#fcd2c5;}.cls-10{fill:#efc6bb;}.cls-11{fill:url(#linear-gradient);}.cls-12{fill:#e4eef4;}.cls-13{fill:#f6a000;}.cls-14{fill:#fec700;}</style><linearGradient id="linear-gradient" x1="6.23" y1="8.19" x2="27.53" y2="8.19" gradientTransform="matrix(-1, 0, 0, 1, 54.12, 0)" gradientUnits="userSpaceOnUse"><stop offset="0" stop-color="#000203"/><stop offset="1" stop-color="#0a4063"/></linearGradient></defs><title>course-free</title><g id="Слой_2" data-name="Слой 2"><g id="Layer_1" data-name="Layer 1"><path class="cls-1" d="M48.66,84h2.53s-1.56,10.4-2.07,13.86a16.56,16.56,0,0,0,0,5c.31,2.08,1.24,11.32,1.24,11.32h-1.7s-1.31-8.81-1.75-10.75a16.84,16.84,0,0,1-.22-6.17C47.18,93.9,48.66,84,48.66,84Z"/><path class="cls-1" d="M69.33,84h2.39l-2,13.86a17.24,17.24,0,0,0,0,5c.29,2.08,1.18,11.32,1.18,11.32H69.33s-1.25-8.81-1.67-10.75a17.76,17.76,0,0,1-.21-6.17Z"/><path class="cls-1" d="M22,84H19.5l2.08,13.86a17.24,17.24,0,0,1,0,5c-.32,2.08-1.25,11.32-1.25,11.32H22s1.31-8.81,1.75-10.75A16.84,16.84,0,0,0,24,97.21C23.51,93.9,22,84,22,84Z"/><path class="cls-1" d="M42.81,84H40.29s1.55,10.4,2.07,13.86a17.24,17.24,0,0,1,0,5c-.31,2.08-1.25,11.32-1.25,11.32h1.7s1.32-8.81,1.75-10.75a16.63,16.63,0,0,0,.23-6.17C44.29,93.88,42.81,84,42.81,84Z"/><polygon class="cls-1" points="46.84 84.96 20.66 84.96 1.54 26.47 24.46 26.47 46.84 84.96"/><path class="cls-2" d="M43.59,58.33a15,15,0,0,0,4,2c2,.38,5.87.29,7.22,2s-.13,4.1-1.35,5.51c-1.59,1.82-3.12,3.68-4.8,5.42-2.06,2.13-5.43,6.11-8.69,6-3-.09-7.46-3.06-9.11-5.58-1.54-2.35-2.64-7-1.17-9.63,1.29-2.35,5.49-2.78,7.58-4.55,1.33-1.12,1.88-2,3.88-1.92A5.67,5.67,0,0,1,43.59,58.33Z"/><path class="cls-3" d="M82,108.75a1.94,1.94,0,0,0,.49,1,1.71,1.71,0,0,0,1.3.23l3.1-.28c.32,0,.69-.09.84-.38a1.09,1.09,0,0,0-.07-.88c-.34-.9-.67-1.8-1-2.71a5.24,5.24,0,0,0-1.25-2.16c-.9-.78-3.43-1.12-4.16.14S81.73,107.59,82,108.75Z"/><path class="cls-4" d="M98.48,112.94A1.84,1.84,0,0,0,97,111.15a10.71,10.71,0,0,0-2.47-.06,6.53,6.53,0,0,1-5.68-3.72,1.78,1.78,0,0,0-.57-.81,1.08,1.08,0,0,0-1.2.23c-.33.29-.57.69-.88,1a2.87,2.87,0,0,1-2.09.89c-.65,0-1.37-.53-2-.18s-.7,1.1-.85,1.67c-.24,1-.47,2-.7,3a3.93,3.93,0,0,0-.12.67h4.48a7.13,7.13,0,0,0,.48-1.59,3.94,3.94,0,0,0,.37,1.58H98.09A1.55,1.55,0,0,0,98.48,112.94Z"/><path class="cls-5" d="M88.94,101.76c.93-.37,1.72-1.05,2.64-1.46,1.77-.81,3.83-.56,5.68-1.16a7,7,0,0,0,4.35-4.4,1.58,1.58,0,0,0,0-1.36,1.39,1.39,0,0,0-1.13-.47c-3.22-.17-4,1.2-7.22,1.52-.86.09-4.46-.33-6.25.45-2,.85-1.71,1.73-1.75,2.54s.18,3.48.86,4A2.9,2.9,0,0,0,88.94,101.76Z"/><path class="cls-6" d="M85.28,94.34a2,2,0,0,1,0-1.17,1.84,1.84,0,0,1,1-.87L89.13,91c.29-.13.64-.27.91-.09a1.09,1.09,0,0,1,.33.81l.3,2.91a5.44,5.44,0,0,1-.13,2.54c-.45,1.14-2.52,2.73-3.72,2S85.55,95.51,85.28,94.34Z"/><path class="cls-7" d="M85.62,65.12a15,15,0,0,0-1.9-4.54l-8,11.25c2,.58,3.17,2.6,4.19,6.07,3.68,12.6,5,17.28,5.84,18.49.67.92,4.88.16,5.21-1C92,92.06,87.83,73,85.62,65.12Z"/><path class="cls-2" d="M35.54,82.54c2.17,1.49,13.22,1.29,15.78,1L62.63,82c1.79-.23,6.18-2,7.67-1,2,1.46,8.72,22.15,10.56,24.74.61.86,5.39,1.12,5.86-.49S83.87,87.18,82.54,80.6a39.82,39.82,0,0,0-2-7.44A12.67,12.67,0,0,0,76,67.24c-2.92-1.9-30.52.66-31.81,1.47C42.36,69.85,33.27,81,35.54,82.54Z"/><path class="cls-7" d="M30.9,62.23a8.75,8.75,0,0,0-3.74,3.89,13.14,13.14,0,0,0,1.46,14.07c3.16,3.75,13,5.48,19.3,1.86,4.2-2.4,1.16-5.67.91-10.69-.12-2.52-1.12-5.15-3.16-6.46-2.58-1.65-5.62-.66-8.36-1.56C34.92,62.56,33.72,60.87,30.9,62.23Z"/><path class="cls-7" d="M82.34,59.17c-5.63-4-35.92,1.23-41.92,9.74-2,2.79-1.19,6.53,0,9.52,1.87,4.7,6.36,4.24,10.26,2.88a137,137,0,0,0,18.15-7.83c3.07-1.59,9.17-5,10.76-2.28l4.14-10.62A6.16,6.16,0,0,0,82.34,59.17Z"/><path class="cls-8" d="M.93,26.47a.85.85,0,0,0-.87,1.17S17.91,83.3,18.4,84.46s.94,1.17,1.62,1.17h.56a.85.85,0,0,0,.87-1.17L3.11,27.64a1.83,1.83,0,0,0-1.63-1.17Z"/><path class="cls-8" d="M51,84.49a1.24,1.24,0,0,0,1.16,1.3H71.48a1.23,1.23,0,0,0,1.15-1.3v-.57a1.24,1.24,0,0,0-1.15-1.31H52.15A1.24,1.24,0,0,0,51,83.92Z"/><path class="cls-8" d="M18.63,84.49a1.3,1.3,0,0,0,1.29,1.3H52.31a1.3,1.3,0,0,0,1.29-1.3v-.57a1.3,1.3,0,0,0-1.29-1.31H19.92a1.3,1.3,0,0,0-1.29,1.31Z"/><path class="cls-9" d="M45.43,39.19c.6.67,4.94,14.39,16.45,14.72s-6,5.59-7.93,5.59S40.06,51.09,38,43.86,45.43,39.19,45.43,39.19Z"/><path class="cls-10" d="M31.73,16.21c.65.53,1.05,3.31.89,3.65s-2.93,1.81,1.26,4.54-8,3.06-11.28-.81c-.45-.53,5.2-3.3,5.49-10.11C28.21,10.58,31.73,16.21,31.73,16.21Z"/><path class="cls-9" d="M35.76,4.37c1.84,0,6.52,3.8,6.52,5.6S38.8,20.78,35,20.78s-5.38-6.2-5.38-6.2a2.19,2.19,0,0,1-1.82-2.41c0-2.23,1.9-2.55,2.91-1.77C30.71,9.68,33.42,4.43,35.76,4.37Z"/><path class="cls-11" d="M35.76,0A13.85,13.85,0,0,1,40.4,1.22c1.22.49,5.79-1.14,5.79,3.59,0,1.63,1.71,1.71,1.71,4s-7.34,6.28-7.34,6.28,1.57-3.2,1.52-4-4.69-4.72-5.91-4.85-3.59.62-3.64,2.25-.68,3.64-1.82,1.9-3,3-2.91,4.13a3.08,3.08,0,0,1-.41,1.85s-2-7.06.41-11.79S35.76,0,35.76,0Z"/><path class="cls-12" d="M33.55,24.17c1.61.57,2.32.41,3.4,1.6s8.37,11.73,9.89,14c-2.45.32-5.6-.22-6.14,2.22S35.79,36.15,35,34.9,33.55,24.17,33.55,24.17Z"/><path class="cls-12" d="M29.68,25.56c2.06,0,3.82-.06,3.87-1.39s6.45,12.63,7,14.42S44.12,48.37,44.83,52s1,5.87,4,7.28S34.37,63.38,31.56,66s-4.92,9.29-4.68,11.37c-2.69-3.3-10.84-24-9.45-29.25s2.12-7.17,1.95-9.21-8.63-2.6-9.53,1c-1.38-7.66,4.56-15.07,6.93-16.37s6.65-1,6.65-1S26,25.56,29.68,25.56Z"/><path class="cls-9" d="M19.14,37.6C19.71,43.71,24,52.55,44.83,52c4,0,3.48,3.37,1.68,4.18S13.08,72.68,9.85,39.92C9.2,33.32,19.14,37.6,19.14,37.6Z"/><path class="cls-9" d="M45.52,52c1.29-.57,4,.54,5.18.94,1.58.51,3.59,1.2,4.4,2.8,1.61,3.18-6.13.62-7.21.48s-2,.7-3.16.77C44.21,57,43,53.12,45.52,52Z"/><path class="cls-13" d="M56.44,55.2a1.75,1.75,0,0,0,2,2.31L76.7,56a3.9,3.9,0,0,0,3.23-2.75l6.34-25.39a1.75,1.75,0,0,0-2-2.31L66,27.06a3.9,3.9,0,0,0-3.23,2.75Z"/><path class="cls-14" d="M50.82,59.35a1.56,1.56,0,0,1,1.51-1.6l26.2-2.18a1.56,1.56,0,0,1,1.75,1.32l.08,1a1.56,1.56,0,0,1-1.51,1.6l-26.2,2.18a1.56,1.56,0,0,1-1.75-1.32Z"/><rect class="cls-13" x="40.92" y="58.16" width="13.03" height="3.92" rx="1.46" transform="translate(-4.83 4.14) rotate(-4.76)"/><path class="cls-14" d="M58.69,55a1.75,1.75,0,0,0,2,2.32L79,55.8a3.9,3.9,0,0,0,3.23-2.74l6.33-25.4a1.75,1.75,0,0,0-2-2.31l-18.3,1.52A3.91,3.91,0,0,0,65,29.62Z"/><path class="cls-13" d="M72.23,41.18c-.36,2,.29,3.45,1.46,3.36s2.4-1.76,2.76-3.71-.3-3.45-1.47-3.35S72.58,39.24,72.23,41.18Z"/></g></g></svg>