<svg xmlns="http://www.w3.org/2000/svg" xmlns:xlink="http://www.w3.org/1999/xlink" viewBox="0 0 45.54 52.73"><defs><style>.cls-10{mix-blend-mode:multiply}.cls-6{fill:#3fe08f}.cls-7{fill:#f2edc4}.cls-10{opacity:.6}.cls-11{fill:#d3cba1}.cls-12{fill:#35c97b}.cls-14{fill:#c9c9c9}</style><linearGradient id="linear-gradient" x1="9.32" y1="12.12" x2="32.9" y2="12.12" gradientUnits="userSpaceOnUse"><stop offset="0" stop-color="#205a78"/><stop offset="1" stop-color="#20304d"/></linearGradient><linearGradient id="linear-gradient-2" x1="22.98" y1="40.75" x2="22.98" y2="44.57" xlink:href="#linear-gradient"/><linearGradient id="linear-gradient-3" x1="36.71" y1="39.31" x2="23.01" y2="54.66" xlink:href="#linear-gradient"/><linearGradient id="linear-gradient-4" x1="15.15" y1="42.15" x2="11.93" y2="48.96" xlink:href="#linear-gradient"/><linearGradient id="linear-gradient-5" x1="13.17" y1="38.93" x2="10.25" y2="37.62" gradientUnits="userSpaceOnUse"><stop offset="0" stop-color="#3d3d3d"/><stop offset="1" stop-color="#b3b3b3"/></linearGradient><linearGradient id="linear-gradient-6" x1="23.49" y1="44.58" x2="24.68" y2="32" gradientUnits="userSpaceOnUse"><stop offset="0" stop-color="#a3968c"/><stop offset="1" stop-color="#fff"/></linearGradient></defs><g style="isolation:isolate"><g id="Слой_2" data-name="Слой 2"><g id="Layer_1" data-name="Layer 1"><path d="M30.31 15.3c-3.77-.12-4.17-3.43-3.83-6.12C27.86 3.13 24.2 0 21.15 0H21c-3 .05-6.63 3.17-5.27 9.18.35 2.69-.05 6-3.83 6.12s-2.85 5.6-.8 7.7 9.49.86 9.49.86h1s7.43 1.26 9.48-.86 3.02-7.59-.76-7.7z" fill="url(#linear-gradient)"/><path d="M45.54 50.39c0 1.29-10.06 2.34-22.46 2.34S.62 51.68.62 50.39 10.67 48 23.08 48s22.46 1.09 22.46 2.39z" style="mix-blend-mode:multiply" fill="#575560" opacity=".11"/><path d="M23.1 46.76s6.51-4.16 7.36-5.76-15 .45-15 .45z" fill="url(#linear-gradient-2)"/><path d="M38.68 46.91a14 14 0 0 0 6.32-6.6c1.8-4.46-4.59-7.17-10.6-3.31s-7.56 9-14.08 9.49c0 0 7.17 3.43 7.56 3.43s3.94-.78 3.94-.78l5.25-2z" fill="url(#linear-gradient-3)"/><path class="cls-6" d="M25.76 15.28s4.72-.27 5.54 2.65 1.34 12.32 1.34 12.32L11 35.85s-.1-18.77.64-19.51 3.44-.59 5-.62c1.17 0 5.62.39 5.62.39z"/><path class="cls-7" d="M25.32 8.29s-1.05 6.38-3.88 6.59c-2.33.17-4.35-3.88-4.44-6.21s3.57-1.8 5.6-3.78c.91 1.2.99 2.28 2.72 3.4z"/><path class="cls-7" d="M23.55 14.79a1.62 1.62 0 0 1-.27-1.09 2.64 2.64 0 0 1-1.84 1.18 2.75 2.75 0 0 1-2-.88c0 1.24-1.62 1.41-2.84 1.73s1.84 3.32 5 3.32a5.42 5.42 0 0 0 4.81-3.55c-.02-.42-2.52-.37-2.86-.71z"/><path d="M23.3 14.2a2.4 2.4 0 0 1 0-.5 2.64 2.64 0 0 1-1.84 1.18 2.75 2.75 0 0 1-2-.88 1.23 1.23 0 0 1-.08.44 2.78 2.78 0 0 0 2.11 1 2.65 2.65 0 0 0 1.81-1.24z" fill="#ddd5a8"/><path d="M22.39 51.29A32.36 32.36 0 0 1 5.14 45c-7.95-6.18-5.23-11.8-1.49-11.48S9 36 14.12 39.59s7 6.85 14.66 8.27c0 2.13.45 2.52.45 2.52a24.38 24.38 0 0 1-6.84.91z" fill="url(#linear-gradient-4)"/><path class="cls-7" d="M38.66 47.43s.65-.13.46-1-2.07-.74-3.52-.51a10.68 10.68 0 0 0-3.2 1 18.1 18.1 0 0 1-3.62.87c0 2.13.45 2.52.45 2.52a7.72 7.72 0 0 1 1.57-.19 38.38 38.38 0 0 0 5.07.13 4.25 4.25 0 0 1 1.94 0s.29.16.37.08a.47.47 0 0 0 .08-.27.82.82 0 0 0 .34-.06c.13-.13 0-.47 0-.47s.33 0 .33-.31a1.37 1.37 0 0 0-.28-.66s.42-.18.42-.5-.41-.63-.41-.63z"/><g class="cls-10"><path class="cls-11" d="M38.67 47.38a9 9 0 0 0-2.1.12h.05a9 9 0 0 1 2.07-.11v-.09z"/></g><g class="cls-10"><path class="cls-11" d="M38.64 48.5a6.47 6.47 0 0 0-1.8 0h.06a6.93 6.93 0 0 1 1.75 0h.06z"/></g><g class="cls-10"><path class="cls-11" d="M38.59 49.46s-.81-.11-1.2-.11c.38 0 1.18.11 1.19.11h.05a.07.07 0 0 0 0-.06z"/></g><g class="cls-10"><path class="cls-11" d="M38.28 50.12a1.75 1.75 0 0 0-.8-.19v.05a1.6 1.6 0 0 1 .76.18h.06v-.06z"/></g><path class="cls-12" d="M30.21 30.88l-.98-10.6v10.85l.98-.25zM19 32.07c-6.14 1.16-7.68-2.7-7-5.77a22.58 22.58 0 0 0-.19-7.45l-.45-.09C11 24 11 35.85 11 35.85L18.22 34c2.29-1.33 3.87-2.52.78-1.93z"/><path class="cls-6" d="M11.66 16.34s-1.68.9-3.14 4.95S3.72 31.43 5 32.75s4.77 2.71 6.84 2.25a8.6 8.6 0 0 0-.05-3s-2.63.13-2.37-1 1.76-2.15 2.2-8.52c.3-5.36.04-6.14.04-6.14z"/><path d="M11.9 34.81a1.16 1.16 0 0 1-.06.22A5.73 5.73 0 0 1 9.67 35c.24 1 .78 3.43 1 5 .32 2 .79 1.74.79 1.74a.48.48 0 0 1-.17-.4z" fill="url(#linear-gradient-5)"/><path class="cls-14" d="M11.89 34.87v-.06.06zm-1 4.89c-.23-1.45-.72-3.64-1-4.76h-.22c.24 1 .78 3.43 1 5 .32 2 .79 1.74.79 1.74a.44.44 0 0 1-.16-.38 4.08 4.08 0 0 1-.43-1.6z"/><path d="M11.79 41.78a.45.45 0 0 1-.47-.5l1-11.18a.59.59 0 0 1 .56-.53l24.16-.43a.38.38 0 0 1 .39.49L34.72 40.9a.7.7 0 0 1-.64.51z" fill="url(#linear-gradient-6)"/><path class="cls-14" d="M11.32 41.28l1-11.18a.59.59 0 0 1 .56-.53l24.16-.43a.58.58 0 0 1 .19 0 .4.4 0 0 0-.36-.2l-24.16.43a.6.6 0 0 0-.56.53l-1 11.18a.45.45 0 0 0 .24.44.42.42 0 0 1-.07-.24z"/><path class="cls-7" d="M24.64 10.93a1.16 1.16 0 0 0 1.1-1.1 1.09 1.09 0 0 0-.66-1.37zM17.58 10.93s-.89 0-1.1-1.1a1.1 1.1 0 0 1 .67-1.37z"/><path class="cls-12" d="M24.82 21.57h-6v1.32h2.89v.28h-2.9v1.3h2.88v.29h-2.86v1.4h4.27a.74.74 0 0 0 .33-.17 1.21 1.21 0 0 0 .2-.3 1.6 1.6 0 0 0 .1-.23 2.58 2.58 0 0 0 .08-.26l.15-.52v-.27l.06-.19c.06-.19.12-.38.17-.58s.09-.34.14-.52.09-.35.14-.52.09-.35.15-.52.07-.25.12-.39a.43.43 0 0 0 0-.05v-.06zm-1.27 3.24s0-.06-.05-.08l-.05-.09a1.17 1.17 0 0 0-.35-.35s-.09 0-.09-.07a.28.28 0 0 1 0-.09c.07-.09 1-1.36 1.14-1.46 0 .08-.56 1.88-.6 2s.03.14 0 .14zm-4.42 1v-.66H22v-1h-2.9v-.62H22v-1h-2.87v-.62h5.37c-.64.74-2 2.38-2.05 2.43l.3.16a1.57 1.57 0 0 1 .26.19 1.37 1.37 0 0 1 .2.26.77.77 0 0 1 .12.33v.06a.42.42 0 0 1-.11.3h-.05c-.17.16-4.04.13-4.04.13z"/></g></g></g></svg>