<svg xmlns="http://www.w3.org/2000/svg" viewBox="0 0 488 488" width="512" height="512"><path d="M366.25 255.6c-6.7-7.3-18.1-7.8-25.4-1.1-7.3 6.7-7.8 18.1-1.1 25.4 22.1 24.1 34.3 55.4 34.3 88.1v77.3c0 3.6-3 6.6-6.6 6.6h-247.1c-3.6 0-6.6-3-6.6-6.6V368c0-71.8 58.4-130.1 130.1-130.1 65.6 0 119-53.4 119-119S309.55 0 243.95 0s-119 53.4-119 119c0 19.6 4.9 39.1 14.1 56.3 4.7 8.8 15.6 12 24.4 7.3 8.8-4.7 12-15.6 7.3-24.4-6.4-12-9.8-25.5-9.8-39.2 0-45.8 37.2-83 83-83s83 37.2 83 83-37.2 83-83 83c-91.6 0-166.1 74.5-166.1 166.1v77.3c0 23.5 19.1 42.6 42.6 42.6h247.1c23.5 0 42.6-19.1 42.6-42.6v-77.3c0-41.8-15.6-81.7-43.9-112.5z" fill="#FFF"/></svg>