<svg xmlns="http://www.w3.org/2000/svg" viewBox="0 0 491.3 491.3" width="512" height="512"><path d="M315.05 20.6C283.05 7.3 240.85 0 196.35 0c-44.6 0-86.7 7.3-118.7 20.6-37.1 15.4-57.5 37.8-57.5 63.1v264c0 25.3 20.4 47.7 57.4 63.1 32 13.3 74.2 20.6 118.7 20.6 9.9 0 18-8.1 18-18s-8.1-18-18-18c-39.9 0-77.2-6.3-104.9-17.9-21.4-8.9-35.2-20.6-35.2-29.9v-35.7c5.8 3.5 12.2 6.9 19.3 9.9 30.7 13.2 71.4 20.8 114.7 21.5h6.2c9.9 0 18-8.1 18-18s-8.1-18-18-18h-5.6c-38.7-.6-74.5-7.2-101-18.6-20.4-8.8-33.5-20.2-33.5-29.1V224c6.4 3.9 13.5 7.5 21.4 10.8 32 13.3 74.2 20.6 118.7 20.6 44.6 0 86.7-7.3 118.7-20.6 37-15.4 57.4-37.8 57.4-63.1v-88c0-25.3-20.4-47.7-57.4-63.1zm-188.5 140.6c22 4.2 45.4 6.4 69.7 6.4 44.6 0 86.7-7.3 118.7-20.6 7.9-3.3 15-6.9 21.4-10.8v35.5c0 9.2-13.8 21-35.2 29.9-27.7 11.5-65 17.9-104.9 17.9-39.9 0-77.2-6.3-104.9-17.9-21.4-8.9-35.2-20.6-35.2-29.9v-88c0-9.2 13.8-21 35.2-29.9 27.7-11.5 65-17.9 104.9-17.9s77.2 6.3 104.9 17.9c21.4 8.9 35.2 20.6 35.2 29.9s-13.8 21-35.2 29.9c-27.7 11.5-65 17.9-104.9 17.9-22 0-43.2-1.9-62.9-5.7-9.8-1.9-19.2 4.5-21.1 14.3-1.9 9.8 4.5 19.2 14.3 21.1z" fill="#FFF"/><path d="M431.35 287.3c-7.5-6.6-18.8-5.8-25.4 1.6-6.6 7.5-5.8 18.8 1.6 25.4 17.4 15.3 27.4 37.3 27.4 60.5 0 44.4-36.1 80.5-80.5 80.5s-80.5-36.1-80.5-80.5c0-38.2 26.8-70.3 62.5-78.5V372.1l-6-5.5c-7.3-6.7-18.7-6.2-25.4 1.2-6.7 7.3-6.2 18.7 1.2 25.4l36.2 33c3.4 3.1 7.8 4.7 12.1 4.7s8.7-1.6 12.1-4.7l36.2-33c7.3-6.7 7.9-18.1 1.2-25.4s-18.1-7.9-25.4-1.2l-6 5.5V276.3c0-9.9-8.1-18-18-18-64.3 0-116.5 52.3-116.5 116.5 0 64.3 52.3 116.5 116.5 116.5s116.5-52.3 116.5-116.5c-.2-33.4-14.6-65.3-39.8-87.5z" fill="#FFF"/></svg>