<svg xmlns="http://www.w3.org/2000/svg" width="16" height="19" viewBox="0 0 16 19">
  <defs>
    <style>
      .cls-1 {
        fill: #1f5af4;
        fill-rule: evenodd;
      }
    </style>
  </defs>
  <path class="cls-1" d="M351.762,207.519a1.9,1.9,0,1,0-1.484-1.855A1.683,1.683,0,0,0,351.762,207.519Zm1.855,9.348a1.9,1.9,0,1,0-1.484-1.855A1.683,1.683,0,0,0,353.617,216.867Zm3.635-2.968a0.742,0.742,0,0,0,.742-0.741v-9.349a2.971,2.971,0,0,0-2.968-2.967H344.974a2.971,2.971,0,0,0-2.968,2.967v13.058a2.971,2.971,0,0,0,2.968,2.968h10.052a2.971,2.971,0,0,0,2.968-2.968,0.742,0.742,0,0,0-1.484,0,1.485,1.485,0,0,1-1.484,1.484H344.974a1.485,1.485,0,0,1-1.484-1.484v-1.113h5.8a1.5,1.5,0,0,0,1.364,1.113,1.9,1.9,0,0,0,0-3.709,1.5,1.5,0,0,0-1.364,1.112h-5.8v-3.19h1.974a1.5,1.5,0,0,0,1.364,1.113,1.9,1.9,0,0,0,0-3.71,1.5,1.5,0,0,0-1.364,1.113H343.49v-3.19h3.94a1.5,1.5,0,0,0,1.364,1.113,1.9,1.9,0,0,0,0-3.71,1.5,1.5,0,0,0-1.364,1.113h-3.94v-1.113a1.485,1.485,0,0,1,1.484-1.483h10.052a1.485,1.485,0,0,1,1.484,1.483v1.113H355.4a0.742,0.742,0,0,0,0,1.484h1.113v3.19h-5.972a0.742,0.742,0,0,0,0,1.484h5.972v2.078A0.742,0.742,0,0,0,357.252,213.9Z" transform="translate(-342 -200.844)"/>
</svg>
