<svg xmlns="http://www.w3.org/2000/svg" width="19" height="19.219" viewBox="0 0 19 19.219">
  <defs>
    <style>
      .cls-1 {
        fill: #1f5af4;
        fill-rule: evenodd;
      }
    </style>
  </defs>
  <path class="cls-1" d="M358.722,361.7c-1.1-1.118-2.751-.914-3.895-0.663a40.855,40.855,0,0,0-5.434,1.864l-0.663.259-0.026.01a29.427,29.427,0,0,0-3.055,1.536,7.6,7.6,0,0,0-3.925,6.614,8.962,8.962,0,0,0,.475,2.873,10.861,10.861,0,0,0-1.7,5.133,0.742,0.742,0,1,0,1.483,0,8.854,8.854,0,0,1,1.216-3.874,6.345,6.345,0,0,0,1.422.568,6.8,6.8,0,0,0,1.76.227,8.024,8.024,0,0,0,3.28-.732,12.064,12.064,0,0,0,1.582-.852,0.758,0.758,0,0,0,.231-1.037,0.736,0.736,0,0,0-1.023-.234,10.419,10.419,0,0,1-1.387.747,6.032,6.032,0,0,1-4,.446,4.939,4.939,0,0,1-1.1-.424,22.649,22.649,0,0,1,1.8-2.388,35.392,35.392,0,0,1,12.087-8.795c0.218,0.347.277,0.894-.266,1.968a14.009,14.009,0,0,1-1.145,1.809l-0.044.018a9.67,9.67,0,0,1-3.11.53,0.752,0.752,0,0,0,.012,1.5h0.013a14.942,14.942,0,0,0,1.664-.134l-0.359.455c-0.317.4-.643,0.816-0.973,1.24a13.376,13.376,0,0,1-3.4.318h-0.02a0.752,0.752,0,0,0-.019,1.5c0.163,0,.323.006,0.482,0.006a14.491,14.491,0,0,0,3.559-.424l0.021-.007,0.043-.013,0.029-.011,0.038-.016c0.01,0,.02-0.01.03-0.015l0.034-.018,0.03-.019,0.031-.021,0.029-.023a0.3,0.3,0,0,0,.027-0.023l0.029-.027,0.024-.024,0.028-.032,0.015-.018c0.38-.492.759-0.972,1.125-1.436a29.767,29.767,0,0,0,3.13-4.435,4.719,4.719,0,0,0,.587-2.027A2.564,2.564,0,0,0,358.722,361.7Zm-14.082,9.088c-0.483.565-.931,1.135-1.339,1.7a7.014,7.014,0,0,1-.094-1.166,5.991,5.991,0,0,1,2.77-5.041,0.186,0.186,0,0,1-.01.025,0.755,0.755,0,0,0,.414.977,0.72,0.72,0,0,0,.275.054,0.743,0.743,0,0,0,.689-0.473,11.986,11.986,0,0,1,.9-1.841c0.527-.25.95-0.436,1.028-0.47l0.65-.253a33.526,33.526,0,0,1,5.648-1.881A35.9,35.9,0,0,0,344.64,370.783Z" transform="translate(-340.5 -360.844)"/>
</svg>
