<svg xmlns="http://www.w3.org/2000/svg" width="18.781" height="19" viewBox="0 0 18.781 19">
  <defs>
    <style>
      .cls-1 {
        fill: #1f5af4;
        fill-rule: evenodd;
      }
    </style>
  </defs>
  <path class="cls-1" d="M345.275,613.161a0.743,0.743,0,1,1-.734.742A0.738,0.738,0,0,1,345.275,613.161Zm2.862-1.522a0.743,0.743,0,1,1-.734.742A0.738,0.738,0,0,1,348.137,611.639Zm-2.238-1.522a0.743,0.743,0,1,1-.734.742A0.737,0.737,0,0,1,345.9,610.117Zm13.044,5.785a0.729,0.729,0,0,0-.72-0.351,0.674,0.674,0,0,0-.143-0.014h-5.217a6.484,6.484,0,0,0,.227-1.708,6.342,6.342,0,0,0-.855-3.178,0.747,0.747,0,0,0,.011-0.126v-5.643h1.5v5.643a0.741,0.741,0,0,0,.125.414l1.95,2.933a0.728,0.728,0,0,0,1.018.2,0.749,0.749,0,0,0,.2-1.031l-1.825-2.745v-5.417a0.743,0.743,0,0,0-.036-1.484h-4.367a0.743,0.743,0,0,0-.036,1.484v4.04a6.4,6.4,0,0,0-1.835-1.071v-5.158h0.037a0.743,0.743,0,0,0,0-1.485h-4.55a0.743,0.743,0,0,0,0,1.485h0.11v5.159a6.42,6.42,0,0,0-2.217,10.491,6.235,6.235,0,0,0,4.359,1.871h9.422a2.12,2.12,0,0,0,1.516-.635l1-1.018A2.183,2.183,0,0,0,358.943,615.9Zm-12.164,2.827h-0.035a4.869,4.869,0,0,1-4.473-3.118h0.876a0.743,0.743,0,0,0,0-1.485h-1.2c0-.085-0.008-0.17-0.009-0.256a4.89,4.89,0,0,1,3.534-4.765,0.742,0.742,0,0,0,.539-0.715v-5.7h1.467v5.7a0.741,0.741,0,0,0,.539.715,4.932,4.932,0,0,1,3.607,4.724q0,0.149-.009.3H347.44a0.743,0.743,0,0,0,0,1.485h3.854a4.893,4.893,0,0,1-1.1,1.7A4.782,4.782,0,0,1,346.779,618.729Zm10.81-1.218-1.006,1.018a0.668,0.668,0,0,1-.478.2h-5.28q0.207-.176.4-0.369a6.434,6.434,0,0,0,1.022-1.338h5.539A0.69,0.69,0,0,1,357.589,617.511Z" transform="translate(-340.469 -601.219)"/>
</svg>
