<svg xmlns="http://www.w3.org/2000/svg" width="23.53" height="23.844" viewBox="0 0 23.53 23.844">
  <defs>
    <style>
      .cls-1 {
        fill: #1f5af4;
        fill-rule: evenodd;
      }
    </style>
  </defs>
  <path id="Shape_6_copy_2" data-name="Shape 6 copy 2" class="cls-1" d="M1260.05,981.67H1249.5a6.539,6.539,0,0,0-6.49,6.574v10.67a6.546,6.546,0,0,0,6.49,6.576h10.55a6.546,6.546,0,0,0,6.49-6.576v-10.67A6.539,6.539,0,0,0,1260.05,981.67Zm4.4,17.243h0a4.425,4.425,0,0,1-4.4,4.456H1249.5a4.425,4.425,0,0,1-4.4-4.456v-10.67a4.433,4.433,0,0,1,4.4-4.463h10.55a4.431,4.431,0,0,1,4.4,4.459v10.673Zm-3.36-13.262v0a1.555,1.555,0,0,0-1.53,1.551,1.6,1.6,0,0,0,.45,1.095,1.526,1.526,0,0,0,2.17,0,1.586,1.586,0,0,0,0-2.193A1.543,1.543,0,0,0,1261.09,985.651Zm-6.32,1.792a6.137,6.137,0,1,0,6.07,6.136A6.112,6.112,0,0,0,1254.77,987.443Zm0,10.159a4.024,4.024,0,1,1,3.98-4.023A4,4,0,0,1,1254.77,997.6Z" transform="translate(-1243 -981.656)"/>
</svg>
