<svg xmlns="http://www.w3.org/2000/svg" width="28.5" height="21.781" viewBox="0 0 28.5 21.781">
  <defs>
    <style>
      .cls-1 {
        fill: #1f5af4;
        fill-rule: evenodd;
      }
    </style>
  </defs>
  <path class="cls-1" d="M819.257,983.086a1.029,1.029,0,0,0-1.153-.315l-26.144,9.45a1.467,1.467,0,0,0-.329,2.59l3.737,2.552a1.177,1.177,0,0,0,1.216.069l8.106-4.276-6.318,4.719a1.185,1.185,0,0,0-.474.945v4.37a1.222,1.222,0,0,0,.645,1.08,1.236,1.236,0,0,0,1.259-.06l2.839-1.88,2.792,1.9a1.456,1.456,0,0,0,.83.26,1.489,1.489,0,0,0,.3-0.03,1.456,1.456,0,0,0,.952-0.67l11.828-19.507A1.033,1.033,0,0,0,819.257,983.086ZM806.2,1002.73l-2.891-1.97a1.15,1.15,0,0,0-.664-0.2,1.181,1.181,0,0,0-.652.19l-2.424,1.61v-3.293l11.156-8.333a1.18,1.18,0,0,0-1.256-1.989l-13.4,7.071-3.161-2.159,24.075-8.7Z" transform="translate(-791 -982.719)"/>
</svg>
