<svg xmlns="http://www.w3.org/2000/svg" viewBox="0 0 512.2 264.79"><defs><style>.cls-1{fill:#f8b791}.cls-2{fill:#016099}.cls-3{fill:none}.cls-5{fill:#002869}.cls-6{fill:#f27979}.cls-7{fill:#fff}.cls-8{fill:#ef5ea3}</style></defs><g id="Слой_2" data-name="Слой 2"><g id="back_to_school" data-name="back to school"><g id="people_isolated" data-name="people isolated"><path class="cls-1" d="M306.32 34.23c.63-5 2.86-8.48 2.57-14.27-.31-6.4.17-7.61 2-7 3.91 1.37 1.5 11.1 5 12.11 1.65-.3 4.39-4.63 6-7.86 1.9-3.86 4.31-16.36 6.67-15.34 2 .85.48 10-.54 13 1.08-3 4.29-16.8 7.16-14.6 2.1 1.61-2.93 16.9-3.65 18.91.39-1 4.7-15.8 6.71-14 2.32 2.06-2.59 15.07-3.31 17.08.5-1.2 3.82-14.06 6.23-11.72 1.49 1.44-1.81 13.87-2.53 15.88C335.42 35.26 317.76 54 315.42 56l-11.95-4.26s2.65-5.61 3-8.62c.47-3.78-.38-7-.15-8.89z"/><path class="cls-2" d="M303.47 41.74c-13.3 19.36-24.92 7.17-45.05 18.16C247.28 66 244.21 83.29 219 85c-25.65 1.7-47.4 21.43-50.33 22.38l41.51 81.42c-4.52-28 46.79-60.25 63.61-68.91 47.67-24.55 40-51.8 48.68-66.53 3.97-6.75-16.35-15.48-19-11.62z"/><path class="cls-1" d="M479.14 41.84c.59-4.73 2.69-8 2.42-13.41-.29-6 .16-7.15 1.86-6.55 3.67 1.28 1.4 10.42 4.71 11.37 1.55-.28 4.13-4.35 5.61-7.38 1.78-3.63 4.05-15.37 6.27-14.41 1.86.8.44 9.42-.51 12.16 1-2.85 4-15.78 6.72-13.72 2 1.52-2.75 15.88-3.43 17.77.37-.9 4.42-14.84 6.31-13.17 2.18 1.94-2.44 14.15-3.12 16.05.48-1.14 3.59-13.21 5.86-11 1.4 1.36-1.7 13-2.38 14.92-3 8.35-19.57 25.94-21.77 27.81l-11.23-4s2.5-5.28 2.84-8.1c.42-3.55-.38-6.57-.16-8.34zM35.19 49.06c-.62-5-2.85-8.47-2.57-14.27.31-6.4-.17-7.61-2-7-3.91 1.36-1.49 11.09-5 12.1-1.65-.3-4.39-4.63-6-7.85C17.75 28.2 15.34 15.7 13 16.72c-2 .86-.48 10 .54 13-1.08-3-4.29-16.8-7.16-14.6C4.26 16.68 9.29 32 10 34c-.38-1-4.69-15.81-6.69-14C1 22 5.89 35 6.62 37.05 6.11 35.84 2.8 23 .38 25.32-1.11 26.76 2.2 39.19 2.92 41.2c3.17 8.89 20.83 27.62 23.17 29.61l12-4.26s-2.66-5.61-3-8.62c-.52-3.76.33-6.93.1-8.87z"/><path class="cls-3" d="M218.71 213.11s-.67-10.64-.44-24.65c.36.43.73.86 1.1 1.32 2.5 3.07 1.71 11.62-.66 23.33zM276.86 123.33c-2.72.6-5.33 1.31-7.83 2.1-.87-.19-2.78-.8-5.48-1.52a98.73 98.73 0 0 1 13.31-.58z"/><path d="M308.84 154.84c-8.85-22.71-17-30.46-29.9-31.41-.61-.05-1.33-.08-2.08-.1a98.73 98.73 0 0 0-13.31.58 74 74 0 0 0-17.7 3.89c-3.21 1.21-7.66-1.22-11.18-4.48.18-.12.36-.25.55-.36a110.58 110.58 0 0 0-5.5-10.28c11.28-12.87 27.61-26.22 50.77-27.13 16.17-.63 34.95 6.86 50.9 6.26 17-.63 27.84 8.15 30.67 8.74 24.84-10.69 39.14-4.47 52.38-8.55 11.75-3.65 15.27-8.7 24.84-19.45 7.13-8 33.23-15.75 35.81-24.1 1.45-4.67 24.61 4.49 21.38 11.49-7.09 15.35-13.33 50.79-29.6 65.42-8.95 8-26.32 39.22-45.15 56.69-24 22.27-11.13 69.88-100.57 82.23-13.27-28.91-4.52-89.49-12.31-109.44z" fill="#2cc0d6"/><path class="cls-2" d="M40 58.38c4.69 6.77 25.06 8.74 37.27 15.49C91 81.45 92.79 88.31 104.55 93.42c13.54 5.88 24.34-2.87 60.51 10.31 2.89 1 18.42-3.63 36.52-3 10.69.4 22.3 2.18 28.14 11.91a110.58 110.58 0 0 1 5.5 10.28c-.19.11-.37.24-.55.36-13 8.49-16 41.6-16.27 65.14 0 0-1.68 41.76-28.56 38.27-28.88-3.76-80-2.67-91.51-45.2-3.59-13.21-4.08-24.42-9.68-29.95-9.43-9.33-37.66-22.52-48.82-35.71C26.06 99.6 22.44 78.08 18.27 69.05 14.83 61.6 37.05 54.1 40 58.38z"/><path class="cls-5" d="M392 73.44s13.53-11 7.68-30.51c-2.83-9.44-14.46-9.7-14.46-9.7.12-15.1-16.91-12.59-21.93-12.91-4.09-.25-6.54-7.64-15.91-5.2-10.53 2.74-7.2 13.28-18.36 16.13 0 0 4.89 6.72 6.59 9.52 4.63 7.61 5.17 10.6 10.77 3.13 1.55-2.06 21.75 34.15 24.05 43.89.93 4 3.29 11.95 6.58 10.69.27.33 8.2 5 11.88-1.62 1.29-2.3.87-5.87-1.39-9.42 1.81.64 5.72.5 7.16-1.81 3-4.85-4.26-8.57-2.66-12.19z"/><path class="cls-6" d="M380.57 72.82V105c-3.4 11.69-28.73 12.08-28.73 2.2l.57-15.8z"/><path class="cls-1" d="M377.31 83.76c-3.36 11.64-16.92 21-27.8 19.88C337 102.41 331.44 85.74 331 84a17.93 17.93 0 0 1 .09-9.47 20.93 20.93 0 0 0 .59-3.14v-.4a25.07 25.07 0 0 0 0-4.9c-.16-1.71-.29-3.52-.35-4.93-.32-6.44.11-14.22 3.61-16.29 5.3-3.68 44.3-21.61 48.37 12.92.26 2.18-2.49 5-3.78 10.18 10.76-3.8 7.88 17.5-2.22 15.79z"/><path class="cls-6" d="M360.19 79.6a6.61 6.61 0 1 0 6.81-6.46 6.62 6.62 0 0 0-6.81 6.46zM331 84a17.43 17.43 0 0 1 .09-9.47 20.93 20.93 0 0 0 .59-3.14v-.4A6.61 6.61 0 0 1 331 84z"/><path class="cls-5" d="M355.37 69.32s3.21 4.83 12.15-1.21c1.12-.75-4.19 1.41-7.33 1.8s-5.67-1.62-4.82-.59zM333.07 66.92c.62 1.54 8.1 5.32 10.59 1.27.71-1.15-2.49 1.53-5.64.65s-5.29-2.76-4.95-1.92z"/><path class="cls-6" d="M350.27 81.52c-2.14.13-5.44-.34-6-2.86a4.42 4.42 0 0 1 .79-3c1.27-2.45 2.41-4.7 2.29-7.56 0-.37.56-.47.58-.09a14 14 0 0 1-2 7.35c-.73 1.4-1.61 2.65-.44 4.15s3.16 1.55 4.77 1.46c.38 0 .47.56.09.58z"/><path class="cls-7" d="M358.36 85.38c.58-1.35-8.36 2.6-17.19-.44-3.5-1.21 6.89 15.65 17.19.44z"/><path class="cls-5" d="M344.8 50c-5.54-7.5-8.82 8.26-18 .58-6.12-5.12-9.17-20.59 7.33-19.69 0 0 50.45-7.36 54.52 24.86 1 8.23-8.91 8.11-11 18.87-1.34-.2-3.81 1.61-4.2-5.1-.45-7.61 1.28-21.29-6.88-20.41-7.13.78-16.57 7.89-21.77.89z"/><path class="cls-1" d="M397.64 160.67c2.92-2.91 7.38-4.63 8.93-6.37 3.47-3.88 5.21-5.82 6.24-5.57 4.2 1-5.71 10.23-4 12.65 1.21.63 5.13-.76 7.77-2 3.15-1.53 11-8.31 12-6.48.84 1.54-4.73 6.66-6.84 8 2.21-1.4 11.17-8.6 11.9-5.76.54 2.09-10.35 9.35-11.82 10.27.73-.41 10.93-7.75 11.32-5.6.46 2.49-9.21 8.34-10.68 9.27.93-.52 9.5-7.08 9.87-4.38.23 1.68-8.12 8-9.59 8.9-6.49 4.09-25.89 8.33-28.39 8.42l-6.81-9.82s3.18-4.13 4.93-5.87c2.16-2.19 4.07-4.57 5.17-5.66z"/><path class="cls-5" d="M135.08 79.91s-8.27-16.46-6.22-27.37a16.29 16.29 0 0 1 9.4-12.25c1.5-13.39 14.38-11.78 19.24-12.51 3.95-.6 8.74-6.71 13.57-6.69 8.55 0 21 11.56 19.09 19.84 0 0-1.68-.39-3.09 2.47-3.84 7.78-4.12 10.74-10.19 4-1.68-1.87-18.23 35-19.63 44.66-.57 3.94-2.19 11.88-5.49 10.94-.23.3-14.86-19.7-16.68-23.09z"/><path class="cls-6" d="M147.45 75.89l1.66 31c3.43 11.36 26.83 11.85 26.72 2.22l-.73-15.39z"/><path class="cls-1" d="M150.19 88.69c4.24 11 15.75 20.9 29.79 17.49 10.78-2.62 14.92-19.46 15.24-21.21a17.38 17.38 0 0 0-.89-9.18 22.67 22.67 0 0 1-.84-3c0-.13-.05-.26-.06-.39a23.75 23.75 0 0 1-.43-4.76c0-1.68 0-3.44-.07-4.82-.24-6.28-1.32-13.8-4.89-15.51-5.46-3.12-44.86-17.23-45.88 16.65-.07 2.14 2.84 4.67 4.54 9.57-10.78-2.77-6.18 17.67 3.49 15.16z"/><path class="cls-6" d="M166.45 83.2a6.44 6.44 0 1 1-7.11-5.7 6.45 6.45 0 0 1 7.11 5.7zM195.22 85a16.9 16.9 0 0 0-.89-9.18 22.67 22.67 0 0 1-.84-3c0-.13-.05-.26-.06-.39A6.44 6.44 0 0 0 195.22 85z"/><path class="cls-5" d="M170.26 72.81s-2.71 5-11.9-.14c-1.15-.64 4.19 1 7.27 1.12s5.37-2.06 4.63-.98zM191.72 68.59c-.48 1.55-7.42 5.85-10.18 2.13-.78-1.06 2.55 1.27 5.54.15s4.92-3.13 4.64-2.28z"/><path class="cls-6" d="M176.25 84.22c2.09-.06 5.26-.79 5.62-3.29a4.27 4.27 0 0 0-1-2.87c-1.44-2.27-2.74-4.36-2.86-7.15 0-.36-.59-.4-.57 0a13.64 13.64 0 0 0 2.6 7c.83 1.3 1.79 2.43.78 4-.91 1.41-2.94 1.77-4.51 1.82-.37 0-.41.58 0 .57z"/><path class="cls-7" d="M168.73 88.66c-.69-1.26 8.33 1.81 16.65-1.89 3.3-1.47-5.03 19.78-16.65 1.89z"/><path class="cls-5" d="M178.92 53.08c7 .07 12.66 8.49 19.31 1.67 10.62-10.91-6.4-30.7-17.54-23.65-16.7 10.55-51.45-6.38-52.15 25.61-.23 10.35 17.62 12.88 20.57 23.15 1.29-.3 3.84 1.24 3.65-5.31-.21-7.43-2.64-15 5.27-13.76 14.05 2.13 12.42-7.79 20.89-7.71z"/><path class="cls-8" d="M306.56 169c-7.59-8.18 6.25-31.53 1.58-36-3.18-8.44-8.58-14.11-17.1-14.68-22.38-1.52-22.3 1.82-24.57 2.3-8.85-2.82-16.12-3.25-22.1-1.94-47.06 5.51-51.17 62.59-54.53 108 23.54 5 36.74 19.57 59 27.66 22.5 8.17 57.59 11.88 72.27 9.85 1.1-.09-.69-80.19-14.55-95.19z"/><path class="cls-8" d="M396.7 185.82c-12.56 15-60.44 58.27-86.55 19.61-30.93-45.79-26.92-85.57-26.92-85.57 43.93.62 46.26 38.48 52.63 46.71 9.93 12.83 35.95 3.9 52.56-1.14 4.08-1.25 10.68 17.57 8.28 20.39z"/><path class="cls-5" d="M318.2 219s.82-28-9-45.05c-.27-.46.46-.9.71-.43 7.3 13.4 9.09 30.09 9.09 45.48 0 1.1-.82 1.1-.82 0zM235.34 235.1c-3-7.6-1.46-15 .37-22.7 3.13-13.19 4.44-26 2.89-39.51-.06-.53.76-.52.82 0a106 106 0 0 1-2.17 36.55c-2 8.54-4.47 16.9-1.12 25.44.19.49-.6.7-.79.22zM286.32 129.27c-1 28 35.51 24.34 29.89-1.78-1.73-8.07 8.7-14.87 9.46-20.67 1.72-13.21-11.56-17-14.87-28.83-5-17.87-13.22-47.52-60.91-17.56-14.49 9.1 36.43 68.84 36.43 68.84z"/><path class="cls-6" d="M253.15 98.9l7.12 31.37c2.05 9.52 27.69 9.87 26.05-1l-2.5-14.09z"/><path class="cls-1" d="M298.49 95.06a43.49 43.49 0 0 1 .51 5.87 24.59 24.59 0 0 1-1.44 7.77c-2.4 6.66-7.57 16.19-14.43 16.59-12.14.71-28.36-12.44-27.05-30.21 1.15-15.51 13.38-39.67 18.43-30.71 7.84 13.9 15.87 8.15 21.42 16.72 1.17 1.79 2.26 4.06 2.37 9.37.04 1.71.04 3.2.19 4.6z"/><path class="cls-6" d="M273.8 104.66a6.85 6.85 0 1 1-7.33-6.33 6.86 6.86 0 0 1 7.33 6.33zM299 100.93a25.51 25.51 0 0 1-1.44 7.77 6.85 6.85 0 0 1 .44-13.62h.49a43.49 43.49 0 0 1 .51 5.85z"/><path class="cls-5" d="M278.17 95.74s-2.59 4.67-11.22-.21c-1.08-.61 3.65.68 6.55.8s5.38-1.59 4.67-.59zM296.92 92.15c-.64 1.15-6.56 6-8.95 2-.63-1.07 1.8 1.13 4.49 0s4.87-2.74 4.46-2z"/><path class="cls-6" d="M282.39 106.61c1.81 0 4.56-.51 4.95-2.66a3.6 3.6 0 0 0-.79-2.5c-1.16-2-2.22-3.85-2.23-6.26 0-.31-.49-.37-.49 0a11.73 11.73 0 0 0 2 6.09c.67 1.15 1.46 2.16.54 3.46s-2.59 1.44-3.94 1.43c-.32 0-.37.49-.06.49z"/><path class="cls-7" d="M276.24 111c-.6-1.13 9.14 1.37 13.65-1.6 2.69-1.77-4.03 14.6-13.65 1.6z"/><path class="cls-5" d="M229.33 67.93a33.58 33.58 0 0 1-9.21 11.81c-4.23 3.38-8.13 5.89-10.48 11-.28.61-1.21.15-.93-.45a23.1 23.1 0 0 1 7.56-9c5.26-4 9.14-7.77 12.13-13.84a.52.52 0 0 1 .93.45zM317.06 117.11c-1.19 5.09 3.05 10.47 3.35 15.58.3 5.33-3.46 7.75-8.27 8.81-.64.14-1-.85-.31-1 14.91-3.27 2.18-14.87 4.22-23.64a.52.52 0 0 1 1 .24z"/><path class="cls-5" d="M280.11 52.73c.71-5.12-44.82-16.92-56.69 26.48-4.24 15.5-39.77 16.32-22.3 45.26 5.52 9.14-31.05 18.77 1.8 41.69 30.72 21.44 75.75.1 71.07-15.42-5.18-17.18-20.5-7.39-11.05-29.85 4.81-11.41-1.55-17.88-2.95-21.6-.27-.77-.54-1.55-.83-2.34-.85-2.65-1.26-5.14-.27-7.63 2.95-7.42 25-3.77 19.74-20.76-5-16.06 1.48-15.83 1.48-15.83zM285.52 124.77a95.08 95.08 0 0 0 1.16 10.17c.81 4.18 4.71 2.31 4.61 1.57s-5.77-11.74-5.77-11.74z"/></g></g></g></svg>