<svg xmlns="http://www.w3.org/2000/svg" width="19" height="19.063" viewBox="0 0 19 19.063">
  <defs>
    <style>
      .cls-1 {
        fill: #1f5af4;
        fill-rule: evenodd;
      }
    </style>
  </defs>
  <path class="cls-1" d="M352.932,130.311a0.743,0.743,0,1,0-.743-0.742A0.742,0.742,0,0,0,352.932,130.311Zm0-5.345a0.743,0.743,0,1,0-.743-0.743A0.743,0.743,0,0,0,352.932,124.966Zm5.826,9.668a0.742,0.742,0,0,0,.742-0.742V124.74a2.964,2.964,0,0,0-2.239-2.878l-3.156-.91-0.026-.007a4.637,4.637,0,0,0-2.3.018l-3.851,1.025a2.6,2.6,0,0,1-1.6-.086l-0.028-.01-2.769-.935a2.226,2.226,0,0,0-3.025,2.079v12.97a2.964,2.964,0,0,0,2.253,2.882l3.18,0.79a4.633,4.633,0,0,0,2.276-.012l3.885-1.009a2.6,2.6,0,0,1,1.569.082l0.027,0.009,2.8,0.923a2.212,2.212,0,0,0,2.033-.248,2.248,2.248,0,0,0,.98-1.856,0.742,0.742,0,1,0-1.484,0,0.756,0.756,0,0,1-.335.631,0.72,0.72,0,0,1-.676.081l-0.037-.013-2.8-.924a4.075,4.075,0,0,0-2.447-.122l-3.885,1.009a3.156,3.156,0,0,1-1.545.008l-3.18-.79a1.484,1.484,0,0,1-1.127-1.441v-12.97a0.743,0.743,0,0,1,1.015-.691l0.035,0.013,2.771,0.936a4.071,4.071,0,0,0,2.5.129l3.851-1.025a3.141,3.141,0,0,1,1.55-.015l3.154,0.909,0.027,0.007a1.483,1.483,0,0,1,1.127,1.441v9.152A0.742,0.742,0,0,0,358.758,134.634Zm-5.826-6.995a0.743,0.743,0,1,0-.743-0.743A0.743,0.743,0,0,0,352.932,127.639Zm-2.227,6.125a2.227,2.227,0,1,0,2.227-2.228A2.229,2.229,0,0,0,350.705,133.764Zm2.227-.743a0.743,0.743,0,1,1-.743.743A0.743,0.743,0,0,1,352.932,133.021Zm-5.864-2.71a0.743,0.743,0,1,0,.743.743A0.742,0.742,0,0,0,347.068,130.311Zm2.19-3.415a2.227,2.227,0,1,0-2.227,2.227A2.229,2.229,0,0,0,349.258,126.9Zm-2.227.743a0.743,0.743,0,1,1,.742-0.743A0.744,0.744,0,0,1,347.031,127.639Zm0.037,8.018a0.743,0.743,0,1,0,.743.742A0.742,0.742,0,0,0,347.068,135.657Zm0-2.673a0.743,0.743,0,1,0,.743.742A0.742,0.742,0,0,0,347.068,132.984Z" transform="translate(-340.5 -120.781)"/>
</svg>
