<svg xmlns="http://www.w3.org/2000/svg" width="19" height="19" viewBox="0 0 19 19">
  <defs>
    <style>
      .cls-1 {
        fill: #1f5af4;
        fill-rule: evenodd;
      }
    </style>
  </defs>
  <path class="cls-1" d="M344.211,447.092a2.228,2.228,0,1,0-2.227-2.228A2.23,2.23,0,0,0,344.211,447.092Zm0-2.97a0.743,0.743,0,1,1-.742.742A0.743,0.743,0,0,1,344.211,444.122Zm11.578,2.97a2.228,2.228,0,1,0-2.226-2.228A2.23,2.23,0,0,0,355.789,447.092Zm0-2.97a0.743,0.743,0,1,1-.742.742A0.743,0.743,0,0,1,355.789,444.122Zm3.711,5.9v3.267a2.23,2.23,0,0,1-1.484,2.1v4.025a0.743,0.743,0,0,1-1.485,0v-4.64a0.743,0.743,0,0,1,.743-0.743,0.743,0.743,0,0,0,.742-0.742v-3.267a0.743,0.743,0,0,0-.742-0.742h-1.337a0.743,0.743,0,0,1,0-1.485h1.337A2.229,2.229,0,0,1,359.5,450.024Zm-4.453,4.752v4.64a0.742,0.742,0,0,1-1.484,0v-4.025a2.237,2.237,0,0,1-1.077-.817,2.2,2.2,0,0,1-.259.112v4.73a0.743,0.743,0,0,1-1.485,0v-5.345a0.742,0.742,0,0,1,.742-0.743,0.743,0.743,0,0,0,.743-0.742v-4.047a0.743,0.743,0,0,0-.743-0.742h-2.968a0.743,0.743,0,0,0-.743.742v4.047a0.743,0.743,0,0,0,.743.742,0.742,0.742,0,0,1,.742.743v5.345a0.743,0.743,0,0,1-1.485,0v-4.73a2.2,2.2,0,0,1-.259-0.112,2.239,2.239,0,0,1-1.076.817v4.025a0.743,0.743,0,0,1-1.485,0v-4.64a0.743,0.743,0,0,1,.742-0.743,0.743,0.743,0,0,0,.738-0.66,2.212,2.212,0,0,1-.144-0.787v-4.047a2.229,2.229,0,0,1,2.227-2.227h2.968a2.229,2.229,0,0,1,2.227,2.227v4.047a2.212,2.212,0,0,1-.144.787,0.743,0.743,0,0,0,.738.66A0.743,0.743,0,0,1,355.047,454.776Zm-10.242-6.237a0.743,0.743,0,0,1-.743.743h-1.335a0.743,0.743,0,0,0-.743.742v3.267a0.743,0.743,0,0,0,.743.742,0.743,0.743,0,0,1,.742.743v4.64a0.743,0.743,0,0,1-1.485,0v-4.025a2.23,2.23,0,0,1-1.484-2.1v-3.267a2.229,2.229,0,0,1,2.227-2.227h1.335A0.743,0.743,0,0,1,344.805,448.539ZM350,445.607a2.228,2.228,0,1,0-2.227-2.228A2.23,2.23,0,0,0,350,445.607Zm0-2.97a0.743,0.743,0,1,1-.742.742A0.743,0.743,0,0,1,350,442.637Z" transform="translate(-340.5 -441.156)"/>
</svg>
