<svg xmlns="http://www.w3.org/2000/svg" width="29" height="29"><path d="M24.46 8.31h-3.73V4.52A4.537 4.537 0 0 0 16.2 0H9.23a4.5 4.5 0 0 0-3.2 1.32L1.29 6.04c-.03.03-.05.06-.08.09A4.517 4.517 0 0 0 0 9.21v6.96a4.53 4.53 0 0 0 4.53 4.52h3.74v3.79A4.53 4.53 0 0 0 12.8 29h6.85a4.537 4.537 0 0 0 3.34-1.47.628.628 0 0 0 .12-.11l4.56-4.55a4.527 4.527 0 0 0 1.33-3.2v-6.84a4.539 4.539 0 0 0-4.54-4.52zm0 2.26a1.34 1.34 0 0 1 .2.01l-2.93 2.92a4.56 4.56 0 0 0-2.08-.5h-5.57l2-2.02.02-.02a1.2 1.2 0 0 1 .89-.39h7.47zm-6-6.05v3.79h-1.47a3.572 3.572 0 0 0-1.13.19 4.505 4.505 0 0 0-.71-1.8l3.11-3.1a2.172 2.172 0 0 1 .2.92zM7.63 2.92a2.289 2.289 0 0 1 1.6-.66h6.97a1.275 1.275 0 0 1 .19.01l-2.93 2.92a4.529 4.529 0 0 0-2.08-.5H5.86zm1.93 11.44a.236.236 0 0 0-.08.09 4.473 4.473 0 0 0-1.21 3.07v.91H4.53a2.273 2.273 0 0 1-2.27-2.26V9.21a2.266 2.266 0 0 1 2.27-2.26h6.85a2.266 2.266 0 0 1 2.27 2.26v1.01zm17.17 5.31a2.271 2.271 0 0 1-.66 1.6l-1.9 1.89a1.129 1.129 0 0 0-2.25.13v1.19a2.273 2.273 0 0 1-2.27 2.26H12.8a2.273 2.273 0 0 1-2.27-2.26v-6.96a2.266 2.266 0 0 1 2.27-2.26h6.85a2.266 2.266 0 0 1 2.27 2.26v.17a1.13 1.13 0 1 0 2.26 0v-.17a4.5 4.5 0 0 0-.76-2.51l3.11-3.1a2.172 2.172 0 0 1 .2.92v6.84z" fill="#fff" fill-rule="evenodd"/></svg>