<svg xmlns="http://www.w3.org/2000/svg" width="1093" height="412"><path fill-rule="evenodd" fill="#D62963" d="M1085.618 282.118v-7.541l6.526 3.771-6.526 3.77zm-8.414 55.003l6.526 3.771-6.526 3.771v-7.542zm-2.461-62.544l6.525 3.771-6.525 3.77v-7.541zm-853.578-88.84v.761h-2.026v-.761h2.026zm17.218.761h-12.154v-.761h12.154v.761zm1.477-75.29h-4.669V97.474h4.669v13.734zm5.613 74.529v.761h-5.065v-.761h5.065zm788.608-26.529v56.919h39.286a2.78 2.78 0 0 1 2.749-2.409 2.789 2.789 0 0 1 0 5.579 2.78 2.78 0 0 1-2.749-2.409h-40.046v-56.92h-170.99v26.857h17.128v9.316h-17.128v7.811h17.128v9.332h-17.128v7.812h17.128v9.331h-17.128v7.812h17.128v9.195h-17.128v7.812h17.128v17.019h39.21l39.37 68.246h75.662v-3.39l6.525 3.771-6.525 3.771v-3.392H958.04l-39.371 68.248h-79.18l-39.37-68.248h-57.985v-46.768a4.07 4.07 0 0 1-2.241-.926l-74.516 74.574h-23.121v2.45H636.6v-2.45h-3.615v2.45h-5.655v-2.45h-3.615v2.45h-5.656v-2.45h-3.615v2.45h-5.656v-2.45h-45.127l38.414 38.445h140.438v-3.391l6.526 3.771-6.526 3.77v-3.39H601.76l-.112-.111-41.259-41.292a4.084 4.084 0 0 1-2.488.855 4.124 4.124 0 0 1-4.123-4.125c0-.94.327-1.797.856-2.491l-12.132-12.142a4.077 4.077 0 0 1-2.241.927v41.093H499.9l-.112-.111-43.748-43.784h-32.789v-.76h33.103l.112.111 43.748 43.784h39.287v-40.333a4.097 4.097 0 0 1-3.71-3.76c-42.208-1.079-80.347-18.817-108.096-46.868-.451.314-.997.5-1.588.5a2.78 2.78 0 0 1-2.749-2.409H306.239l-26.574 26.597c.354.467.573 1.044.573 1.677a2.789 2.789 0 1 1-5.575 0 2.789 2.789 0 0 1 2.788-2.79c.632 0 1.208.219 1.676.574l26.798-26.818h117.433c.067-.488.257-.933.542-1.306a158.907 158.907 0 0 1-21.96-30.265 2.76 2.76 0 0 1-1.046.207 2.778 2.778 0 0 1-2.749-2.409H351.76v3.39l-5.866-3.39h-5.01v3.39l-5.866-3.39h-5.009v3.39l-5.867-3.39h-5.009v3.39l-5.867-3.39h-5.009v3.39l-5.867-3.39h-36.149c-.206 37.718-30.82 68.357-68.508 68.562v.547l-.542-.541c-37.788-.088-68.519-30.777-68.725-68.568H6.326a2.78 2.78 0 0 1-5.536-.38 2.789 2.789 0 0 1 2.787-2.79 2.779 2.779 0 0 1 2.749 2.41h38.732v-65.278a3.15 3.15 0 0 1-2.779-3.123 3.15 3.15 0 0 1 2.779-3.123v-4.488a3.15 3.15 0 0 1-2.779-3.123 3.15 3.15 0 0 1 2.779-3.123v-4.488a3.15 3.15 0 0 1-2.779-3.123 3.15 3.15 0 0 1 2.779-3.123v-4.488a3.15 3.15 0 0 1-2.779-3.123 3.15 3.15 0 0 1 2.779-3.123v-4.488a3.15 3.15 0 0 1-2.779-3.123 3.15 3.15 0 0 1 2.779-3.123V95.702C21.941 95.496 3.197 76.62 3.197 53.438c0-23.31 18.949-42.274 42.24-42.274 15.77 0 29.539 8.7 36.794 21.548a2.776 2.776 0 0 1 2.965 1.346c11.781-4.615 24.216-6.956 37.007-6.956 42.16 0 78.403 25.827 93.772 62.5h71.805l.112.111 33.055 33.082a4.08 4.08 0 0 1 2.536-.895 4.124 4.124 0 0 1 4.123 4.125 4.124 4.124 0 0 1-4.123 4.126 4.124 4.124 0 0 1-4.122-4.126c0-1.041.398-1.98 1.034-2.707l-32.93-32.956h-71.179a101.236 101.236 0 0 1 7.549 38.453c0 22.535-7.558 44.532-21.304 62.281.445.46.723 1.073.769 1.752 26.38 2.27 48.549 19.472 58.017 43.106h97.502l22.883-22.902a2.769 2.769 0 0 1-.36-1.346c0-1.306.9-2.393 2.11-2.698a158.728 158.728 0 0 1-1.51-21.803c0-85.131 67.6-154.745 151.897-157.936a6.047 6.047 0 0 1 5.662-5.787v-.041h.76v.042a6.046 6.046 0 0 1 5.661 5.786c35.534 1.345 68.1 14.487 93.886 35.627a2.77 2.77 0 0 1 4.673 1.632h87.156v-3.799l6.526 3.771-6.526 3.77v-2.982h-87.156a2.784 2.784 0 0 1-.452 1.196 159.427 159.427 0 0 1 22.526 24.42 2.752 2.752 0 0 1 1.348-.363 2.781 2.781 0 0 1 2.744 2.362h14.918a4.124 4.124 0 1 1 8.165-.795c0 .272-.03.537-.08.795h104.204l.112.11 33.237 33.264.158.158h93.014v-7.099h4.669v7.099h7.321v-7.099h4.669v7.099h7.32v-7.099h4.67v7.099h7.32v-7.099h4.669v7.099h7.32v-7.099h4.669v7.099h96.366a2.779 2.779 0 0 1 2.748-2.41 2.789 2.789 0 0 1 2.788 2.79 2.789 2.789 0 0 1-2.788 2.79 2.78 2.78 0 0 1-2.749-2.41h-96.365v5.876h-4.669v-5.876h-7.32v5.876h-4.669v-5.876h-7.32v5.876h-4.67v-5.876h-7.32v5.876h-4.669v-5.876h-7.321v5.876h-4.669v-5.876h-92.254l29.987 30.013h171.973zM879.079 343.682a2.79 2.79 0 0 1-2.787-2.79 2.78 2.78 0 0 1 2.407-2.751v-4.973c-4.09.2-7.358 3.582-7.358 7.723 0 4.271 3.471 7.744 7.738 7.744s7.737-3.473 7.737-7.744c0-4.141-3.267-7.523-7.357-7.723v4.973a2.78 2.78 0 0 1 2.407 2.751 2.79 2.79 0 0 1-2.787 2.79zm-39.151 65.076h78.302l39.152-67.867-39.152-67.865h-38.771v59.382c4.508.201 8.117 3.922 8.117 8.483 0 4.689-3.812 8.504-8.497 8.504-4.685 0-8.497-3.815-8.497-8.504 0-4.561 3.608-8.282 8.117-8.483v-59.382h-38.771l-39.152 67.865 39.152 67.867zm-642.195-79.049c37.27-.206 67.543-30.503 67.748-67.802h-52.103a15.957 15.957 0 0 1-4.571 10.862l-.542-.533a15.198 15.198 0 0 0 4.353-10.329h-9.319a5.958 5.958 0 0 1-5.566 5.57v62.232zm-1.321-.014l-67.172-67.226c.503 36.852 30.349 66.722 67.172 67.226zM82.791 38.235a2.788 2.788 0 0 1-2.787-2.789c0-1.076.615-1.999 1.506-2.464-7.14-12.561-20.629-21.057-36.073-21.057-22.872 0-41.48 18.622-41.48 41.513s18.608 41.513 41.48 41.513c22.873 0 41.481-18.622 41.481-41.513a41.304 41.304 0 0 0-2.991-15.449 2.78 2.78 0 0 1-1.136.246zm39.412-10.373c-12.692 0-25.03 2.322-36.718 6.9.055.22.094.447.094.684 0 .856-.394 1.613-1.001 2.125a42.053 42.053 0 0 1 3.099 15.867c0 23.182-18.744 42.058-41.86 42.264v50.985a3.15 3.15 0 0 1 2.779 3.123 3.15 3.15 0 0 1-2.779 3.123v4.488a3.15 3.15 0 0 1 2.779 3.123 3.15 3.15 0 0 1-2.779 3.123v4.488a3.15 3.15 0 0 1 2.779 3.123 3.15 3.15 0 0 1-2.779 3.123v4.488a3.15 3.15 0 0 1 2.779 3.123 3.15 3.15 0 0 1-2.779 3.123v4.488a3.15 3.15 0 0 1 2.779 3.123 3.15 3.15 0 0 1-2.779 3.123v65.278h82.649c.135-24.71 13.317-46.382 32.994-58.451l-22.96-22.979v-19.813h-3.388l3.388-5.872v-5.012h-3.388l3.388-5.872v-5.013h-3.388l3.388-5.872v-5.012h-3.388l3.388-5.872v-5.013h-3.388l3.388-5.872V89.602h76.654c-15.323-36.245-51.217-61.74-92.951-61.74zm100.873 100.953c0-13.609-2.711-26.595-7.611-38.453h-76.206v20.132l3.388 5.872h-3.388v5.012l3.388 5.873h-3.388v5.012l3.388 5.872h-3.388v5.012l3.388 5.873h-3.388v5.012l3.388 5.872h-3.388v19.498l22.875 22.893a68.42 68.42 0 0 1 35.219-9.72c.146 0 .29.01.435.011a2.782 2.782 0 0 1 2.743-2.343c.512 0 .985.148 1.398.389 13.644-17.615 21.147-39.449 21.147-61.817zm-19.818 64.792a2.778 2.778 0 0 1-5.483-.262c-.141-.001-.28-.01-.422-.01a67.66 67.66 0 0 0-34.663 9.517l33.077 33.102h20.515v-2.609h5.656v2.609h3.615v-2.609h5.655v2.609h3.615v-2.609h5.656v2.609h3.615v-2.609h5.656v2.609h10.751c-9.424-23.222-31.268-40.103-57.243-42.347zm57.543 43.107H249.75v2.291h-5.656v-2.291h-3.615v2.291h-5.656v-2.291h-3.615v2.291h-5.655v-2.291h-3.615v2.291h-5.656v-2.291h-20.83l-.111-.111-33.331-33.357c-19.606 11.953-32.735 33.532-32.79 58.127l67.754 67.808v-61.704a5.967 5.967 0 0 1 .379-11.92c3.167 0 5.749 2.471 5.946 5.59h62.182a67.851 67.851 0 0 0-4.68-24.433zm121.355-23.04l-23.022 23.04h-97.517a68.622 68.622 0 0 1 4.624 24.433h36.148l5.868-3.391v3.391h5.008l5.868-3.391v3.391h5.007l5.869-3.391v3.391h5.007l5.868-3.391v3.391h5.008l5.868-3.391v3.391h46.384a2.78 2.78 0 0 1 1.17-1.916 156.933 156.933 0 0 1-15.012-44.753c-.058.003-.114.017-.173.017a2.774 2.774 0 0 1-1.973-.821zM667.903 98.12a2.789 2.789 0 0 1-1.962-4.769 158.631 158.631 0 0 0-22.431-24.312 2.761 2.761 0 0 1-1.779.658 2.788 2.788 0 0 1-2.787-2.789c0-.519.151-.998.397-1.413-25.661-21.042-58.069-34.123-93.432-35.466a6.053 6.053 0 0 1-6.028 5.552 6.053 6.053 0 0 1-6.029-5.552c-83.885 3.184-151.15 72.461-151.15 157.176a158 158 0 0 0 1.505 21.719 2.783 2.783 0 0 1 2.709 2.782 2.78 2.78 0 0 1-1.869 2.622 156.151 156.151 0 0 0 14.95 44.57c.283-.097.581-.161.897-.161a2.789 2.789 0 0 1 2.787 2.79c0 .896-.43 1.685-1.087 2.195a158.157 158.157 0 0 0 21.844 30.116 2.76 2.76 0 0 1 1.669-.568 2.789 2.789 0 0 1 2.788 2.79c0 .674-.249 1.285-.648 1.767 27.613 27.907 65.56 45.554 107.555 46.63.219-2.073 1.95-3.693 4.079-3.693 2.129 0 3.86 1.62 4.079 3.693 84.791-2.173 153.1-71.879 153.1-157.252 0-33.178-10.327-63.985-27.92-89.387-.374.187-.79.302-1.237.302zm129.636-2.457h-54.646v15.434c2.096.195 3.743 1.939 3.743 4.087a4.124 4.124 0 0 1-4.123 4.126 4.124 4.124 0 0 1-4.123-4.126c0-2.149 1.647-3.893 3.744-4.087V95.663h-48.712a4.129 4.129 0 0 1-1.386 1.764 177.987 177.987 0 0 1 3.969 7.042l-.67.356a177.625 177.625 0 0 0-3.952-7.009c-.54.26-1.137.417-1.776.417a4.12 4.12 0 0 1-3.814-2.57h-15.136a2.771 2.771 0 0 1-.889 1.728c17.676 25.523 28.051 56.477 28.051 89.814 0 85.788-68.644 155.834-153.849 158.012a4.077 4.077 0 0 1-.931 2.295l12.109 12.119a4.09 4.09 0 0 1 2.753-1.074 4.123 4.123 0 0 1 4.032 3.272c2.125-.267 4.246-.558 6.339-.898l.122.751c-2.107.342-4.242.635-6.38.902.001.034.01.065.01.099a4.097 4.097 0 0 1-1.074 2.754l1.951 1.953h45.887v-2.45h5.656v2.45h3.615v-2.45h5.656v2.45h3.615v-2.45h5.655v2.45h3.615v-2.45h5.656v2.45h22.807l74.292-74.352a4.088 4.088 0 0 1-.964-2.622c0-2.149 1.646-3.893 3.743-4.088v-8.336h-3.388l3.388-5.872v-5.012h-3.388l3.388-5.873v-5.012h-3.388l3.388-5.872v-5.012h-3.388l3.388-5.873v-5.011h-3.388l3.388-5.873v-25.019c-2.097-.194-3.744-1.938-3.744-4.087a4.124 4.124 0 0 1 4.123-4.126 4.124 4.124 0 0 1 4.123 4.126c0 2.148-1.647 3.893-3.743 4.087v13.093l87.773-87.841-33.127-33.152zm64.032 64.083l-30.368-30.394-88.31 88.38v10.851l3.388 5.872h-3.388v5.012l3.388 5.872h-3.388v5.012l3.388 5.872h-3.388v5.013l3.388 5.872h-3.388v5.013l3.388 5.871h-3.388v8.336c2.096.195 3.743 1.939 3.743 4.088 0 2.148-1.647 3.893-3.743 4.087v46.008h57.225l39.371-68.246h39.21v-16.259h-17.128v-9.332h17.128v-7.675h-17.128v-9.332h17.128v-7.811h-17.128v-9.333h17.128v-7.811h-17.128v-9.331h17.128v-7.796h-17.128v-27.839zm-29.088 81.927h13.723v4.673h-13.723v-4.673zm0-11.999h13.723v4.673h-13.723v-4.673zm0-11.999h13.723v4.673h-13.723v-4.673zm0-11.998h13.723v4.673h-13.723v-4.673zm0-12h13.723v4.673h-13.723v-4.673zm-27.795 101.245a4.737 4.737 0 0 1-4.73-4.734c0-1.203.464-2.29 1.205-3.126l-24.631-24.652v-36.573c-2.428-.198-4.351-2.216-4.351-4.696a4.739 4.739 0 0 1 4.731-4.734 4.738 4.738 0 0 1 4.73 4.734c0 2.48-1.922 4.498-4.35 4.696v36.258l24.423 24.442c.815-.666 1.841-1.083 2.973-1.083a4.738 4.738 0 0 1 4.73 4.734 4.738 4.738 0 0 1-4.73 4.734zm-23.806-73.781a3.977 3.977 0 0 0-3.97-3.974 3.977 3.977 0 0 0-3.971 3.974 3.977 3.977 0 0 0 3.971 3.974 3.977 3.977 0 0 0 3.97-3.974zm23.806 65.074a3.977 3.977 0 0 0-3.971 3.973 3.978 3.978 0 0 0 3.971 3.974 3.978 3.978 0 0 0 3.971-3.974 3.977 3.977 0 0 0-3.971-3.973zm-62.175-95.364a4.51 4.51 0 0 1-4.503-4.506 4.51 4.51 0 0 1 4.503-4.506 4.51 4.51 0 0 1 4.503 4.506 4.51 4.51 0 0 1-4.503 4.506zm0-8.252a3.748 3.748 0 0 0-3.743 3.746 3.748 3.748 0 0 0 3.743 3.746 3.748 3.748 0 0 0 3.743-3.746 3.748 3.748 0 0 0-3.743-3.746zm0-13.806a4.124 4.124 0 0 1 4.123 4.126 4.125 4.125 0 0 1-4.123 4.126 4.125 4.125 0 0 1-4.123-4.126 4.124 4.124 0 0 1 4.123-4.126zm0-5.518a4.51 4.51 0 0 1-4.502-4.506 4.51 4.51 0 0 1 4.502-4.506 4.51 4.51 0 0 1 4.503 4.506 4.51 4.51 0 0 1-4.503 4.506zm0-8.252a3.748 3.748 0 0 0-3.742 3.746 3.748 3.748 0 0 0 3.742 3.746 3.748 3.748 0 0 0 3.743-3.746 3.748 3.748 0 0 0-3.743-3.746zm0-14.305a4.124 4.124 0 0 1 4.123 4.126 4.124 4.124 0 0 1-4.123 4.126 4.124 4.124 0 0 1-4.123-4.126 4.124 4.124 0 0 1 4.123-4.126zm0-6.769a4.51 4.51 0 0 1-4.502-4.506 4.51 4.51 0 0 1 4.502-4.506 4.51 4.51 0 0 1 4.503 4.506 4.51 4.51 0 0 1-4.503 4.506zm0-8.251a3.747 3.747 0 0 0-3.742 3.745 3.748 3.748 0 0 0 3.742 3.746 3.748 3.748 0 0 0 3.743-3.746 3.748 3.748 0 0 0-3.743-3.745zm-26.805 57.678l.76-.016c.015.675.025 1.352.032 2.029l-.759.008c-.007-.675-.018-1.348-.033-2.021zm-1.195-17.14l.754-.089c.476 4.006.819 8.091 1.02 12.141l-.76.038a177.363 177.363 0 0 0-1.014-12.09zm-.974-7.005l.75-.119c.265 1.66.51 3.35.729 5.023l-.754.099a179.767 179.767 0 0 0-.725-5.003zm2.119 45.425a178.551 178.551 0 0 1-1.603 12.078l-.749-.127a178.177 178.177 0 0 0 1.596-12.025l.756.074zm-3.666 18.905c.139-.659.273-1.32.404-1.982l.745.148c-.132.665-.267 1.328-.405 1.991l-.744-.157zm-1.244-78.203l.738-.18c.159.658.316 1.315.468 1.973l-.739.173c-.153-.657-.308-1.312-.467-1.966zm-4.885-16.475l.716-.251a176.537 176.537 0 0 1 3.633 11.631l-.732.203a175.71 175.71 0 0 0-3.617-11.583zm-2.477-6.627l.706-.281a179.97 179.97 0 0 1 1.805 4.745l-.714.261a173.757 173.757 0 0 0-1.797-4.725zm4.352 120.114a176.687 176.687 0 0 1-4.201 11.451l-.704-.287a175.739 175.739 0 0 0 4.183-11.401l.722.237zm-7.711 17.679c.28-.613.556-1.23.829-1.849l.694.307c-.273.621-.551 1.241-.833 1.859l-.69-.317zm-2.389-150.725l.681-.336c.3.605.596 1.214.888 1.825l-.684.329c-.292-.609-.587-1.214-.885-1.818zm11.453 126.016l.73.208a168.655 168.655 0 0 1-1.461 4.882l-.724-.229a172.69 172.69 0 0 0 1.455-4.861zm6.361-37.816l.758.043c-.097 1.675-.22 3.38-.364 5.066l-.758-.066c.144-1.678.267-3.376.364-5.043zm-23.305 77.814a179.859 179.859 0 0 0 2.474-4.419l.668.362a179.524 179.524 0 0 1-2.485 4.437l-.657-.38zm-7.584 11.958a177.127 177.127 0 0 0 6.558-10.211l.653.388a177.79 177.79 0 0 1-6.586 10.256l-.625-.433zm-4.145 5.742c.405-.539.809-1.081 1.208-1.625l.611.452a190.97 190.97 0 0 1-1.212 1.63l-.607-.457zm-10.993 13.207a180.539 180.539 0 0 0 3.366-3.772l.573.496a176.812 176.812 0 0 1-3.379 3.791l-.56-.515zm-9.975 10.033a179.245 179.245 0 0 0 8.6-8.551l.554.52a178.945 178.945 0 0 1-8.638 8.587l-.516-.556zm-5.28 4.706c.511-.438 1.021-.879 1.527-1.322l.501.572c-.509.445-1.02.888-1.533 1.328l-.495-.578zm-13.565 10.522a181.202 181.202 0 0 0 4.093-2.955l.452.611c-1.346 1.001-2.728 2-4.11 2.968l-.435-.624zm-11.896 7.64a177.791 177.791 0 0 0 10.235-6.491l.429.627a178.257 178.257 0 0 1-10.28 6.519l-.384-.655zm-6.159 3.448c.592-.317 1.184-.637 1.773-.96l.364.667c-.591.324-1.185.645-1.779.964l-.358-.671zm-15.504 7.327a176.62 176.62 0 0 0 4.627-1.994l.31.695a183.088 183.088 0 0 1-4.646 2.002l-.291-.703zm-13.023 5.593l-.233-.725a175.056 175.056 0 0 0 11.39-4.109l.283.707a177.792 177.792 0 0 1-11.44 4.127zm-7.007 1.305c.65-.181 1.297-.364 1.944-.552l.212.731c-.649.188-1.301.372-1.952.554l-.204-.733zm-16.749 3.778c1.658-.29 3.329-.606 4.963-.94l.152.745a176.27 176.27 0 0 1-4.985.943l-.13-.748zm70.782-192.175a102.351 102.351 0 0 1 1.761 14.092l14.854-.72.037.595c.56 10.841-.484 21.991-3.101 33.147l-.133.592-13.782-3.311a109.63 109.63 0 0 1-3.846 12.229l15.247 5.926-.22.563c-5.591 14.492-14.26 27.996-25.077 39.334l12.341 11.967-.422.434c-21.02 21.751-48.962 36.05-78.681 40.263l-.593.091-.054-.379-4.848-33.515c-4.596.636-9.247.973-13.941.973-.073 0-.146-.004-.218-.005l-.114 14.878h-.6c-10.79-.037-21.846-1.697-32.861-4.934l-.581-.171 4.058-13.591a104.036 104.036 0 0 1-5.506-1.858l-5.728 15.318-.563-.205c-14.57-5.408-28.174-13.913-39.625-24.601l-11.789 12.48-.439-.411c-21.904-20.609-36.541-48.391-41.216-78.228l-.093-.598.374-.059 33.447-5.27a102.727 102.727 0 0 1-1.147-14.155l-14.884.072-.005-.604c-.065-11.025 1.463-22.11 4.543-32.949l.162-.581 13.632 3.896c.365-1.25.75-2.491 1.159-3.721l-15.488-5.261.192-.572c4.971-14.73 13.049-28.595 23.358-40.38l-12.852-11.427.396-.45c20.05-22.614 47.348-38.107 76.865-43.627l.591-.111 6.371 33.64a100.864 100.864 0 0 1 14.103-1.579l-.535-14.876.601-.022c10.899-.434 22.084.761 33.067 3.531l.585.146-.094.37-3.38 13.372c1.889.49 3.742 1.039 5.573 1.622l5.066-15.561.573.187c14.81 4.793 28.766 12.695 40.647 22.847l11.238-12.983.454.399c22.778 19.638 38.6 46.759 44.549 76.363l.118.591-33.546 6.797zm-1.188.242l-9.51 1.926a91.08 91.08 0 0 1 1.562 12.453l9.682-.47a101.424 101.424 0 0 0-1.734-13.909zm-78.015-69.661c.172.041.342.087.513.13l2.548-10.084a111.437 111.437 0 0 0-5.579-1.245l-1.875 10.265c1.47.278 2.936.584 4.393.934zm-4.61.255l-.501 2.742c1.55.295 3.099.625 4.646 1.004l.682-2.701c-.167-.041-.332-.086-.499-.126a89.498 89.498 0 0 0-4.328-.919zm5.021 5.204l-.583-.145a89.417 89.417 0 0 0-5.156-1.127l-2.325 12.73a80.72 80.72 0 0 1 8.537 2.184l5.252-16.132a91.749 91.749 0 0 0-4.749-1.372l-.976 3.862zm-113.382 84.779l-9.672.046c.058 4.677.438 9.352 1.134 13.972l9.558-1.506a90.67 90.67 0 0 1-1.02-12.512zm.794-13.002l-9.61-1.334c-.258 1.955-.459 3.87-.595 5.701a101.212 101.212 0 0 0-.271 7.474l9.694-.046c.008-3.925.263-7.863.782-11.795zm-9.149 28.214a99.917 99.917 0 0 0 4.471 17.454l9.14-3.304a90.82 90.82 0 0 1-4.05-15.657l-9.561 1.507zm78.574 72.791a92.221 92.221 0 0 1-4.34-1.155l-2.516 8.429-.459 1.536c1.822.532 3.661 1.029 5.526 1.466l2.306-10.159c-.172-.041-.345-.075-.517-.117zm.785-1.061l.62-2.734a96.961 96.961 0 0 1-4.604-1.182l-.795 2.663c1.409.412 2.834.794 4.277 1.14.167.04.335.074.502.113zm-4.798-5.401l.574.165c1.708.498 3.411.933 5.11 1.33l.386-1.701 2.481-10.925a76.4 76.4 0 0 1-8.431-2.529l-5.938 15.882c1.539.564 3.1 1.09 4.684 1.576l1.134-3.798zm5.974 5.665c1.794.396 3.597.737 5.407 1.022l.418-2.762a91.827 91.827 0 0 1-5.207-.982l-.618 2.722zm-6.989-19.738a69.746 69.746 0 0 1-8.781-4.065l-7.092 12.776-1.13 2.035a89.601 89.601 0 0 0 11.068 5.128l5.935-15.874zm-9.252-5.701l.528.296a68.59 68.59 0 0 0 9.144 4.282l3.836-10.259a60.233 60.233 0 0 1-20.248-12.857l-3.677 3.76c.131.124.256.255.387.378l.444.417-16.322 17.28a89.897 89.897 0 0 0 17.1 12.568l8.808-15.865zm-17.73-21.069l-5.692 4.37a76.393 76.393 0 0 0 6.263 7.093l5.041-5.155a66.44 66.44 0 0 1-5.612-6.308zm6.452 5.448l3.679-3.762a60.584 60.584 0 0 1-4.984-5.638l-4.196 3.222a65.323 65.323 0 0 0 5.501 6.178zm-7.197-6.396a67.897 67.897 0 0 1-4.653-7.061l-6.251 3.523a74.809 74.809 0 0 0 5.223 7.899l5.681-4.361zm.955-.734l5.154-3.956.368.479a59.287 59.287 0 0 0 5.235 5.989l9.577-9.793a47.298 47.298 0 0 1-7.314-9.547l-17.583 9.912a66.712 66.712 0 0 0 4.563 6.916zm4.711 10.42l-4.34 4.439-.431-.422a77.679 77.679 0 0 1-6.805-7.645c-3.465 2.659-7.35 5.642-11.226 8.619a90.798 90.798 0 0 0 8.826 9.806l13.976-14.797zm-12.311-4.585a76.2 76.2 0 0 1-5.615-8.569l-.291-.527 7.313-4.123a68.334 68.334 0 0 1-4.215-9.212l-21.205 7.666a91.209 91.209 0 0 0 12.785 23.385l11.228-8.62zm8.904-49.885c.06-.798.144-1.628.257-2.529-2.795-.389-20.649-2.866-34.046-4.726a85.137 85.137 0 0 0-.743 11.66l.005.604-3.973.019a89.756 89.756 0 0 0 1.008 12.327l23.469-3.698.092.597a66.4 66.4 0 0 0 2.941 11.656c6.771-2.449 12.292-4.444 13.715-4.958-2.31-6.621-3.252-13.857-2.725-20.952zm-12.121 26.318a67.56 67.56 0 0 1-2.901-11.282l-22.286 3.512a90.4 90.4 0 0 0 3.98 15.436l21.207-7.666zm-23.614-22.511c.002-2.122.08-4.235.233-6.285.123-1.643.307-3.292.526-4.941l-2.764-.384a90.03 90.03 0 0 0-.765 11.624l2.77-.014zm.938-12.42c.177-1.209.375-2.417.603-3.624l-2.754-.539a92.31 92.31 0 0 0-.624 3.778l2.775.385zm-.791-5.127l1.631.318a91.172 91.172 0 0 1 1.461-6.212l-2.67-.763a93.99 93.99 0 0 0-.838 3.203 89.034 89.034 0 0 0-.707 3.234l1.123.22zm4.41-6.149a89.846 89.846 0 0 0-1.616 6.695c5.765 1.129 11.247 2.201 12.701 2.485a76.131 76.131 0 0 1 2.277-8.518l-16.056-5.454a91.926 91.926 0 0 0-.962 3.124l3.817 1.09-.161.578zm-4.815-1.999c.312-1.068.632-2.131.979-3.181l-9.842-3.343a105.115 105.115 0 0 0-1.141 3.664l10.004 2.86zm1.381-4.32a91.054 91.054 0 0 1 4.827-11.407c-4.333-2.237-8.123-4.191-9.254-4.774a100.868 100.868 0 0 0-5.44 12.829l9.867 3.352zm1.142.388l16.033 5.446a72.177 72.177 0 0 1 3.782-8.919l-13.957-7.2-1.101-.569a90.077 90.077 0 0 0-4.757 11.242zm21.434-3.995l-.282.537a70.957 70.957 0 0 0-3.984 9.29l10.353 3.518a61.001 61.001 0 0 1 12.233-20.642l-3.892-3.582c-.121.135-.248.264-.369.399l-.397.455-17.764-15.793a88.648 88.648 0 0 0-12.033 17.494l16.135 8.324zm21.424-19.145a68.276 68.276 0 0 1 6.902-4.877l-3.715-6.152a76.624 76.624 0 0 0-7.725 5.472l4.538 5.557zm-5.473-4.794a74.661 74.661 0 0 0-6.884 6.486l5.296 4.874a68.022 68.022 0 0 1 6.134-5.793l-4.546-5.567zm6.232 5.724l4.104 5.026-.467.382a59.95 59.95 0 0 0-5.802 5.432l10.067 9.267a47.205 47.205 0 0 1 9.298-7.608l-1.631-2.702-8.806-14.578a67.183 67.183 0 0 0-6.763 4.781zm2.414 4.864l-3.341-4.092a66.783 66.783 0 0 0-6.008 5.678l3.889 3.58a60.935 60.935 0 0 1 5.46-5.166zm-19.125-23.421l-9.445-11.566-7.521-9.21c-4.525 3.727-8.768 7.842-12.703 12.251l19.989 17.77a92.467 92.467 0 0 1 9.68-9.245zm-8.777 10.048l15.155 13.472-4.495-4.137.409-.443a75.616 75.616 0 0 1 7.419-7.047l-8.947-10.957a91.116 91.116 0 0 0-9.541 9.112zm19.423 1.082a77.916 77.916 0 0 1 8.379-5.885l.515-.316 4.352 7.204a67.813 67.813 0 0 1 9.068-4.511l-8.294-20.939c-7.748 3.134-15.09 7.323-21.747 12.504-.414.322-.811.66-1.218.989l8.945 10.954zm23.435-3.951a66.09 66.09 0 0 1 11.189-3.24l-4.195-22.158a91.065 91.065 0 0 0-15.294 4.446l8.3 20.952zm-.68 1.555a66.668 66.668 0 0 0-8.89 4.425l11.048 18.291-.511.313c-3.739 2.281-7.09 5.024-9.963 8.154l-.406.446-10.948-10.075a59.778 59.778 0 0 0-12.177 20.783l-.195.573-11.475-3.898a75.136 75.136 0 0 0-2.355 8.953l-.117.593-13.87-2.714a87.77 87.77 0 0 0-.599 3.559l35.226 4.888-.083.599c-1.099 8.144-.223 16.47 2.535 24.075l.208.567-.36.129-14.491 5.239a66.989 66.989 0 0 0 4.134 9.03l18.622-10.497.293.532a46.064 46.064 0 0 0 7.835 10.226l.421.427-10.404 10.639a58.98 58.98 0 0 0 20.391 12.805l.568.213-.133.356-4.118 11.013a75.18 75.18 0 0 0 8.865 2.621l.587.134-.085.37-3.049 13.43c1.714.377 3.42.693 5.12.965l5.319-35.201.595.087c2.505.383 5.061.577 7.598.577 5.673 0 11.219-.942 16.485-2.799l.572-.203 5.187 14.948a66.418 66.418 0 0 0 9.067-4.037l-10.249-18.746.525-.29c3.833-2.128 7.304-4.729 10.317-7.729l.427-.427 10.5 10.54a59.567 59.567 0 0 0 13.057-20.237l.216-.562.355.138 10.945 4.253a79.231 79.231 0 0 0 2.755-8.835l.137-.581 13.75 3.302a92.918 92.918 0 0 0 1.801-10.94l-35.409-3.361.056-.6a50.474 50.474 0 0 0-3.573-23.943l-.236-.557.355-.146 14.261-5.863a66.97 66.97 0 0 0-4.52-8.848l-18.15 11.288-.317-.515a46.837 46.837 0 0 0-8.257-9.876l-.446-.402 9.931-11.079a59.538 59.538 0 0 0-20.936-11.905l-.576-.184.119-.364 3.638-11.175a79.619 79.619 0 0 0-8.976-2.261l-.591-.109 2.542-13.912a86.467 86.467 0 0 0-5.155-.747l-3.796 35.411-.602-.067a48.67 48.67 0 0 0-5.408-.301 49.963 49.963 0 0 0-18.553 3.573l-.56.223-.14-.354-5.684-14.348zm76.916 65.565c-.009.135-.021.272-.032.408l18.56 1.762 15.659 1.486c.353-3.95.435-7.851.233-11.676l-.026-.605 3.963-.193a89.69 89.69 0 0 0-1.538-12.271l-23.288 4.719-.12-.593a66.355 66.355 0 0 0-3.437-11.53l-13.498 5.549a51.79 51.79 0 0 1 3.524 22.944zm35.647-7.478c.149 3.3.1 6.649-.147 9.961-.032.426-.082.858-.121 1.286l2.781.264c.341-3.908.427-7.797.263-11.646l-2.776.135zm-.381 12.448a94.178 94.178 0 0 1-1.824 11.109l2.69.647a90.996 90.996 0 0 0 1.912-11.492l-2.778-.264zm-15.872 8.977a79.834 79.834 0 0 1-2.653 8.398l15.816 6.146a92.245 92.245 0 0 0 3.289-10.593l-16.452-3.951zm8.519 27.288l9.029 5.17a98.489 98.489 0 0 0 5.992-12.586l-9.703-3.771a90.68 90.68 0 0 1-5.318 11.187zm4.194-11.624l-15.792-6.138a70.328 70.328 0 0 1-4.16 8.743c1.591.909 8.528 4.88 14.71 8.419a89.27 89.27 0 0 0 5.242-11.024zm-21.593 3.053l.301-.522a68.497 68.497 0 0 0 4.383-9.103l-10.193-3.961a60.768 60.768 0 0 1-13.106 20.092l3.721 3.736c.128-.129.26-.252.386-.383l.416-.437.275.266 16.789 16.28a88.88 88.88 0 0 0 12.791-16.944l-15.763-9.024zm-22.239 18.209a68.174 68.174 0 0 1-7.105 4.579l3.45 6.309a77.526 77.526 0 0 0 7.95-5.14l-4.295-5.748zm5.262 5.025a75.733 75.733 0 0 0 7.164-6.181l-5.088-5.109a67.676 67.676 0 0 1-6.379 5.531l4.303 5.759zm-5.981-5.988l-3.878-5.19.481-.365a60.024 60.024 0 0 0 6.039-5.181l-9.659-9.695a48.144 48.144 0 0 1-9.628 7.211l9.683 17.709a67.125 67.125 0 0 0 6.962-4.489zm-2.197-4.957l3.157 4.224a66.682 66.682 0 0 0 6.248-5.42 9661.75 9661.75 0 0 0-3.72-3.734 61.264 61.264 0 0 1-5.685 4.93zm19.022 23.524c-.305.237-.621.458-.928.691a207110.34 207110.34 0 0 1 16.06 21.496c4.68-3.531 9.095-7.458 13.214-11.69l-19.209-18.628a93.374 93.374 0 0 1-9.137 8.131zm-.742-.956a91.885 91.885 0 0 0 9.011-8.017l-14.574-14.133 4.339 4.356-.426.427a76.986 76.986 0 0 1-7.725 6.717l8.465 11.329c.302-.229.611-.446.91-.679zm-10.342-9.927a78.718 78.718 0 0 1-8.621 5.524l-.528.297-4.041-7.391a67.818 67.818 0 0 1-9.25 4.116l7.383 21.274a91.163 91.163 0 0 0 23.521-12.493l-8.464-11.327zm-23.58 2.94a65.918 65.918 0 0 1-11.313 2.745l3.228 22.325a90.686 90.686 0 0 0 15.471-3.786l-7.386-21.284zm24.965-104.258l4.05-3.396a65.125 65.125 0 0 0-5.76-5.93l-3.511 3.918a59.82 59.82 0 0 1 5.221 5.408zm-6.02-4.517l-9.138 10.196a47.965 47.965 0 0 1 7.705 9.214c1.259-.783 6.015-3.739 11.011-6.847l6.131-3.812a66.556 66.556 0 0 0-4.858-6.713l-4.977 4.173-.384-.464a58.737 58.737 0 0 0-5.49-5.747zm10.99.349l5.497-4.61a77.353 77.353 0 0 0-6.557-6.818l-4.817 5.374a66.495 66.495 0 0 1 5.877 6.054zm.784.915a67.63 67.63 0 0 1 4.955 6.853l6.094-3.79a75.597 75.597 0 0 0-5.562-7.665l-5.487 4.602zm-43.382-46.816a89.347 89.347 0 0 0-8.935-.458c-.899 0-1.797.03-2.695.058l.1 2.763a81.596 81.596 0 0 1 11.234.399l.296-2.762zm-8.934-1.665c3.021 0 6.046.161 9.062.464l1.034-9.642a98.506 98.506 0 0 0-10.218-.532c-.992 0-1.978.04-2.966.069l.349 9.699c.912-.028 1.825-.058 2.739-.058zm9.836 4.556c1.745.202 3.494.457 5.242.766l.502-2.747a90.422 90.422 0 0 0-5.448-.786l-.296 2.767zm16.433 8.668l-2.859 8.782a69.026 69.026 0 0 1 8.959 3.678l3.673-7.354 3.899-7.806a89.723 89.723 0 0 0-11.284-4.635l-2.388 7.335zm6.64 14.076l-.542-.275a67.578 67.578 0 0 0-9.329-3.878l-3.388 10.408a60.802 60.802 0 0 1 20.793 11.964l3.511-3.916c-.136-.118-.265-.243-.402-.36l-.461-.394 15.563-17.979a89.718 89.718 0 0 0-17.636-11.804l-8.109 16.234zm13.369 11.71l4.112-4.587.449.409a78.294 78.294 0 0 1 7.119 7.345l10.846-9.095a90.674 90.674 0 0 0-9.243-9.417l-13.283 15.345zm12.454 4.09a76.876 76.876 0 0 1 5.983 8.314l.321.51-.324.203-6.812 4.236a68.205 68.205 0 0 1 4.609 9.027l20.846-8.571a91.217 91.217 0 0 0-13.775-22.816l-10.848 9.097zm4.234 23.408a67.376 67.376 0 0 1 3.38 11.156l22.111-4.478a90.587 90.587 0 0 0-4.637-15.253l-20.854 8.575zm26.673 6.438l9.513-1.927a99.862 99.862 0 0 0-5.231-17.24l-8.986 3.696a91.836 91.836 0 0 1 4.704 15.471zm11.552 14.371l-9.684.47c.167 3.906.08 7.851-.267 11.818l9.648.916c.046-.496.088-.991.124-1.483.29-3.899.347-7.815.179-11.721zm-.683 27.869a50091.96 50091.96 0 0 0 12.581 3.021 122.096 122.096 0 0 0 2.767-18.14c.335-4.521.401-9.05.195-13.47l-13.352.647-.309.015a101.64 101.64 0 0 1-.355 13.978l-.051.6-.382-.037-10.478-.994a92.02 92.02 0 0 1-1.94 11.659l.687.165 10.637 2.555v.001zm-1.464.889l-10.146-2.437a93.374 93.374 0 0 1-3.337 10.748l9.679 3.761a108.433 108.433 0 0 0 3.804-12.072zm11.003 19.124l-14.105-5.483a99.541 99.541 0 0 1-6.37 13.272l-.3.522-10.067-5.764a89.98 89.98 0 0 1-12.972 17.185l19.213 18.632c10.567-11.078 19.067-24.245 24.601-38.364zm-90.064 90.59c29.027-4.255 56.331-18.231 76.964-39.39l-10.177-9.869-1.294-1.255c-4.304 4.422-8.928 8.515-13.84 12.179l-.484.36-.227-.304-16.56-22.163a92.346 92.346 0 0 1-23.849 12.667l3.593 10.353-.568.202a99.821 99.821 0 0 1-18.289 4.524l4.731 32.696zm-4.904-33.893a98.493 98.493 0 0 0 17.494-4.276l-3.194-9.202a92.101 92.101 0 0 1-15.694 3.841l1.394 9.637zm-14.963 1.135c4.636 0 9.231-.334 13.771-.962l-1.394-9.634a90.002 90.002 0 0 1-12.488.892h-.005l-.015-.001-.074 9.701c.068 0 .137.004.205.004zm-.698-14.906l.607.004-.031 3.989h.007a88.8 88.8 0 0 0 12.319-.879l-3.403-23.528.602-.081a64.442 64.442 0 0 0 11.683-2.775l-4.789-13.803a50.716 50.716 0 0 1-16.312 2.667h-.001c-2.395 0-4.809-.168-7.18-.501l-5.141 34.027c3.934.575 7.822.874 11.639.88zm-.609 1.196a82.832 82.832 0 0 1-11.209-.888l-.417 2.758a90.05 90.05 0 0 0 11.605.909l.021-2.779zm-.03 3.987a91.26 91.26 0 0 1-11.776-.923l-1.447 9.584c4.336.637 8.75.974 13.149 1.036l.074-9.697zm-31.528 19.877c10.515 3.038 21.055 4.624 31.34 4.715l.101-13.196.003-.49a101.53 101.53 0 0 1-13.918-1.139l-.595-.09 1.629-10.783a91.128 91.128 0 0 1-5.494-1.038l-2.576 11.347-.588-.134a108.474 108.474 0 0 1-6.191-1.623l-3.711 12.431zm2.899-13.925l2.984-9.996a91.376 91.376 0 0 1-4.76-1.604l-3.652 9.768c1.786.654 3.592 1.272 5.428 1.832zm-2.907-12.023a90.954 90.954 0 0 1-11.238-5.187l-5.061 9.117a98.159 98.159 0 0 0 12.643 5.849l3.656-9.779zm-9.38 25.089l5.3-14.176a99.25 99.25 0 0 1-13.336-6.217l-.524-.297 5.647-10.171a90.362 90.362 0 0 1-17.348-12.74l-18.387 19.466c11.188 10.44 24.451 18.779 38.648 24.135zm-21.142-44.426a91.629 91.629 0 0 1-8.943-9.961l-21.268 16.33c3.578 4.647 7.551 9.02 11.827 13.094l18.384-19.463zm-70.493-44.578c4.7 29.136 19.004 56.285 40.319 76.523l10.959-11.603c-4.469-4.257-8.611-8.839-12.325-13.716l-.36-.483.297-.229 21.913-16.823a93.85 93.85 0 0 1-5.078-7.46 92.865 92.865 0 0 1-7.899-16.247l-10.267 3.712-.201-.572a100.862 100.862 0 0 1-4.74-18.243l-32.618 5.141zm21.946-53.058a118.048 118.048 0 0 0-4.024 22.878 114.89 114.89 0 0 0-.31 8.548l13.68-.065c.003-4.655.31-9.317.948-13.945l.082-.598 10.815 1.501c.187-1.283.388-2.565.629-3.845l-11.408-2.231.115-.592a106.26 106.26 0 0 1 1.932-8.089l-12.459-3.562zm13.619 3.893c-.68 2.434-1.281 4.9-1.787 7.397l10.241 2.004c.222-1.097.442-2.195.705-3.289.262-1.093.552-2.174.851-3.251l-10.01-2.861zm-13.622-11.229l5.846 1.986 8.485 2.883a101.922 101.922 0 0 1 5.787-13.533l.274-.536.338.176 9.983 5.15a89.775 89.775 0 0 1 12.202-17.743l-19.992-17.774c-10.068 11.513-17.991 25.033-22.923 39.391zm86.056-94.397c-28.82 5.526-55.493 20.667-75.186 42.676l11.949 10.623c4.113-4.608 8.558-8.897 13.309-12.769l.467-.379 17.734 21.717c.415-.335.819-.679 1.241-1.008 6.747-5.25 14.19-9.496 22.043-12.671l-4.041-10.2.562-.219a101.439 101.439 0 0 1 18.067-5.326l-6.145-32.444zm6.371 33.641a100.367 100.367 0 0 0-17.286 5.032l3.588 9.06a92.156 92.156 0 0 1 15.513-4.51l-1.815-9.582zm15.108-1.786a99.858 99.858 0 0 0-13.923 1.557l1.815 9.585a90.563 90.563 0 0 1 12.457-1.438l-.349-9.704zm.392 10.911a89.332 89.332 0 0 0-12.275 1.417l4.421 23.343-.597.111a64.893 64.893 0 0 0-11.56 3.287l5.381 13.579a51.192 51.192 0 0 1 18.436-3.438c1.648 0 3.307.082 4.937.245l2.193-20.457 1.475-13.762a82.43 82.43 0 0 0-11.661-.372l-.606.027-.144-3.98zM568.381 75.3c-10.471-2.585-21.087-3.725-31.533-3.368l.492 13.678c1.001-.029 2-.071 3.005-.071 3.657 0 7.343.204 10.953.604l.596.067-1.162 10.84c1.851.209 3.698.474 5.536.798l2.094-11.459.595.113c2.115.398 4.193.864 6.247 1.374l3.177-12.576zm-2.301 14.035l-2.551 10.095c1.63.424 3.24.887 4.827 1.394l3.22-9.892a107.011 107.011 0 0 0-5.496-1.597zm3.421 11.867a91.005 91.005 0 0 1 11.45 4.703c2.182-4.367 4.09-8.189 4.657-9.326a97.635 97.635 0 0 0-12.882-5.284l-3.225 9.907zm8.285-25.454l-4.685 14.396a98.465 98.465 0 0 1 13.589 5.625l.537.27-5.198 10.408a90.902 90.902 0 0 1 17.886 11.972l17.528-20.248c-11.607-9.915-25.218-17.666-39.657-22.423zm23.036 43.466a91.908 91.908 0 0 1 9.377 9.554l2.499-2.096 18.051-15.137c-3.773-4.488-7.935-8.687-12.394-12.575l-17.533 20.254zm28.771-33.233l-10.446 12.065c4.658 4.063 8.998 8.464 12.917 13.176l.38.463-21.469 18.004a92.462 92.462 0 0 1 13.966 23.132l10.118-4.159.227.56a101.07 101.07 0 0 1 5.531 18.016l6.575-1.331a92123.53 92123.53 0 0 1 25.779-5.223c-5.943-28.903-21.404-55.407-43.578-74.703zM212.081 257.423l.732-.204c.184.662.326 1.346.423 2.031l-.752.107a15.327 15.327 0 0 0-.403-1.934zm-11.685-10.888l.15-.745c4.133.836 7.718 3.229 10.097 6.739l-.629.428c-2.266-3.346-5.682-5.625-9.618-6.422zm-6.857.177l-.188-.737a16.117 16.117 0 0 1 5.143-.463l-.056.758a15.434 15.434 0 0 0-4.899.442zm-7.194 26.494l.522-.552a15.327 15.327 0 0 0 4.072 2.76l-.318.689a16.048 16.048 0 0 1-4.276-2.897zm-5.034-11.679c0-.479.022-.967.066-1.449l.755.067a15.336 15.336 0 0 0 3.389 11.061l-.588.481a16.093 16.093 0 0 1-3.622-10.16zm1.349-6.456c.277-.63.6-1.25.957-1.842l.651.394a15.11 15.11 0 0 0-.911 1.754l-.697-.306zm-78.848-14.428h9.386v9.392h-9.386v-9.392zm.76 8.632h7.866v-7.872h-7.866v7.872zm-14.898-8.632h9.386v9.392h-9.386v-9.392zm.76 8.632H98.3v-7.872h-7.866v7.872zm-14.899-8.632h9.386v9.392h-9.386v-9.392zm.76 8.632h7.866v-7.872h-7.866v7.872zm-14.898-8.632h9.386v9.392h-9.386v-9.392zm.76 8.632h7.866v-7.872h-7.866v7.872zm3.216-184.406a23.006 23.006 0 0 0 3.036-11.431h.759c0 4.148-1.085 8.231-3.136 11.809l-.659-.378zm-1.019-24.478l.625-.432c.387.561.755 1.148 1.095 1.744l-.661.376a23.217 23.217 0 0 0-1.059-1.688zm-3.31 29.917c.49-.455.962-.932 1.403-1.417l.561.511c-.455.501-.942.993-1.448 1.463l-.516-.557zM50.681 31.05l.172-.741a23.725 23.725 0 0 1 10.77 5.759l-.519.557a22.942 22.942 0 0 0-10.423-5.575zm-6.925-.541l-.056-.758a24.425 24.425 0 0 1 5.131.177l-.107.753a23.558 23.558 0 0 0-4.968-.172zm7.494 22.929a5.815 5.815 0 0 1-5.813 5.817 5.816 5.816 0 0 1-5.813-5.817 5.816 5.816 0 0 1 5.813-5.818 5.815 5.815 0 0 1 5.813 5.818zm-7.633 23.681a23.685 23.685 0 0 1-11.524-4.037l.428-.628a22.932 22.932 0 0 0 11.154 3.907l-.058.758zM30.511 34.973a23.728 23.728 0 0 1 1.654-1.227l.425.63c-.547.37-1.086.77-1.6 1.187l-.479-.59zM26.838 68.19l.596-.473c.411.519.85 1.027 1.304 1.508l-.552.522a24.693 24.693 0 0 1-1.348-1.557zm-4.857-18.383a23.708 23.708 0 0 1 4.91-11.189l.593.476a22.934 22.934 0 0 0-4.751 10.828l-.752-.115zm.485 3.631c.002 1.155.088 2.311.256 3.436l-.752.112a24.421 24.421 0 0 1-.213-5.133l.758.049a23.645 23.645 0 0 0-.049 1.536zm28.305 23.147a23.807 23.807 0 0 1-5.098.602l-.008-.76a23.005 23.005 0 0 0 4.936-.583l.17.741zm153.878 199.246c-.61.312-1.25.589-1.902.823l-.257-.715a15.638 15.638 0 0 0 1.813-.785l.346.677zm636.272 51.195l-6.077 10.534-.659-.38 6.077-10.534.659.38zm-7.254 16.679l-1.013-1.755.659-.381 1.013 1.756-.659.38zm9.268 14.543l-.659.38-2.532-4.389.658-.38 2.533 4.389zm7.089 12.29l-.658.38-6.077-10.534.658-.38 6.077 10.534zm.873-62.326l.659.38-1.013 1.756-.659-.38 1.013-1.756zm2.672 68.47l-.659.38-1.012-1.755.658-.38 1.013 1.755zm1.992-76.556h8.328v.761H856l-1.912 3.316-.659-.381 2.132-3.696zm12.356 81.531h-5.064v-.76h5.064v.76zm14.18 0h-12.154v-.76h12.154v.76zm-16.182-81.531h5.064v.761h-5.064v-.761zm-24.64 24.764l2.532-4.389.659.38-2.532 4.389-.659-.38zm47.911 56.767h-2.025v-.76h2.025v.76zm18.602-72.532l-.659.381-4.972-8.619h-11.934v-.761h12.373l5.192 8.999zm-3.727 68.472l.659.38-2.124 3.68h-1.256v-.76h.817l1.904-3.3zm7.749-11.91l-6.077 10.534-.659-.38 6.077-10.534.659.38zm3.545-6.144l-1.013 1.755-.659-.381 1.013-1.754.659.38zm3.068-31.983l-.659.38-1.013-1.756.659-.379 1.013 1.755zm7.69 13.331l-1.136 1.972-.659-.38.919-1.592-4.941-8.562.659-.38 5.158 8.942zm-2.149 3.728l-2.532 4.39-.659-.381 2.532-4.389.659.38zm-15.822-33.358l.659-.38 2.532 4.39-.659.38-2.532-4.39zm-25.009-11.135h2.026v.761h-2.026v-.761zm-470.008 51.521l-3.375-5.852 3.375-5.851h6.751l3.375 5.851-3.375 5.852h-6.751zm662.991-268.975a2.779 2.779 0 0 1-2.748-2.409h-45.522l-24.44 24.458h-28.36l-5.868 3.391v-3.391h-5.008l-5.868 3.391v-3.391h-5.008l-5.868 3.391v-3.391h-5.007l-5.869 3.391v-3.391h-5.007l-5.868 3.391v-3.391h-74.516l.648-.649 24.965-24.985c-5.094-5.197-8.244-12.309-8.244-20.146 0-15.873 12.904-28.786 28.764-28.786s28.763 12.913 28.763 28.786c0 15.872-12.903 28.786-28.763 28.786-7.756 0-14.8-3.093-19.978-8.106l-24.321 24.34h72.682v-3.39l5.867 3.39h5.008v-3.39l5.868 3.39h5.008v-3.39l5.867 3.39h5.009v-3.39l5.867 3.39h5.009v-3.39l5.867 3.39h28.047l24.439-24.458h45.836a2.78 2.78 0 0 1 2.749-2.41 2.789 2.789 0 0 1 0 5.579zm-193.48-9.454a20.643 20.643 0 0 1-1.994-2.394l.617-.441a20.102 20.102 0 0 0 1.914 2.298l11.266-11.275a3.76 3.76 0 0 1-.933-2.465 3.787 3.787 0 0 1 3.785-3.788 3.787 3.787 0 0 1 3.786 3.788 3.787 3.787 0 0 1-3.786 3.788 3.746 3.746 0 0 1-2.3-.799l-11.268 11.277a19.583 19.583 0 0 0 6.889 4.277l-.257.715a20.333 20.333 0 0 1-7.169-4.455l-5.336 5.34c5.041 4.874 11.895 7.883 19.442 7.883 15.441 0 28.003-12.573 28.003-28.026s-12.562-28.026-28.003-28.026c-15.442 0-28.004 12.573-28.004 28.026 0 7.627 3.064 14.55 8.021 19.608l5.327-5.331zm-3.727-7.2l-.708.273c-.248-.641-.463-1.3-.643-1.961l.734-.2c.172.636.38 1.271.617 1.888zM878 52.133a20.317 20.317 0 0 1 2.312-4.602l.629.426a19.586 19.586 0 0 0-2.225 4.43l-.716-.254zm13.774-12.904l.204.731a19.619 19.619 0 0 0-9.846 6.403l-.583-.485a20.35 20.35 0 0 1 10.225-6.649zm7.148-.691l-.059.759a19.909 19.909 0 0 0-1.571-.062l-.415.004-.015-.76.43-.004c.547 0 1.096.022 1.63.063zM892.327 78.8l.184-.738a19.78 19.78 0 0 0 4.781.585l.141-.001v.761h-.133a20.55 20.55 0 0 1-4.973-.607zm18.344-4.383a20.58 20.58 0 0 1-1.624 1.271l-.437-.621a20.1 20.1 0 0 0 1.565-1.224l.496.574zm-.438-31.323a20.642 20.642 0 0 1 3.543 3.733l-.611.452a19.845 19.845 0 0 0-3.413-3.596l.481-.589zm4.026 5.842l.655-.386a20.47 20.47 0 0 1 2.827 10.391c0 4.189-1.256 8.215-3.631 11.646l-.625-.433a19.596 19.596 0 0 0 3.497-11.213c0-3.526-.942-6.986-2.723-10.005zM775.14 62.729l6.526 3.771-6.526 3.77v-7.541zm-10.876 0l6.526 3.771-6.526 3.77v-7.541zm-10.875 0l6.525 3.771-6.525 3.77v-7.541zm-10.876 0l6.525 3.771-6.525 3.77v-7.541zm-26.045-16.44a4.124 4.124 0 0 1-4.122-4.126c0-1.002.371-1.908.964-2.622l-19.927-19.944a4.083 4.083 0 0 1-2.62.966 4.125 4.125 0 0 1-4.123-4.126 4.124 4.124 0 0 1 8.245 0 4.09 4.09 0 0 1-.964 2.622l19.927 19.943a4.082 4.082 0 0 1 2.62-.965 4.124 4.124 0 0 1 4.123 4.126 4.124 4.124 0 0 1-4.123 4.126zm-25.705-4.942a4.124 4.124 0 0 1 4.122 4.126 4.124 4.124 0 1 1-8.245 0 4.09 4.09 0 0 1 .964-2.622l-26.012-26.034H603.02v-.761h58.887l.111.111 26.124 26.146a4.078 4.078 0 0 1 2.621-.966zM603.02 12.666v7.541l-6.525-3.77 6.525-3.771zm-10.876 0v7.541l-6.525-3.77 6.525-3.771zm-10.875 0v7.541l-6.526-3.77 6.526-3.771zm-41.768 6.376h.76v3.142h-.76v-3.142zm0-8.796h.76v1.256h-.76v-1.256zm0-8.843c-1.914.004-3.824.037-5.685.097l-.024-.76c1.992-.064 4.04-.097 6.089-.097h.38v6.462h-.76V1.403zm-12.481-.322c1.592-.109 3.19-.198 4.796-.267l.031.76c-1.597.069-3.189.156-4.776.265l-.051-.758zm-13.375 1.395c.634-.089 1.269-.176 1.905-.258l.097.754c-.632.082-1.265.168-1.897.256l-.105-.752zm-16.056 2.989a186.333 186.333 0 0 1 11.307-2.257l.124.75a187.69 187.69 0 0 0-11.259 2.247l-.172-.74zm-6.524 1.639a187.57 187.57 0 0 1 4.654-1.196l.18.739c-1.554.378-3.099.776-4.636 1.191l-.198-.734zm-12.846 3.988c.604-.213 1.211-.422 1.817-.628l.243.721c-.604.204-1.206.413-1.809.623l-.251-.716zm-15.134 6.067a184.864 184.864 0 0 1 10.635-4.425l.269.711a184.051 184.051 0 0 0-10.591 4.407l-.313-.693zm-6.061 2.88a186.579 186.579 0 0 1 4.32-2.081l.321.689a189.24 189.24 0 0 0-4.303 2.072l-.338-.68zm-11.81 6.417c.55-.325 1.102-.647 1.656-.967l.38.657c-.552.32-1.102.64-1.65.965l-.386-.655zm-13.674 8.913a187.425 187.425 0 0 1 9.574-6.418l.404.644a188.388 188.388 0 0 0-9.537 6.392l-.441-.618zm-5.397 4.01a193.143 193.143 0 0 1 3.839-2.885l.449.614a178.948 178.948 0 0 0-3.823 2.873l-.465-.602zm-10.345 8.595c.477-.426.957-.851 1.441-1.272l.498.572c-.479.42-.957.842-1.433 1.268l-.506-.568zm-11.699 11.404a188.97 188.97 0 0 1 8.156-8.157l.52.555a187.422 187.422 0 0 0-8.123 8.123l-.553-.521zm-4.522 4.984a187.482 187.482 0 0 1 3.213-3.577l.558.515a196.236 196.236 0 0 0-3.199 3.563l-.572-.501zm-8.493 10.443c.387-.512.776-1.021 1.168-1.529l.602.465c-.391.506-.78 1.014-1.164 1.524l-.606-.46zm-9.276 13.463a187.946 187.946 0 0 1 6.425-9.587l.617.443a187.298 187.298 0 0 0-6.399 9.548l-.643-.404zm-3.472 5.776a185.43 185.43 0 0 1 2.46-4.139l.647.398a185.427 185.427 0 0 0-2.449 4.122l-.658-.381zm-6.307 11.904c.28-.578.564-1.156.849-1.731l.681.339c-.285.573-.567 1.148-.847 1.724l-.683-.332zm-6.475 15.029c1.36-3.583 2.85-7.171 4.432-10.664l.692.313a185.112 185.112 0 0 0-4.414 10.62l-.71-.269zm-1.56 6.598l-.72-.244a181.324 181.324 0 0 1 1.606-4.548l.712.264a188.002 188.002 0 0 0-1.598 4.528zm-3.84 12.869l-.735-.19c.162-.625.326-1.247.494-1.869l.734.2c-.168.618-.332 1.238-.493 1.859zm1.5-44.648a4.124 4.124 0 0 1-4.122-4.126c0-1.002.371-1.908.964-2.622l-21.517-21.534a4.08 4.08 0 0 1-2.62.965 4.124 4.124 0 0 1-4.122-4.126 4.123 4.123 0 1 1 8.245 0 4.088 4.088 0 0 1-.965 2.623l21.517 21.533a4.08 4.08 0 0 1 2.62-.965 4.125 4.125 0 0 1 4.123 4.126 4.124 4.124 0 0 1-4.123 4.126zm-7.756 78.591l.758.051c-.043.637-.083 1.274-.12 1.912l-.757-.043c.036-.64.076-1.281.119-1.92zm-.053 15.856c-2.147 0-3.89-1.648-4.084-3.745h-8.07v-.761h8.07a4.098 4.098 0 0 1 3.788-3.716c.008-.301.004-.609.014-.909l.76.023c-.01.299-.007.604-.015.904 2.056.232 3.66 1.958 3.66 4.078a4.124 4.124 0 0 1-4.123 4.126zm1.188-27.342c.208-1.593.434-3.179.682-4.761l.75.118a180.287 180.287 0 0 0-.678 4.742l-.754-.099zm3.981-17.807a185.787 185.787 0 0 0-2.242 11.269l-.75-.125c.63-3.773 1.388-7.58 2.252-11.316l.74.172zm-24.413 41.404v-.761h2.026v.761h-2.026zm-17.218 0v-.761h5.064v.761h-5.064zm-2.025 0h-12.154v-.761h12.154v.761zm-19.244 0v-.761h2.026v.761h-2.026zm-17.218 0v-.761h5.064v.761h-5.064zm-14.18 0v-.761h12.154v.761h-12.154zm-7.09 0v-.761h2.026v.761h-2.026zM247.18 97.474h4.669v13.734h-4.669V97.474zm16.659 0v13.734h-4.669V97.474h4.669zm11.989 0v13.734h-4.669V97.474h4.669zm11.99 0v13.734h-4.669V97.474h4.669zm20.708 47.101l19.859 19.874a4.081 4.081 0 0 1 1.852-.458 4.124 4.124 0 0 1 4.122 4.126 4.125 4.125 0 0 1-4.122 4.126 4.125 4.125 0 0 1-4.123-4.126c0-1.328.638-2.496 1.611-3.251L308.1 145.224h-53.599c-.194 2.097-1.937 3.746-4.084 3.746a4.124 4.124 0 0 1-4.123-4.126 4.124 4.124 0 0 1 4.123-4.126c2.147 0 3.89 1.648 4.084 3.745h53.913l.112.112zm41.197-35.86a4.124 4.124 0 0 1 4.122 4.126 4.124 4.124 0 0 1-4.122 4.126 4.124 4.124 0 0 1-4.123-4.126c0-1.097.435-2.087 1.132-2.826l-45.244-45.282h-47.623v3.39l-6.525-3.77 6.525-3.77v3.39h47.937l.112.111 45.392 45.428a4.092 4.092 0 0 1 2.417-.797zM242.989 60.583v7.54l-6.525-3.77 6.525-3.77zm-10.875 0v7.54l-6.526-3.77 6.526-3.77zM112.725 303.136c.197-2.43 2.213-4.353 4.691-4.353a4.738 4.738 0 0 1 4.731 4.734 4.738 4.738 0 0 1-4.731 4.733c-2.478 0-4.494-1.923-4.691-4.353H61.564l-13.899 13.911c.355.468.573 1.045.573 1.677a2.788 2.788 0 1 1-2.787-2.789 2.76 2.76 0 0 1 1.676.573l13.741-13.752-13.383-13.395a2.76 2.76 0 0 1-1.676.575 2.789 2.789 0 0 1-2.788-2.79 2.789 2.789 0 0 1 5.575 0c0 .633-.218 1.209-.573 1.677l13.54 13.552h51.162zm.759.761c.195 2.01 1.873 3.593 3.932 3.593a3.977 3.977 0 0 0 3.971-3.973 3.976 3.976 0 0 0-3.971-3.973c-2.059 0-3.737 1.582-3.932 3.592h.058v.761h-.058zm-97.756 98.345c.787 0 1.518.211 2.171.553l30.116-30.139H218.33l5.985-3.458v3.458h4.891l5.985-3.458v3.458h4.891l5.985-3.458v3.458h4.891l5.984-3.458v3.458h4.891l5.985-3.458v3.458h53.362l27.22-27.241h24.916v.379l3.375-5.85h6.751l3.376 5.851-3.376 5.852h-6.751l-3.375-5.851v.379h-24.601l-27.22 27.242h-53.677v3.322l-5.75-3.322h-5.126v3.322l-5.75-3.322h-5.125v3.322l-5.751-3.322h-5.125v3.322l-5.751-3.322h-5.125v3.322l-5.75-3.322H48.329l-29.768 29.792c1.145.865 1.897 2.225 1.897 3.767a4.737 4.737 0 0 1-4.73 4.734 4.737 4.737 0 0 1-4.73-4.734 4.738 4.738 0 0 1 4.73-4.734zm0 8.708a3.977 3.977 0 0 0 3.97-3.974 3.977 3.977 0 0 0-3.97-3.974 3.977 3.977 0 0 0-3.97 3.974 3.977 3.977 0 0 0 3.97 3.974zm29.709-23.692a2.78 2.78 0 0 1 2.749 2.41h47.993a2.78 2.78 0 0 1 2.749-2.41 2.78 2.78 0 0 1 2.749 2.41h3.021a2.78 2.78 0 0 1 2.749-2.41 2.78 2.78 0 0 1 2.749 2.41h3.384a2.78 2.78 0 0 1 2.749-2.41 2.78 2.78 0 0 1 2.749 2.41h3.384a2.78 2.78 0 0 1 2.749-2.41 2.78 2.78 0 0 1 2.749 2.41h3.746a2.78 2.78 0 0 1 2.749-2.41 2.78 2.78 0 0 1 2.749 2.41h182.704c.197-2.431 2.214-4.354 4.693-4.354a4.736 4.736 0 0 1 4.729 4.734 4.737 4.737 0 0 1-4.729 4.734c-2.479 0-4.495-1.925-4.693-4.354H137.204a2.779 2.779 0 0 1-2.749 2.41 2.78 2.78 0 0 1-2.749-2.41h-3.746a2.78 2.78 0 0 1-2.749 2.41 2.78 2.78 0 0 1-2.749-2.41h-3.384a2.78 2.78 0 0 1-2.749 2.41 2.78 2.78 0 0 1-2.749-2.41h-3.384a2.78 2.78 0 0 1-2.749 2.41 2.78 2.78 0 0 1-2.749-2.41h-3.021a2.78 2.78 0 0 1-2.749 2.41 2.779 2.779 0 0 1-2.749-2.41H48.186a2.779 2.779 0 0 1-2.749 2.41 2.79 2.79 0 0 1-2.787-2.79 2.789 2.789 0 0 1 2.787-2.79zm279.164 6.764a3.977 3.977 0 0 0 3.97-3.974 3.977 3.977 0 0 0-3.97-3.974 3.978 3.978 0 0 0-3.972 3.974 3.978 3.978 0 0 0 3.972 3.974zm11.933-8.708a4.738 4.738 0 0 1 4.731 4.734 4.739 4.739 0 0 1-4.731 4.734 4.738 4.738 0 0 1-4.73-4.734 4.737 4.737 0 0 1 4.73-4.734zm0 8.708a3.977 3.977 0 0 0 3.971-3.974 3.977 3.977 0 0 0-3.971-3.974 3.977 3.977 0 0 0-3.97 3.974 3.977 3.977 0 0 0 3.97 3.974zm11.955-8.708a4.737 4.737 0 0 1 4.73 4.734 4.738 4.738 0 0 1-4.73 4.734 4.739 4.739 0 0 1-4.731-4.734 4.738 4.738 0 0 1 4.731-4.734zm0 8.708a3.977 3.977 0 0 0 3.97-3.974 3.977 3.977 0 0 0-3.97-3.974 3.977 3.977 0 0 0-3.971 3.974 3.977 3.977 0 0 0 3.971 3.974zm11.885-8.708a4.738 4.738 0 0 1 4.731 4.734 4.739 4.739 0 0 1-4.731 4.734 4.738 4.738 0 0 1-4.73-4.734 4.737 4.737 0 0 1 4.73-4.734zm0 8.708a3.977 3.977 0 0 0 3.971-3.974 3.977 3.977 0 0 0-3.971-3.974 3.977 3.977 0 0 0-3.97 3.974 3.977 3.977 0 0 0 3.97 3.974zm41.013-54.078l3.376 5.851-3.376 5.852h-6.751l-3.375-5.852 3.375-5.851h6.751zm352.002 70.802v-7.541l6.525 3.771-6.525 3.77zm10.876 0v-7.541l6.525 3.771-6.525 3.77zm-47.05-29.273a4.736 4.736 0 0 1-4.729-4.734 4.737 4.737 0 0 1 4.729-4.734c2.417 0 4.394 1.831 4.675 4.175h51.607l13.751-13.763a2.764 2.764 0 0 1-.426-1.467 2.789 2.789 0 1 1 2.788 2.79 2.767 2.767 0 0 1-1.873-.736l-13.545 13.556 13.594 13.604a2.776 2.776 0 0 1 1.465-.425 2.789 2.789 0 0 1 0 5.579 2.788 2.788 0 0 1-2.787-2.789c0-.725.283-1.379.735-1.875l-13.703-13.714h-51.57c-.108 2.516-2.171 4.533-4.711 4.533zm0-8.708a3.977 3.977 0 0 0-3.97 3.974 3.977 3.977 0 0 0 3.97 3.974 3.978 3.978 0 0 0 3.972-3.974 3.978 3.978 0 0 0-3.972-3.974zm57.926 37.981v-7.541l6.525 3.771-6.525 3.77zm10.875 0v-7.541l6.526 3.771-6.526 3.77zm258.561-66.083v-7.542l6.525 3.771-6.525 3.771zm10.875 0v-7.542l6.526 3.771-6.526 3.771zm-43.176-12.089v-9.393h9.385v9.393h-9.385zm8.625-8.633h-7.866v7.872h7.866v-7.872zm-13.379 8.633h-9.385v-9.393h9.385v9.393zm-.76-8.633h-7.865v7.872h7.865v-7.872zm-22.764 8.633v-9.393h9.386v9.393h-9.386zm8.626-8.633h-7.866v7.872h7.866v-7.872zm-13.378 8.633h-9.386v-9.393h9.386v9.393zm-.76-8.633h-7.866v7.872h7.866v-7.872zm-31.06-13.767a2.789 2.789 0 0 1-2.787-2.79 2.789 2.789 0 0 1 2.787-2.79c.551 0 1.061.165 1.493.441l25.183-25.201a2.776 2.776 0 0 1-.765-1.91 2.789 2.789 0 1 1 5.575 0 2.79 2.79 0 0 1-2.788 2.79 2.755 2.755 0 0 1-1.422-.403l-25.204 25.223a2.77 2.77 0 0 1 .716 1.85 2.789 2.789 0 0 1-2.788 2.79zm58.61-55.751c-1.616 0-2.938-1.222-3.128-2.79H954l-.111-.11-17.139-17.155h-24.284a2.78 2.78 0 0 1-2.749 2.41 2.789 2.789 0 0 1-2.787-2.79 2.78 2.78 0 1 1 5.536-.38h24.598l.112.111 17.139 17.154h48.593c.19-1.567 1.512-2.789 3.128-2.789a3.17 3.17 0 0 1 0 6.339zm0-5.579a2.411 2.411 0 0 0-2.407 2.409c0 1.329 1.08 2.41 2.407 2.41a2.412 2.412 0 0 0 2.408-2.41 2.411 2.411 0 0 0-2.408-2.409zm0-12.288c-1.616 0-2.938-1.223-3.128-2.79H954l-.111-.111-17.139-17.154h-24.284a2.779 2.779 0 0 1-2.749 2.409 2.788 2.788 0 0 1-2.787-2.789 2.789 2.789 0 0 1 2.787-2.79 2.78 2.78 0 0 1 2.749 2.41h24.598l.112.111 17.139 17.154h48.593c.19-1.567 1.512-2.79 3.128-2.79a3.172 3.172 0 0 1 3.167 3.17c0 1.748-1.42 3.17-3.167 3.17zm0-5.579a2.411 2.411 0 0 0-2.407 2.409c0 1.329 1.08 2.41 2.407 2.41a2.412 2.412 0 0 0 2.408-2.41 2.411 2.411 0 0 0-2.408-2.409zm0-31.121a3.166 3.166 0 0 1-3.112-2.624H954l-.111-.111-17.139-17.154h-24.284a2.779 2.779 0 0 1-2.749 2.409 2.788 2.788 0 0 1-2.787-2.789 2.789 2.789 0 0 1 2.787-2.79 2.78 2.78 0 0 1 2.749 2.409h24.598l.112.111 17.139 17.154h48.576c.113-1.646 1.472-2.954 3.145-2.954a3.171 3.171 0 0 1 3.167 3.17 3.171 3.171 0 0 1-3.167 3.169zm0-5.579a2.411 2.411 0 0 0-2.407 2.41 2.411 2.411 0 0 0 2.407 2.409 2.411 2.411 0 0 0 2.408-2.409c0-1.329-1.08-2.41-2.408-2.41zm0 22.844c-1.616 0-2.938-1.223-3.128-2.79H954l-.111-.111-17.139-17.153h-24.284a2.78 2.78 0 0 1-2.749 2.409 2.789 2.789 0 0 1-2.787-2.79 2.789 2.789 0 0 1 2.787-2.79 2.78 2.78 0 0 1 2.749 2.411h24.598l.112.11 17.139 17.154h48.593c.19-1.568 1.512-2.79 3.128-2.79a3.172 3.172 0 0 1 3.167 3.17c0 1.748-1.42 3.17-3.167 3.17zm0-5.58a2.411 2.411 0 0 0-2.407 2.41 2.411 2.411 0 0 0 2.407 2.409 2.411 2.411 0 0 0 2.408-2.409c0-1.329-1.08-2.41-2.408-2.41zm-27.249 93.716a2.776 2.776 0 0 1 1.003 2.127 2.789 2.789 0 0 1-5.575 0 2.789 2.789 0 0 1 2.787-2.79c.403 0 .783.09 1.129.243l26.849-26.869h58.887v-3.391l6.525 3.771-6.525 3.77v-3.39h-58.572l-26.508 26.529zm87.541 39.406v-7.542l6.526 3.771-6.526 3.771z"/></svg>