<svg xmlns="http://www.w3.org/2000/svg" width="15.906" height="27.44" viewBox="0 0 15.906 27.44">
  <defs>
    <style>
      .cls-1 {
        fill: #1f5af4;
        fill-rule: evenodd;
      }
    </style>
  </defs>
  <path id="Shape_61_copy" data-name="Shape 61 copy" class="cls-1" d="M581.922,1007.43h-4.489a1.348,1.348,0,0,1-1.359-1.33v-9.908h-2.619a1.345,1.345,0,0,1-1.359-1.329v-4.244a1.346,1.346,0,0,1,1.359-1.331h2.619v-2.126a6.748,6.748,0,0,1,7.149-7.157l3.423,0A1.347,1.347,0,0,1,588,981.341v3.94a1.347,1.347,0,0,1-1.359,1.331h-2.3a1.334,1.334,0,0,0-.921.18,1.365,1.365,0,0,0-.138.815v1.68h3.19a1.41,1.41,0,0,1,.673.167,1.332,1.332,0,0,1,.7,1.164v4.244a1.346,1.346,0,0,1-1.36,1.329h-3.2v9.908A1.349,1.349,0,0,1,581.922,1007.43Zm-4.205-1.61h3.921V995.473a0.9,0.9,0,0,1,.908-0.888H586.2l0-3.69h-3.654a0.9,0.9,0,0,1-.908-0.888v-2.4a2.693,2.693,0,0,1,.55-1.879,2.822,2.822,0,0,1,2.151-.724h2.021v-3.386l-3.138,0c-3.395,0-5.5,2.126-5.5,5.549v2.845a0.9,0.9,0,0,1-.908.888h-3.07v3.69h3.07a0.9,0.9,0,0,1,.908.888v10.347Zm8.926-24.2h0Z" transform="translate(-572.094 -980)"/>
</svg>
