<svg xmlns="http://www.w3.org/2000/svg" width="26.97" height="18.567" viewBox="0 0 26.97 18.567">
  <defs>
    <style>
      .cls-1 {
        fill: #1f5af4;
        fill-rule: evenodd;
      }
    </style>
  </defs>
  <path id="Shape_5_copy_2" data-name="Shape 5 copy 2" class="cls-1" d="M1042.89,1001.09l-7.76-6.12,8.1-9.009a0.963,0.963,0,0,0-.15-1.426,1.167,1.167,0,0,0-1.55.133l-8.78,9.779a0.65,0.65,0,0,0-.12.157v-9.29a1.057,1.057,0,0,0-1.1-1.011h-1.39a1.016,1.016,0,1,0,0,2.024h0.3v12.58l-11.98-14.214a1.171,1.171,0,0,0-1.55-.145,0.962,0.962,0,0,0-.19,1.387l13.95,16.545a1.165,1.165,0,0,0,1.54.18,0.978,0.978,0,0,0,.42-0.8v-6.279a1.083,1.083,0,0,0,.25.281l8.59,6.768a1.151,1.151,0,0,0,1.54-.11h0.01a0.966,0.966,0,0,0-.12-1.43h-0.01Z" transform="translate(-1016.53 -984.313)"/>
</svg>
