<?xml version="1.0"?>
<svg xmlns="http://www.w3.org/2000/svg" viewBox="0 0 64 64" width="512" height="512"><title>house-home-cottage-Apartment-Building</title><g id="Fill_Outline" data-name="Fill Outline"><rect x="47" y="7" width="6" height="11" style="fill:#dfd9d3"/><rect x="45" y="3" width="10" height="4" transform="translate(100 10) rotate(-180)" style="fill:#4d4d4d"/><polygon points="57 61 7 61 7 20 32 6 57 20 57 61" style="fill:#dfd9d3"/><rect x="26" y="33" width="12" height="20" style="fill:#4d4d4d"/><rect x="29" y="42" width="2" height="2" style="fill:#b4b0aa"/><rect x="7.769" y="6.621" width="16.228" height="1.999" transform="translate(-1.673 9.084) rotate(-30.397)" style="fill:#dfd9d3"/><rect x="4.864" y="12.5" width="1.978" height="1.999" transform="translate(-6.026 4.817) rotate(-30.397)" style="fill:#dfd9d3"/><rect x="24" y="53" width="16" height="4" style="fill:#c7c2bc"/><rect x="14" y="57" width="36" height="4" style="fill:#b4b0aa"/><rect x="11" y="33" width="10" height="10" transform="translate(32 76) rotate(-180)" style="fill:#56a8c6"/><rect x="11" y="39" width="10" height="4" style="fill:#80c5d4"/><rect x="60" y="32" width="2" height="14" style="fill:#dfd9d3"/><rect x="43" y="33" width="10" height="10" transform="translate(96 76) rotate(-180)" style="fill:#56a8c6"/><rect x="43" y="39" width="10" height="4" style="fill:#80c5d4"/><path d="M32,17h0a5,5,0,0,1,5,5v5a0,0,0,0,1,0,0H27a0,0,0,0,1,0,0V22A5,5,0,0,1,32,17Z" style="fill:#56a8c6"/><path d="M33,17.1a5,5,0,0,0-2,0V21H27.1a4.988,4.988,0,0,0-.1,1v1h4v4h2V23h4V22a4.988,4.988,0,0,0-.1-1H33Z" style="fill:#80c5d4"/><path d="M48,61a3,3,0,1,1,1.116-5.78,2.975,2.975,0,0,1,4-2,2.992,2.992,0,1,1,5.664,1.9A2.993,2.993,0,0,1,58,61Z" style="fill:#8cc63f"/><path d="M16,61a3,3,0,1,0-1.116-5.78,2.975,2.975,0,0,0-4-2,2.992,2.992,0,1,0-5.664,1.9A2.993,2.993,0,0,0,6,61Z" style="fill:#8cc63f"/><polygon points="7 21.655 7 26.655 32 12 57 26.655 57 21.655 32 7 7 21.655" style="fill:#4d4d4d;opacity:0.16"/><polygon points="61 25 32 8 3 25 3 20 32 3 61 20 61 25" style="fill:#4d4d4d"/></g></svg>
