<svg xmlns="http://www.w3.org/2000/svg" width="30" height="30"><path d="M4.629 15.004a10.38 10.38 0 0 0 12.977 10.044 1.172 1.172 0 0 0-.588-2.27 8.03 8.03 0 1 1 .692-15.334 1.172 1.172 0 0 0 .791-2.207 10.378 10.378 0 0 0-13.872 9.767zM8.2 1.756a1.172 1.172 0 1 1-1.172 1.172A1.172 1.172 0 0 1 8.2 1.756zM2.94 18.864A12.69 12.69 0 0 1 5.451 6.689a1.172 1.172 0 1 0-1.767-1.54A15.03 15.03 0 0 0 .708 19.578a1.173 1.173 0 1 0 2.235-.711zM21.97 7.851a1.172 1.172 0 1 1-1.172 1.172 1.172 1.172 0 0 1 1.175-1.167zm3.634-3.459A14.9 14.9 0 0 0 14.997-.003a15.184 15.184 0 0 0-2.541.215 1.172 1.172 0 0 0 .394 2.311 12.82 12.82 0 0 1 2.147-.181 12.661 12.661 0 0 1 9.74 20.744l-1.625-1.625a10.3 10.3 0 0 0 2.256-6.46 10.5 10.5 0 0 0-.189-1.981 1.172 1.172 0 1 0-2.3.446 8.114 8.114 0 0 1 .146 1.535 7.983 7.983 0 0 1-1.582 4.789l-1.684-1.685a5.683 5.683 0 1 0-6.68 2.249 1.172 1.172 0 0 0 .791-2.207 3.342 3.342 0 1 1 4.168-1.763l-2.211-2.211a1.172 1.172 0 0 0-1.658 1.657l9.674 9.677a1.107 1.107 0 0 0 .1.11 1.163 1.163 0 0 0 .829.344h.014a1.168 1.168 0 0 0 .829-.343 1.2 1.2 0 0 0 .1-.122 15 15 0 0 0-.108-21.101zm-5.265 22.09a12.675 12.675 0 0 1-12.259-.877 1.172 1.172 0 1 0-1.283 1.962 15.019 15.019 0 0 0 14.533 1.039 1.172 1.172 0 1 0-.988-2.121zm-16.3-4.272a1.173 1.173 0 1 1-1.172 1.172 1.172 1.172 0 0 1 1.176-1.169z" fill="#fff" fill-rule="evenodd"/></svg>