<?xml version="1.0" encoding="utf-8"?>
<!-- Generator: Adobe Illustrator 19.0.1, SVG Export Plug-In . SVG Version: 6.00 Build 0)  -->
<svg version="1.1" id="Слой_1" xmlns="http://www.w3.org/2000/svg" xmlns:xlink="http://www.w3.org/1999/xlink" x="0px" y="0px"
	 viewBox="0 0 201.3 51.1" style="enable-background:new 0 0 201.3 51.1;" xml:space="preserve">
<style type="text/css">
	.st0{fill:#498B93;}
	.st1{fill:#66C3D0;}
	.st2{clip-path:url(#SVGID_2_);fill:url(#SVGID_3_);}
	.st3{fill-rule:evenodd;clip-rule:evenodd;fill:#C5C6C6;}
</style>
<path class="st0" d="M195,40.2v-0.4h-1.3c-0.7,0-1,0.3-1,0.8c0,0.5,0.4,0.8,1.1,0.8c0.4,0,0.7-0.1,0.9-0.3
	C194.9,40.8,195,40.6,195,40.2 M196.1,42.1H195v-0.5c-0.2,0.2-0.4,0.4-0.6,0.4c-0.2,0.1-0.5,0.1-0.8,0.1c-0.6,0-1.1-0.1-1.4-0.4
	c-0.3-0.3-0.5-0.7-0.5-1.2c0-0.5,0.2-0.9,0.5-1.2c0.3-0.3,0.8-0.4,1.4-0.4h1.5v-0.4c0-0.4-0.1-0.6-0.3-0.8c-0.2-0.2-0.5-0.2-0.9-0.2
	c-0.3,0-0.5,0-0.7,0.1c-0.1,0.1-0.3,0.2-0.4,0.4l-0.7-0.7c0.3-0.3,0.5-0.5,0.7-0.6c0.3-0.1,0.7-0.2,1.2-0.2c1.5,0,2.3,0.6,2.3,1.9
	V42.1z M186.8,36.7h3.7v4.5h0.8v2.4h-1.1v-1.4h-3.5v1.4h-1v-2.4h0.6c0.2-0.4,0.4-0.8,0.5-1.3c0.1-0.4,0.2-1.1,0.2-1.8V36.7z
	 M187.9,37.6v0.9c0,1-0.2,1.9-0.5,2.7h2.1v-3.5H187.9z M179.2,42.1h-1.3l2.2-2.9l-2-2.6h1.3l2,2.6v-2.6h1.1v2.6l2-2.6h1.3l-2,2.6
	l2.2,2.9h-1.3l-2.1-2.8v2.8h-1.1v-2.8L179.2,42.1z M176.9,38.9c-0.1-1-0.5-1.4-1.2-1.4c-0.4,0-0.7,0.1-0.9,0.4
	c-0.2,0.3-0.3,0.6-0.3,1H176.9z M178,39.7h-3.5c0,1,0.5,1.5,1.4,1.5c0.5,0,0.9-0.2,1.3-0.6l0.7,0.7c-0.3,0.3-0.6,0.5-0.9,0.7
	c-0.3,0.1-0.7,0.2-1.1,0.2c-0.8,0-1.4-0.2-1.9-0.7c-0.4-0.5-0.6-1.2-0.6-2.1c0-0.9,0.2-1.5,0.6-2c0.4-0.5,1-0.7,1.7-0.7
	c0.7,0,1.3,0.2,1.7,0.7c0.4,0.5,0.6,1.1,0.6,1.9V39.7z M168.4,36.7h3.7v4.5h0.8v2.4h-1.1v-1.4h-3.5v1.4h-1v-2.4h0.6
	c0.2-0.4,0.4-0.8,0.5-1.3c0.1-0.4,0.2-1.1,0.2-1.8V36.7z M169.4,37.6v0.9c0,1-0.2,1.9-0.5,2.7h2.1v-3.5H169.4z M165.8,39.4
	c0-0.7-0.1-1.2-0.3-1.5c-0.2-0.2-0.5-0.4-0.8-0.4c-0.4,0-0.6,0.1-0.8,0.4c-0.2,0.3-0.3,0.8-0.3,1.5c0,0.7,0.1,1.2,0.4,1.4
	c0.2,0.2,0.5,0.3,0.8,0.3c0.4,0,0.6-0.1,0.9-0.4C165.7,40.6,165.8,40.1,165.8,39.4z M166.9,39.4c0,0.6,0,1-0.1,1.3
	c-0.1,0.3-0.3,0.6-0.5,0.9c-0.4,0.4-1,0.6-1.6,0.6c-0.7,0-1.2-0.2-1.6-0.6c-0.2-0.2-0.4-0.5-0.5-0.9c-0.1-0.3-0.2-0.8-0.2-1.3
	c0-0.5,0.1-1,0.2-1.3c0.1-0.3,0.3-0.6,0.5-0.9c0.4-0.4,1-0.6,1.6-0.6c0.7,0,1.2,0.2,1.6,0.6c0.2,0.2,0.4,0.5,0.5,0.8
	C166.9,38.4,166.9,38.8,166.9,39.4z M161.9,43.5h-1.1v-1.4h-4.1v-5.5h1.1v4.5h2.2v-4.5h1.1v4.5h0.8V43.5z M154.6,38.9
	c-0.1-1-0.5-1.4-1.2-1.4c-0.4,0-0.7,0.1-0.9,0.4c-0.2,0.3-0.3,0.6-0.3,1H154.6z M155.7,39.7h-3.5c0,1,0.5,1.5,1.4,1.5
	c0.5,0,0.9-0.2,1.3-0.6l0.7,0.7c-0.3,0.3-0.6,0.5-0.9,0.7c-0.3,0.1-0.7,0.2-1.1,0.2c-0.8,0-1.4-0.2-1.9-0.7
	c-0.4-0.5-0.6-1.2-0.6-2.1c0-0.9,0.2-1.5,0.6-2c0.4-0.5,1-0.7,1.7-0.7c0.7,0,1.3,0.2,1.7,0.7c0.4,0.5,0.6,1.1,0.6,1.9V39.7z
	 M150,42.1h-1.1v-4.5h-2.2v4.5h-1.1v-5.5h4.4V42.1z M144.8,41.4c-0.3,0.3-0.5,0.5-0.8,0.6c-0.3,0.1-0.6,0.2-1,0.2
	c-0.8,0-1.4-0.2-1.8-0.7c-0.4-0.5-0.6-1.2-0.6-2.1c0-0.9,0.2-1.5,0.7-2c0.4-0.5,1-0.7,1.8-0.7c0.4,0,0.7,0.1,1,0.2
	c0.3,0.1,0.5,0.3,0.8,0.6l-0.7,0.7c-0.2-0.2-0.3-0.3-0.5-0.4c-0.2-0.1-0.3-0.1-0.6-0.1c-0.9,0-1.3,0.6-1.3,1.8
	c0,1.2,0.4,1.8,1.3,1.8c0.2,0,0.4,0,0.6-0.1c0.1-0.1,0.3-0.2,0.5-0.4L144.8,41.4z M131.2,42.1h-1.3l1.2-2.2
	c-0.4-0.1-0.6-0.3-0.8-0.6c-0.2-0.3-0.3-0.6-0.3-1c0-0.5,0.2-0.9,0.5-1.2c0.3-0.3,0.8-0.5,1.3-0.5h2.6v5.5h-1.1v-2h-1L131.2,42.1z
	 M133.2,39.2v-1.7h-1.3c-0.3,0-0.5,0.1-0.7,0.2c-0.2,0.2-0.2,0.4-0.2,0.6c0,0.3,0.1,0.5,0.2,0.6c0.2,0.1,0.4,0.2,0.7,0.2H133.2z
	 M128,40.2v-0.4h-1.3c-0.7,0-1,0.3-1,0.8c0,0.5,0.4,0.8,1.1,0.8c0.4,0,0.7-0.1,0.9-0.3C127.9,40.8,128,40.6,128,40.2z M129.1,42.1
	H128v-0.5c-0.2,0.2-0.4,0.4-0.6,0.4c-0.2,0.1-0.5,0.1-0.8,0.1c-0.6,0-1.1-0.1-1.4-0.4c-0.3-0.3-0.5-0.7-0.5-1.2
	c0-0.5,0.2-0.9,0.5-1.2c0.3-0.3,0.8-0.4,1.4-0.4h1.5v-0.4c0-0.4-0.1-0.6-0.3-0.8c-0.2-0.2-0.5-0.2-0.9-0.2c-0.3,0-0.5,0-0.7,0.1
	c-0.1,0.1-0.3,0.2-0.4,0.4l-0.7-0.7c0.3-0.3,0.5-0.5,0.7-0.6c0.3-0.1,0.7-0.2,1.2-0.2c1.5,0,2.3,0.6,2.3,1.9V42.1z M123.7,42.1h-1.1
	v-2.3h-2.2v2.3h-1.1v-5.5h1.1v2.2h2.2v-2.2h1.1V42.1z M117.2,41c0.2-0.1,0.2-0.3,0.2-0.6c0-0.3-0.1-0.4-0.2-0.6
	c-0.2-0.1-0.4-0.2-0.6-0.2h-1.3v1.6h1.3C116.8,41.2,117,41.2,117.2,41z M118,39.2c0.3,0.3,0.5,0.7,0.5,1.2c0,0.5-0.2,0.9-0.5,1.2
	c-0.3,0.3-0.8,0.5-1.3,0.5h-2.5v-5.5h1.1v2.1h1.4C117.2,38.7,117.7,38.9,118,39.2z M112.8,42.1h-1.1v-4.5h-1.6v1.6
	c0,0.6,0,1-0.1,1.4c-0.1,0.4-0.2,0.7-0.4,0.9c-0.2,0.2-0.3,0.4-0.5,0.5c-0.2,0.1-0.4,0.1-0.7,0.1h-0.5v-1h0.2c0.1,0,0.2,0,0.3,0
	c0.1,0,0.2-0.1,0.3-0.2c0.1-0.1,0.2-0.2,0.2-0.3c0.1-0.1,0.1-0.4,0.2-0.7c0-0.3,0.1-0.6,0.1-1v-2.3h3.7V42.1z M106.2,40.2v-0.4h-1.3
	c-0.7,0-1,0.3-1,0.8c0,0.5,0.4,0.8,1.1,0.8c0.4,0,0.7-0.1,0.9-0.3C106.1,40.8,106.2,40.6,106.2,40.2z M107.3,42.1h-1.1v-0.5
	c-0.2,0.2-0.4,0.4-0.6,0.4c-0.2,0.1-0.5,0.1-0.8,0.1c-0.6,0-1.1-0.1-1.4-0.4c-0.3-0.3-0.5-0.7-0.5-1.2c0-0.5,0.2-0.9,0.5-1.2
	c0.3-0.3,0.8-0.4,1.4-0.4h1.5v-0.4c0-0.4-0.1-0.6-0.3-0.8c-0.2-0.2-0.5-0.2-0.9-0.2c-0.3,0-0.5,0-0.7,0.1c-0.1,0.1-0.3,0.2-0.4,0.4
	l-0.7-0.7c0.3-0.3,0.5-0.5,0.7-0.6c0.3-0.1,0.7-0.2,1.2-0.2c1.5,0,2.3,0.6,2.3,1.9V42.1z M102,42.1h-1.1v-2.3h-2.2v2.3h-1.1v-5.5
	h1.1v2.2h2.2v-2.2h1.1V42.1z M95.4,39.4c0-0.7-0.1-1.2-0.3-1.5c-0.2-0.2-0.5-0.4-0.8-0.4c-0.4,0-0.6,0.1-0.8,0.4
	c-0.2,0.3-0.3,0.8-0.3,1.5c0,0.7,0.1,1.2,0.4,1.4c0.2,0.2,0.5,0.3,0.8,0.3c0.4,0,0.6-0.1,0.8-0.4C95.3,40.6,95.4,40.1,95.4,39.4z
	 M96.5,39.4c0,0.6,0,1-0.1,1.3c-0.1,0.3-0.3,0.6-0.5,0.9c-0.4,0.4-1,0.6-1.6,0.6c-0.7,0-1.2-0.2-1.6-0.6c-0.2-0.2-0.4-0.5-0.5-0.9
	C92,40.4,92,39.9,92,39.4c0-0.5,0.1-1,0.2-1.3c0.1-0.3,0.3-0.6,0.5-0.9c0.4-0.4,1-0.6,1.6-0.6c0.7,0,1.2,0.2,1.6,0.6
	c0.2,0.2,0.4,0.5,0.5,0.8C96.4,38.4,96.5,38.8,96.5,39.4z M90.9,42.1h-1.1v-3.8l-2.3,3.8h-1.1v-5.5h1.1v3.7l2.3-3.7h1.1V42.1z
	 M85.5,41.4c-0.3,0.3-0.5,0.5-0.8,0.6c-0.3,0.1-0.6,0.2-1,0.2c-0.8,0-1.4-0.2-1.8-0.7c-0.4-0.5-0.6-1.2-0.6-2.1c0-0.9,0.2-1.5,0.7-2
	c0.4-0.5,1-0.7,1.8-0.7c0.4,0,0.7,0.1,1,0.2c0.3,0.1,0.5,0.3,0.8,0.6l-0.7,0.7c-0.2-0.2-0.3-0.3-0.5-0.4c-0.2-0.1-0.3-0.1-0.6-0.1
	c-0.9,0-1.3,0.6-1.3,1.8c0,1.2,0.4,1.8,1.3,1.8c0.2,0,0.4,0,0.6-0.1c0.1-0.1,0.3-0.2,0.5-0.4L85.5,41.4z M80.8,41.4
	c-0.3,0.3-0.5,0.5-0.8,0.6c-0.3,0.1-0.6,0.2-1,0.2c-0.8,0-1.4-0.2-1.8-0.7c-0.4-0.5-0.6-1.2-0.6-2.1c0-0.9,0.2-1.5,0.7-2
	c0.4-0.5,1-0.7,1.8-0.7c0.4,0,0.7,0.1,1,0.2c0.3,0.1,0.5,0.3,0.8,0.6L80,38.1c-0.2-0.2-0.3-0.3-0.5-0.4c-0.2-0.1-0.3-0.1-0.6-0.1
	c-0.9,0-1.3,0.6-1.3,1.8c0,1.2,0.4,1.8,1.3,1.8c0.2,0,0.4,0,0.6-0.1c0.1-0.1,0.3-0.2,0.5-0.4L80.8,41.4z M74.7,38.9
	c-0.1-1-0.5-1.4-1.2-1.4c-0.4,0-0.7,0.1-0.9,0.4c-0.2,0.3-0.3,0.6-0.3,1H74.7z M75.8,39.7h-3.5c0,1,0.5,1.5,1.4,1.5
	c0.5,0,0.9-0.2,1.3-0.6l0.7,0.7c-0.3,0.3-0.6,0.5-0.9,0.7c-0.3,0.1-0.7,0.2-1.1,0.2c-0.8,0-1.4-0.2-1.9-0.7
	c-0.4-0.5-0.6-1.2-0.6-2.1c0-0.9,0.2-1.5,0.6-2c0.4-0.5,1-0.7,1.7-0.7c0.7,0,1.3,0.2,1.7,0.7c0.4,0.5,0.6,1.1,0.6,1.9V39.7z
	 M65,39.4c0,0.6,0.1,1,0.4,1.3c0.3,0.3,0.7,0.5,1.2,0.5v-3.6C65.5,37.6,65,38.2,65,39.4z M67.7,44.3h-1.1v-2.2c-0.9,0-1.5-0.3-2-0.8
	c-0.5-0.5-0.7-1.1-0.7-2c0-0.9,0.2-1.6,0.7-2c0.5-0.5,1.1-0.7,2-0.8v-2.1h1.1v2.1c0.9,0.1,1.5,0.3,2,0.8c0.5,0.5,0.7,1.1,0.7,2
	c0,0.9-0.2,1.6-0.7,2c-0.5,0.5-1.1,0.7-2,0.8V44.3z M69.3,39.4c0-1.2-0.5-1.8-1.6-1.8v3.6c0.5,0,0.9-0.2,1.2-0.5
	C69.2,40.4,69.3,40,69.3,39.4z M62.1,39.4c0-0.7-0.1-1.2-0.3-1.5c-0.2-0.2-0.5-0.4-0.8-0.4c-0.4,0-0.6,0.1-0.8,0.4
	c-0.2,0.3-0.3,0.8-0.3,1.5c0,0.7,0.1,1.2,0.4,1.4c0.2,0.2,0.5,0.3,0.8,0.3c0.4,0,0.6-0.1,0.8-0.4C61.9,40.6,62.1,40.1,62.1,39.4z
	 M63.1,39.4c0,0.6,0,1-0.1,1.3c-0.1,0.3-0.3,0.6-0.5,0.9c-0.4,0.4-1,0.6-1.6,0.6c-0.7,0-1.2-0.2-1.6-0.6c-0.2-0.2-0.4-0.5-0.5-0.9
	c-0.1-0.3-0.2-0.8-0.2-1.3c0-0.5,0.1-1,0.2-1.3c0.1-0.3,0.3-0.6,0.5-0.9c0.4-0.4,1-0.6,1.6-0.6c0.7,0,1.2,0.2,1.6,0.6
	c0.2,0.2,0.4,0.5,0.5,0.8C63.1,38.4,63.1,38.8,63.1,39.4z M56.4,40.8c0.2-0.3,0.3-0.7,0.3-1.4c0-0.7-0.1-1.1-0.3-1.4
	c-0.2-0.3-0.5-0.4-0.9-0.4c-0.4,0-0.8,0.2-0.9,0.5c-0.1,0.3-0.2,0.7-0.2,1.3c0,0.6,0.1,1.1,0.3,1.4c0.2,0.3,0.5,0.4,0.9,0.4
	C56,41.2,56.2,41.1,56.4,40.8z M57.8,39.4c0,1.1-0.2,1.9-0.6,2.3c-0.3,0.3-0.8,0.5-1.4,0.5c-0.3,0-0.6,0-0.8-0.1
	c-0.2-0.1-0.4-0.3-0.6-0.5v2.8h-1.1v-7.7h1.1v0.6c0.2-0.2,0.4-0.4,0.6-0.5c0.2-0.1,0.5-0.1,0.8-0.1c1,0,1.6,0.5,1.9,1.4
	C57.7,38.4,57.8,38.8,57.8,39.4z M52,42.1h-1.1v-4.5h-2.2v4.5h-1.1v-5.5H52V42.1z"/>
<path class="st0" d="M135.2,17.1c0.3,0,0.6-0.1,1-0.1c0.4,0,0.7-0.1,1-0.1c0.3,0,0.6,0,0.9,0.1c0.3,0,0.7,0.1,0.9,0.1l3.1,8.1
	l3.2-8.1c0.3,0,0.6-0.1,0.9-0.1c0.3,0,0.6-0.1,0.9-0.1c0.3,0,0.6,0,0.9,0.1c0.3,0,0.6,0.1,0.9,0.1l0.7,15.5c-0.2,0-0.5,0.1-0.8,0.1
	c-0.3,0-0.7,0.1-1.1,0.1c-0.5,0-1.1-0.1-1.8-0.2l-0.3-9l-2.4,5.9c-0.3,0-0.5,0.1-0.8,0.1c-0.3,0-0.5,0-0.7,0c-0.2,0-0.4,0-0.7,0
	c-0.2,0-0.5-0.1-0.7-0.1l-2.1-5.8l-0.2,8.9c-0.6,0.1-1.2,0.2-1.7,0.2c-0.5,0-1.1-0.1-1.8-0.2L135.2,17.1z M160.3,24.5
	c0,0.5-0.1,1.1-0.2,1.7h-4.2v3.1h5.4c0.1,0.6,0.2,1.2,0.2,1.6c0,0.5-0.1,1.1-0.2,1.7h-9.3V17.1h9.2c0.1,0.3,0.1,0.6,0.1,0.9
	c0,0.3,0,0.5,0,0.8c0,0.5-0.1,1-0.2,1.7h-5.3v2.4h4.2C160.2,23.5,160.3,24.1,160.3,24.5z M167.8,16.8c2.7,0,4.8,0.7,6.2,2
	c1.4,1.4,2.1,3.4,2.1,6.1c0,2.7-0.7,4.8-2.2,6c-1.4,1.3-3.6,1.9-6.4,1.9c-0.7,0-1.4,0-2.1-0.1c-0.7-0.1-1.3-0.1-2-0.2V17.1
	c0.2,0,0.5-0.1,0.8-0.1c0.3,0,0.7-0.1,1.1-0.1c0.4,0,0.8-0.1,1.2-0.1C167,16.8,167.4,16.8,167.8,16.8z M167.3,29.5
	c0.1,0,0.2,0,0.3,0c0.1,0,0.3,0,0.4,0c0.6,0,1.1-0.1,1.6-0.2c0.5-0.1,0.9-0.4,1.3-0.7c0.4-0.3,0.6-0.8,0.9-1.4
	c0.2-0.6,0.3-1.4,0.3-2.3c0-0.9-0.1-1.7-0.3-2.3c-0.2-0.6-0.5-1.1-0.9-1.4c-0.4-0.4-0.8-0.6-1.2-0.8c-0.5-0.2-1-0.2-1.5-0.2
	c-0.3,0-0.5,0-0.6,0c-0.1,0-0.2,0-0.3,0V29.5z M180.3,32.8c-0.5,0-1.2-0.1-1.9-0.2V17.1c0.4-0.1,0.7-0.1,1.1-0.1c0.3,0,0.6,0,0.8,0
	c0.3,0,0.6,0,0.9,0c0.3,0,0.7,0.1,1.1,0.1v15.5C181.4,32.7,180.8,32.8,180.3,32.8z M188.4,24.9c0,3.1,1.3,4.6,3.9,4.6
	c0.5,0,0.9,0,1.3-0.1c0.4-0.1,0.9-0.2,1.5-0.4c0.5,1,0.8,2.1,1,3.2c-0.4,0.2-0.8,0.3-1.2,0.4c-0.4,0.1-0.7,0.2-1,0.2
	c-0.3,0.1-0.7,0.1-1,0.1c-0.3,0-0.7,0-1,0c-1.2,0-2.3-0.2-3.2-0.6c-0.9-0.4-1.7-1-2.3-1.7c-0.6-0.7-1.1-1.6-1.4-2.5
	c-0.3-1-0.5-2.1-0.5-3.2c0-1.2,0.2-2.2,0.5-3.2c0.3-1,0.8-1.8,1.4-2.6c0.6-0.7,1.4-1.3,2.3-1.7c0.9-0.4,2-0.6,3.1-0.6
	c0.7,0,1.4,0.1,2,0.2c0.6,0.1,1.3,0.3,2.1,0.6c0,0.6-0.1,1.2-0.3,1.7c-0.2,0.6-0.4,1-0.6,1.5c-0.3-0.1-0.6-0.2-0.8-0.3
	c-0.2-0.1-0.5-0.1-0.7-0.2c-0.2,0-0.4-0.1-0.7-0.1c-0.2,0-0.4,0-0.7,0c-1.2,0-2.1,0.4-2.7,1.2C188.8,22.2,188.4,23.3,188.4,24.9z"/>
<path class="st1" d="M48.4,17.1c0.3,0,0.6-0.1,1-0.1c0.4,0,0.7-0.1,1-0.1c0.3,0,0.6,0,0.9,0.1c0.3,0,0.7,0.1,0.9,0.1l3.1,8.1
	l3.2-8.1c0.3,0,0.6-0.1,0.9-0.1c0.3,0,0.6-0.1,0.9-0.1c0.3,0,0.6,0,0.9,0.1c0.3,0,0.6,0.1,0.9,0.1l0.7,15.5c-0.2,0-0.5,0.1-0.8,0.1
	c-0.3,0-0.7,0.1-1.1,0.1c-0.5,0-1.1-0.1-1.8-0.2l-0.3-9l-2.4,5.9c-0.3,0-0.5,0.1-0.8,0.1c-0.3,0-0.5,0-0.7,0c-0.2,0-0.4,0-0.7,0
	c-0.2,0-0.5-0.1-0.7-0.1l-2.1-5.8l-0.2,8.9c-0.6,0.1-1.2,0.2-1.7,0.2c-0.5,0-1.1-0.1-1.8-0.2L48.4,17.1z M64.9,24.9
	c0-1.2,0.1-2.2,0.4-3.2c0.3-1,0.7-1.8,1.2-2.6c0.6-0.7,1.3-1.3,2.1-1.7c0.9-0.4,1.9-0.6,3.1-0.6c1.2,0,2.2,0.2,3.1,0.6
	c0.9,0.4,1.6,1,2.1,1.7c0.6,0.7,1,1.6,1.2,2.6c0.3,1,0.4,2.1,0.4,3.2c0,1.2-0.1,2.2-0.4,3.2c-0.3,1-0.7,1.8-1.2,2.5
	c-0.6,0.7-1.3,1.3-2.1,1.7c-0.9,0.4-1.9,0.6-3.1,0.6c-1.2,0-2.2-0.2-3.1-0.6c-0.9-0.4-1.6-1-2.1-1.7c-0.6-0.7-1-1.6-1.2-2.5
	C65.1,27.2,64.9,26.1,64.9,24.9z M74.5,24.9c0-3.2-0.9-4.7-2.8-4.7c-1.9,0-2.8,1.6-2.8,4.7c0,1.6,0.2,2.8,0.7,3.5
	c0.5,0.8,1.2,1.2,2.1,1.2C73.6,29.6,74.5,28.1,74.5,24.9z M85.1,16.8c2.7,0,4.8,0.7,6.2,2c1.4,1.4,2.1,3.4,2.1,6.1
	c0,2.7-0.7,4.8-2.2,6c-1.4,1.3-3.6,1.9-6.4,1.9c-0.7,0-1.4,0-2.1-0.1c-0.7-0.1-1.3-0.1-2-0.2V17.1c0.2,0,0.5-0.1,0.8-0.1
	c0.3,0,0.7-0.1,1.1-0.1c0.4,0,0.8-0.1,1.2-0.1C84.3,16.8,84.7,16.8,85.1,16.8z M84.6,29.5c0.1,0,0.2,0,0.3,0c0.1,0,0.3,0,0.4,0
	c0.6,0,1.1-0.1,1.6-0.2c0.5-0.1,0.9-0.4,1.3-0.7c0.4-0.3,0.6-0.8,0.9-1.4c0.2-0.6,0.3-1.4,0.3-2.3c0-0.9-0.1-1.7-0.3-2.3
	c-0.2-0.6-0.5-1.1-0.9-1.4c-0.4-0.4-0.8-0.6-1.2-0.8c-0.5-0.2-1-0.2-1.5-0.2c-0.3,0-0.5,0-0.6,0c-0.1,0-0.2,0-0.3,0V29.5z
	 M103.8,24.5c0,0.5-0.1,1.1-0.2,1.7h-4.2v3.1h5.4c0.1,0.6,0.2,1.2,0.2,1.6c0,0.5-0.1,1.1-0.2,1.7h-9.3V17.1h9.2
	c0.1,0.3,0.1,0.6,0.1,0.9c0,0.3,0,0.5,0,0.8c0,0.5-0.1,1-0.2,1.7h-5.3v2.4h4.2C103.8,23.5,103.8,24.1,103.8,24.5z M107.1,17.1
	c0.7-0.1,1.4-0.1,2-0.2c0.6-0.1,1.2-0.1,1.9-0.1c0.8,0,1.6,0.1,2.4,0.2c0.8,0.2,1.5,0.4,2.1,0.8c0.6,0.4,1.1,0.9,1.5,1.5
	c0.4,0.7,0.6,1.5,0.6,2.5c0,0.5-0.1,1-0.2,1.4c-0.1,0.4-0.3,0.8-0.5,1.1c-0.2,0.3-0.4,0.6-0.7,0.9c-0.2,0.2-0.5,0.5-0.7,0.6l3.4,6.7
	c-0.3,0.1-0.7,0.1-1.1,0.1c-0.4,0-0.8,0-1.1,0c-0.3,0-0.6,0-1,0c-0.4,0-0.7-0.1-1-0.1l-3.1-7.1l0.2-0.1c0.2-0.1,0.4-0.2,0.6-0.4
	c0.2-0.2,0.4-0.4,0.6-0.7c0.2-0.3,0.3-0.6,0.5-0.9c0.1-0.3,0.2-0.7,0.2-1.1c0-0.7-0.2-1.3-0.6-1.6c-0.4-0.3-0.9-0.5-1.5-0.5
	c-0.1,0-0.3,0-0.4,0c-0.1,0-0.2,0-0.2,0v12.4c-0.8,0.1-1.4,0.2-1.9,0.2c-0.5,0-1.2-0.1-1.9-0.2V17.1z M120.4,17.1
	c0.3-0.1,0.6-0.1,0.9-0.1c0.3,0,0.5,0,0.8,0c0.3,0,0.5,0,0.8,0.1c0.3,0,0.5,0.1,0.7,0.1l5,8.5v-8.5c0.4-0.1,0.7-0.1,1-0.1
	c0.3,0,0.6,0,0.8,0c0.2,0,0.5,0,0.8,0c0.3,0,0.6,0.1,0.9,0.1l0,15.5c-0.1,0-0.4,0.1-0.6,0.1c-0.3,0-0.6,0.1-0.9,0.1
	c-0.4,0-0.7,0-1-0.1c-0.3-0.1-0.5-0.1-0.6-0.1l-5.1-8.5v8.5c-0.6,0.1-1.2,0.2-1.7,0.2c-0.5,0-1.1-0.1-1.8-0.2V17.1z"/>
<g>
	<defs>
		<path id="SVGID_1_" d="M6.7,28v-6c0-2.7,2.2-4.8,4.8-4.8h3.5c0,0,0,2,0,2.4h-3.6c-1.3,0-2.4,1.1-2.4,2.4l0,6
			c0,1.3,1.1,2.4,2.4,2.4h6.7c1.4,0,2.4-0.1,3.2-0.4c1.1-0.4,1.7-1,1.9-1.8c0.5,0,1,0,1.5,0c0.3,0,0.7,0,1,0
			c-0.4,1.9-1.5,3.6-4.4,4.3c-0.6,0.1-1.3,0.2-2,0.3v5.6c0,1.3,1.1,2.4,2.4,2.4h6c1.3,0,2.4-1.1,2.4-2.4v-6.7c0-5.4-2-5.4-5.4-5.4
			c-3.3,0-7.8,0-7.8-7.8v-6.7c0-2.7,2.2-4.8,4.8-4.8l6,0c2.7,0,4.8,2.2,4.8,4.8v5.5h5.5c2.7,0,4.8,2.2,4.8,4.8v6
			c0,2.7-2.2,4.8-4.8,4.8h-3.5v-1.2c0-0.4,0-0.8,0-1.2h3.6c1.3,0,2.4-1.1,2.4-2.4v-6c0-1.3-1.1-2.4-2.4-2.4h-6.7
			c-1.4,0-2.4,0.1-3.2,0.4c-1.1,0.4-1.7,1-1.9,1.8c-0.5,0-1,0-1.5,0c-0.3,0-0.7,0-1,0c0.4-1.9,1.5-3.6,4.4-4.3
			c0.6-0.1,1.3-0.2,2-0.3v-5.6c0-1.3-1.1-2.4-2.4-2.4l-6,0c-1.3,0-2.4,1.1-2.4,2.4v6.7c0,5.4,2,5.4,5.4,5.4c3.3,0,7.8,0,7.8,7.8v6.7
			c0,2.7-2.2,4.8-4.8,4.8h-6c-2.7,0-4.8-2.2-4.8-4.8v-5.5h-5.5C8.9,32.8,6.7,30.6,6.7,28"/>
	</defs>
	<clipPath id="SVGID_2_">
		<use xlink:href="#SVGID_1_"  style="overflow:visible;"/>
	</clipPath>
	
		<linearGradient id="SVGID_3_" gradientUnits="userSpaceOnUse" x1="-29" y1="88.8333" x2="-28" y2="88.8333" gradientTransform="matrix(-36.375 0 0 -36.3742 -1011.7772 3256.2056)">
		<stop  offset="0" style="stop-color:#498B93"/>
		<stop  offset="1" style="stop-color:#66C3D0"/>
	</linearGradient>
	<rect x="6.7" y="6.8" class="st2" width="36.4" height="36.4"/>
</g>
<path class="st3" d="M-9,24.4c0.7,0,1.2,0.5,1.2,1.2s-0.5,1.2-1.2,1.2s-1.2-0.5-1.2-1.2S-9.7,24.4-9,24.4"/>
</svg>
