<svg xmlns="http://www.w3.org/2000/svg" viewBox="0 0 237.65 140.59"><defs><style>.cls-2{fill:#3dc7c9}.cls-3{fill:#7fe5db}.cls-5,.cls-8{fill:#f79a45}.cls-6{fill:#f8ad43}.cls-7{fill:#f8d24a}.cls-8{opacity:.5;mix-blend-mode:multiply}.cls-9{fill:#fcd2c5}.cls-12,.cls-16{fill-rule:evenodd}.cls-12,.cls-14{fill:#0a3c5f}.cls-16{fill:#1f5af4}</style></defs><g style="isolation:isolate"><g id="Слой_2" data-name="Слой 2"><g id="Layer_1" data-name="Layer 1"><rect class="cls-2" x="97.65" y="28.64" width="140" height="111.95" rx="10.16"/><path class="cls-3" d="M228.78 28.64H106.51a8.87 8.87 0 0 0 0 17.74h122.27a8.87 8.87 0 1 0 0-17.74zM237.65 102.65h-58.74a11.26 11.26 0 0 1-11.26-11.26 11.26 11.26 0 0 1 11.26-11.27h58.74z"/><path class="cls-2" d="M185.09 91.39a5.31 5.31 0 1 1-5.31-5.31 5.3 5.3 0 0 1 5.31 5.31z"/><rect x="109.74" y="12.76" width="115.81" height="26.92" rx="2.02" fill="#e4eef4"/><path class="cls-2" d="M113.82 18.85v18.82a2 2 0 0 0 2 2 2 2 0 0 0 2-2v-3.18a2 2 0 0 1 1.5-2 13 13 0 0 0 9.2-10 2 2 0 0 1 2-1.6h74.17a2 2 0 0 1 2 1.6 13 13 0 0 0 9.2 10 2 2 0 0 1 1.5 2v3.18a2 2 0 0 0 2 2 2 2 0 0 0 2-2V18.85a2 2 0 0 0-2-2H115.83a2 2 0 0 0-2.01 2zm53.83 6.56a14.68 14.68 0 0 0-14.42 11.92 2 2 0 0 0 2 2.35h24.85a2 2 0 0 0 2-2.35 14.68 14.68 0 0 0-14.43-11.92z"/><path class="cls-5" d="M16.31 122.72h100.42v17.87H16.31z"/><path class="cls-6" d="M51.27 122.72h58.61v17.87H51.27z"/><path class="cls-7" d="M90.21 122.72h9.39v17.87h-9.39z"/><path class="cls-8" d="M16.31 137.93h100.42v2.66H16.31z"/><path class="cls-5" d="M23.59 104.85h100.42v17.87H23.59z"/><path class="cls-6" d="M58.55 104.85h58.61v17.87H58.55z"/><path class="cls-7" d="M97.49 104.85h9.39v17.87h-9.39z"/><path class="cls-8" d="M23.59 120.06h100.42v2.66H23.59z"/><path class="cls-5" d="M30.88 86.98H131.3v17.87H30.88z"/><path class="cls-6" d="M65.84 86.98h58.61v17.87H65.84z"/><path class="cls-7" d="M104.78 86.98h9.39v17.87h-9.39z"/><path class="cls-8" d="M30.88 102.18H131.3v2.67H30.88z"/><path class="cls-9" d="M107.79 81.85c5.36-.76 13.41-2.54 17.78-5.73s7.53-8.43 7.05-13.82a21.06 21.06 0 0 0-2.27-7.14l13.91-1.76a41.24 41.24 0 0 1 .94 7.6c.16 7-2 14.31-7.15 19.05a25.37 25.37 0 0 1-12.12 5.82c-4.44.93-12.82 1-17.36 1.07-1.32.06-1.99-4.94-.78-5.09z"/><path class="cls-9" d="M95 83.26a4.41 4.41 0 0 0-1.53.81 1.65 1.65 0 0 0-.56 1.57c.22.83 1.18 1.18 2 1.36a49.43 49.43 0 0 0 8 .85l.91.05h1.09c1.59 0 3.45-.21 4.38-1.68a2.79 2.79 0 0 0 0-3.26c-1.75-2-5.92-1.47-8.21-1.19A28.19 28.19 0 0 0 95 83.26z"/><path d="M129 52.45c-1.52-3.16-2.87-6.64-2.3-10.11 1.29-7.89 10.07-7.14 13.64-1.42 1.37 2.2 1.87 5.12 2.61 7.57.48 1.62.91 3.26 1.27 4.91l-13.62 4.05c-.43-.91-1.13-4.1-1.6-5z" fill-rule="evenodd" fill="#1b59e2"/><path d="M27.28 122.69a2.35 2.35 0 0 1-.34 1.41 2.37 2.37 0 0 1-1.61.68l-4 .58a1.3 1.3 0 0 1-1.19-.22 1.3 1.3 0 0 1-.14-1.08l.57-3.59a6.36 6.36 0 0 1 1-3c.94-1.21 4.09-2.38 5.37-1.07s.37 4.79.34 6.29z" fill="#f7b690"/><path class="cls-12" d="M7.27 132.68a2.37 2.37 0 0 1 1.44-2.62 15.07 15.07 0 0 1 3.14-.8 8.78 8.78 0 0 0 6.29-6.26 2.16 2.16 0 0 1 .51-1.15 1.47 1.47 0 0 1 1.6-.07c.5.25.92.66 1.4 1a3.86 3.86 0 0 0 2.93.46c.82-.21 1.6-1 2.5-.82s1.2 1.14 1.53 1.79c.59 1.12 1.14 2.26 1.71 3.39a5.41 5.41 0 0 1 .34.78l-5.75 1.32a8.1 8.1 0 0 1-1.05-1.78 4.67 4.67 0 0 1-.05 2L8 133.61a1.88 1.88 0 0 1-.73-.93zM17.27 114.37c-1.25-.41-2.33-1.21-3.55-1.67-2.38-.9-5.07-.46-7.53-1.1a8.91 8.91 0 0 1-5.95-5.22 1.87 1.87 0 0 1-.06-1.69 1.89 1.89 0 0 1 1.46-.69c4.23-.4 5.34 1.26 9.58 1.47 1.13.06 5.84-.68 8.24.19 2.61.94 2.34 2 2.44 3s-.07 4.33-.93 5.07a4 4 0 0 1-3.7.64z"/><path d="M21.69 104.93a2.35 2.35 0 0 0 0-1.46 2.4 2.4 0 0 0-1.41-1L16.46 101a1.3 1.3 0 0 0-1.21-.06 1.32 1.32 0 0 0-.39 1c-.08 1.21-.16 2.42-.25 3.63a6.43 6.43 0 0 0 .31 3.15c.65 1.4 3.45 3.25 5 2.26s1.47-4.59 1.77-6.05z" fill="#f4a086"/><path class="cls-14" d="M19.74 68.63A18 18 0 0 1 22 62.87l11 13.52c-2.54.83-4 3.41-5.2 7.79-4.15 15.87-5.6 21.82-6.69 23.32-.83 1.19-6.4.49-6.91-1-1.4-4.01 3.04-27.94 5.54-37.87z"/><path d="M86.48 87.33c-2.76 2-17.31 2.38-20.7 2.12L50.84 88.3c-2.37-.18-8.23-2.16-10.14-.73-2.58 1.94-10.31 28.05-12.6 31.37-.76 1.11-7 1.71-7.74-.26s2.81-22.73 4.22-31a47.6 47.6 0 0 1 2.26-9.37 16 16 0 0 1 5.68-7.62c3.75-2.53 40.17-1 41.9 0C76.87 72 89.39 85.25 86.48 87.33z" fill="#222b54"/><path class="cls-14" d="M97 64.62a11 11 0 0 1 4 5.65 15.62 15.62 0 0 1-5.13 16.85c-5 3.83-18 3.61-25.41-2.32-4.87-3.93-.19-7.21 1.28-13.29.74-3.06 2.78-6.3 5.73-7.42 5.08-.43 7.28.81 11 .36 3.26-.39 5.2-2.17 8.53.17z"/><path class="cls-14" d="M23.74 61c19.39-3.72 43.8 1.83 54.18 3.12 2.73 3.35 3.35 14.55 2 18.34-2.21 6-8.14 5.64-13.34 4.18A186.42 186.42 0 0 1 42.25 78c-4.12-1.8-12.31-5.67-14.25-2.2l-6-13c.48-.62.9-1.6 1.74-1.8z"/><path class="cls-16" d="M136.15 34.29a11.54 11.54 0 0 1 1.85 6.16c.68 9.78-3.8 19.37-10.25 26.75s-14.76 12.88-23.09 18a21.33 21.33 0 0 1-10.57 2.89c-1.09-3.6-1.86-14.62-3.03-18.27-.61-1.92-1.23-4-.71-5.91.8-3 4-4.66 6.7-6.14a69.84 69.84 0 0 0 20-16.18A56.38 56.38 0 0 1 123 35c3.52-3 9.75-5.3 13.15-.71z"/><path d="M134.81 32a5.89 5.89 0 0 1 .4 1.84 1.68 1.68 0 0 1-.91 1.54 2.45 2.45 0 0 1-1.29 0l-7.25-1.14a12.31 12.31 0 0 0-1.16-8.38 3.17 3.17 0 0 1-.63-2.12c.18-.77 1-1.24 1.67-1.58a20.32 20.32 0 0 1 5-1.62c2-.37 3-1 3.11 1.09.17 3.63-.09 6.83 1.06 10.37z" fill="#efc6bb"/><path class="cls-9" d="M137.94 13.93c1.27 2.17 1.43 5.2-.33 7a8.75 8.75 0 0 1-3.92 1.92l-7.57 2.25a11 11 0 0 1-6.61-1.1c-1.31-.95 0-1.92 0-3.53 0-2.61 2.36-6.21 3.25-8.66s1.06-3.59 3.52-4.47c4.32-1.56 9.63 3.11 11.66 6.59z"/><path class="cls-12" d="M140.45 22.64A11.08 11.08 0 0 1 138 26a3.79 3.79 0 0 1-4 .69c-1.61-.81-2-2.89-2.24-4.68-.27-2.17-2-1-2.26-3.15-.12-.92 1.22-5.23.87-6.09-.86-2.07-3-3.43-3.82-5.5a5.5 5.5 0 0 1 2.73-6.85 5.52 5.52 0 0 1 7 2.55c.85 1.81.52 4 1.55 5.75.86 1.45 2.16 1.34 3.38 2.24 3.79 2.83.97 8.54-.76 11.68z"/><path class="cls-9" d="M135.37 19.93a2.84 2.84 0 0 0-2.37-3.25c-1.49-.21-3.53 4.68-3.05 5.29 2.68.53 4.77-.39 5.42-2.04zM86.47 20.45c1.69 5.14 4.87 12.75 8.78 16.48s9.65 5.91 14.87 4.48a21.16 21.16 0 0 0 6.62-3.49l4.2 13.36a40.21 40.21 0 0 1-7.31 2.27c-6.85 1.4-14.44.56-20-3.65a25.35 25.35 0 0 1-7.9-10.9C84 34.81 82.45 26.57 81.6 22.12c-.25-1.29 4.48-2.83 4.87-1.67z"/><path class="cls-16" d="M119.18 36.15c2.85-2.06 6-4 9.55-4.06 8-.12 8.82 8.64 3.81 13.17-1.92 1.74-4.7 2.75-7 3.9-1.51.77-3 1.48-4.61 2.12l-6.4-12.71c.83-.57 3.84-1.84 4.65-2.42z"/><path class="cls-14" d="M86.75 15.31h-6.56a1 1 0 0 1-.9-.7L75.29.7a.51.51 0 0 1 .5-.7h6.56a1 1 0 0 1 .9.7l4 13.91a.51.51 0 0 1-.5.7z"/><path d="M87.39 15.31h-6.56a1 1 0 0 1-.9-.7L75.93.7a.51.51 0 0 1 .5-.7H83a1 1 0 0 1 .9.7l4 13.91a.51.51 0 0 1-.51.7z" fill="#a2d1eb"/><path class="cls-14" d="M86.85 14.56h-5.91a.89.89 0 0 1-.81-.63L76.52 1.39A.46.46 0 0 1 77 .76h5.91a.9.9 0 0 1 .81.63l3.58 12.54a.46.46 0 0 1-.45.63z"/><path class="cls-9" d="M85.66 13.56c-.27-.83-1.78-3.05-2.58-5.17-1.48-.51-.7 3.72-.2 4.22-1.72-.34-5-2.27-5.71-5.36a6.15 6.15 0 0 0-1.27 2c-.08 1.5.89 2.9.8 4.41-.06 1.13-.58 1.72-.24 2.8a8.76 8.76 0 0 0 3.48 4.06 8 8 0 0 0 2.45 1.38c5 1.52 4.1-5.79 3.27-8.34z"/></g></g></g></svg>