<svg height="512" viewBox="0 0 128 128" width="512" xmlns="http://www.w3.org/2000/svg" data-name="Layer 1"><path d="M6.37 80.13a15.21 15.21 0 0 0 8.94 3.31 9.32 9.32 0 0 0 2.62-.37 48 48 0 0 0 3 6.66 16.57 16.57 0 0 0-5.33-1.53c-4.85-.57-9.47.9-11.79 3.75A1 1 0 0 0 3.68 93c1.58 3.31 5.74 5.82 10.59 6.39a15.92 15.92 0 0 0 2.06.12 13.21 13.21 0 0 0 9-3.1 46.43 46.43 0 0 0 3.21 3.66c-.3 0-.61 0-.92-.06-3 0-5.67 1.15-6.91 3a1 1 0 0 0 0 1.07c1.18 1.93 3.85 3.21 6.81 3.25h.16A8.43 8.43 0 0 0 34 104.9q1.79 1.35 3.69 2.53a17.18 17.18 0 0 0-4.57.72c-4.67 1.43-8.31 4.64-9.28 8.18a1 1 0 0 0 .31 1 11.19 11.19 0 0 0 7.33 2.36 17.16 17.16 0 0 0 4.93-.75c4.44-1.35 7.94-4.32 9.12-7.64a49.73 49.73 0 0 0 4.79 1.58 1.09 1.09 0 0 0 .26 0 1 1 0 0 0 .26-2 45.5 45.5 0 0 1-31.9-31.32 10.47 10.47 0 0 0-.37-1.41 45.94 45.94 0 0 1-1.39-9.44v-1.94-.78l9.68 3.57v12.31c0 8.81 15.82 15.72 36 15.72 1.86 0 3.72-.06 5.55-.18a1 1 0 0 0-.13-2c-1.79.12-3.61.18-5.42.18-18.43 0-34-6.28-34-13.72V70.39l33.63 12.42a1 1 0 0 0 .34.06 1 1 0 0 0 .35-.06l22.32-8.23V92a55.21 55.21 0 0 1-9.22 2.44 1 1 0 0 0 .18 2h.17a58.1 58.1 0 0 0 8.87-2.28v6.08H83a1 1 0 0 0-1 1v4a6.29 6.29 0 0 0-2.06 4.65v6.47a1 1 0 0 0 1 1h11a1 1 0 0 0 1-1v-6.47a6.25 6.25 0 0 0-2.06-4.65v-4a1 1 0 0 0-1-1H87.5v-6.86c7.11-2.9 11.34-7 11.34-11.51V69.65l12-4.43v3.58a45.89 45.89 0 0 1-1.44 9.61c-.09.28-.17.55-.24.83a45.76 45.76 0 0 1-15.61 23.45 1 1 0 0 0-.17 1.4 1.49 1.49 0 0 0 .14.12s0 .09.07.14c1.21 1.86 3.85 3 6.74 3h.16c3 0 5.64-1.32 6.81-3.25a1 1 0 0 0 0-1.07c-1.24-1.89-3.91-3.06-6.91-3-.34 0-.68 0-1 .07a47.8 47.8 0 0 0 3.27-3.72 13.12 13.12 0 0 0 9 3.15 15.92 15.92 0 0 0 2.06-.12c4.85-.57 9-3.08 10.59-6.39a1 1 0 0 0-.13-1.06c-2.31-2.86-6.93-4.34-11.78-3.76a16.76 16.76 0 0 0-5.4 1.57 47.53 47.53 0 0 0 3-6.71 9.24 9.24 0 0 0 2.66.38 15.21 15.21 0 0 0 8.94-3.31c3.88-3 6.17-7.25 5.84-10.91a1 1 0 0 0-.65-.85c-3.45-1.27-8.18-.18-12 2.79a16.17 16.17 0 0 0-2.34 2.17c.2-1.47.34-3 .4-4.45v-2c0-.66 0-1.55-.06-2.32l4.6-1.7a1 1 0 0 0 .65-1 1 1 0 0 0-.74-.92l-5-1.34c-.22-1.42-.51-2.82-.85-4.2a.93.93 0 0 0 .29 0 1 1 0 0 0 .44-.1c3.29-1.63 5.75-5.82 6.26-10.67s-1-9.47-3.92-11.74a1 1 0 0 0-1.06-.11c-3.29 1.63-5.75 5.82-6.26 10.67v.81a47.24 47.24 0 0 0-5.2-7.72 8.72 8.72 0 0 0 2.86-5.88c.29-2.94-.67-5.74-2.46-7.13a1 1 0 0 0-1.06-.1c-2 1-3.52 3.57-3.81 6.51a10.62 10.62 0 0 0 0 1.87 48.42 48.42 0 0 0-5.38-4.29.91.91 0 0 0 .15-.23c1.57-3.32.89-8.13-1.73-12.24S83.9 8.29 80.23 8.29a1 1 0 0 0-.91.57c-1.58 3.32-.9 8.14 1.68 12.25.22.35.46.69.71 1-1.32-.49-2.67-.93-4-1.31a1 1 0 0 0-.52 1.93 46.29 46.29 0 0 1 9.15 3.59c.3.17.59.34.89.48a46 46 0 0 1 14 11.92 10.49 10.49 0 0 0-2.48-.49c-2.95-.2-5.72.83-7.06 2.65A1 1 0 0 0 91.6 42c1.07 2 3.67 3.41 6.62 3.62h.75a8.41 8.41 0 0 0 5.61-1.93A45.41 45.41 0 0 1 110.19 59l-47.1-12.67a.92.92 0 0 0-.52 0l-9.31 2.5a1 1 0 1 0 .52 1.93l9-2.43L113.77 62 86.54 72.06 61.82 60.72a1 1 0 0 0-.82 1.82L83.88 73l-21 7.77-46.06-17a1 1 0 0 0-.54-.22L11.9 62l37.39-10a1 1 0 0 0-.52-2l-30.85 8.32a45.5 45.5 0 0 1 4.8-13.38 7 7 0 0 0 3.79 1 9.94 9.94 0 0 0 3.26-.56c2.8-.95 4.94-3 5.47-5.19a1 1 0 0 0-.35-1c-1.76-1.42-4.7-1.72-7.5-.76-.18.06-.36.14-.53.21a45.76 45.76 0 0 1 13.92-11.81c.3-.14.59-.31.89-.48a46.29 46.29 0 0 1 9.15-3.59 1 1 0 0 0-.52-1.93c-1.38.38-2.73.82-4 1.31.25-.34.49-.68.71-1 2.62-4.12 3.3-8.93 1.74-12.25a1 1 0 0 0-.9-.57c-3.67 0-7.72 2.65-10.34 6.76S34.13 24 35.7 27.29a.91.91 0 0 0 .15.23 48.42 48.42 0 0 0-5.38 4.29 10.62 10.62 0 0 0 0-1.87c-.29-2.94-1.79-5.5-3.81-6.51a1 1 0 0 0-1.06.1c-1.79 1.39-2.75 4.19-2.46 7.13A8.72 8.72 0 0 0 26 36.54a47.24 47.24 0 0 0-5.18 7.71v-.81c-.51-4.85-3-9-6.26-10.67a1 1 0 0 0-1.06.11c-2.93 2.27-4.5 6.88-3.95 11.74s3 9 6.25 10.67a1 1 0 0 0 .45.1.92.92 0 0 0 .28 0c-.29 1.17-.53 2.35-.73 3.55l-7.46 2a1 1 0 0 0-.08 1.91l6.9 2.55v1.51c0 .68 0 1.36.05 2 .06 1.5.2 3 .39 4.43a17.12 17.12 0 0 0-2.33-2.15c-3.87-3-8.6-4.06-12-2.79a1 1 0 0 0-.65.85c-.42 3.63 1.87 7.91 5.75 10.88zm8.13 17.3c-3.88-.46-7.21-2.28-8.7-4.7 2-2 5.67-3 9.56-2.55s7.21 2.28 8.7 4.7c-2.06 2.01-5.67 3.01-9.56 2.55zm21.31 19.62c-3.74 1.13-7.52.81-9.86-.81 1-2.65 4-5 7.73-6.17s7.52-.81 9.86.81c-1.04 2.65-3.99 5.03-7.73 6.17zm55.08-1.75H89.4v-2.06a1 1 0 1 0-2 0v2.06h-1.83v-4.52a1 1 0 0 0-2 0v4.52h-1.66v-5.47a4.33 4.33 0 0 1 4.32-4.32h.34a4.33 4.33 0 0 1 4.32 4.32zm-2.06-11.36a6.27 6.27 0 0 0-2.26-.43h-.34a6.27 6.27 0 0 0-2.26.43v-1.72h4.86zm23.81-13.76c3.89-.46 7.55.54 9.56 2.55-1.49 2.42-4.82 4.24-8.7 4.7s-7.54-.54-9.56-2.55c1.49-2.42 4.82-4.24 8.7-4.7zM100.41 102a6.69 6.69 0 0 1 4.77 1.61 6.81 6.81 0 0 1-4.72 1.75 6.67 6.67 0 0 1-4.76-1.61 6.79 6.79 0 0 1 4.71-1.75zM116 72.75c3.11-2.38 6.76-3.4 9.52-2.7 0 2.85-2 6.11-5.08 8.49s-6.76 3.39-9.52 2.69a7.22 7.22 0 0 1 .26-1.69l.18-.65a13.46 13.46 0 0 1 4.64-6.14zm-6.77-29.1c.41-3.89 2.18-7.24 4.59-8.77 2 2 3.07 5.64 2.67 9.53s-2.18 7.24-4.59 8.76c-2.06-1.99-3.09-5.63-2.69-9.52zM82.72 20c-2.09-3.29-2.79-7-1.85-9.71 2.83.29 5.91 2.5 8 5.8s2.79 7 1.86 9.71a8.1 8.1 0 0 1-2.66-.8c-.27-.15-.55-.31-.83-.45A14.29 14.29 0 0 1 82.72 20zm15.64 23.61a6.83 6.83 0 0 1-4.61-2 6.82 6.82 0 0 1 4.85-1.34 6.75 6.75 0 0 1 4.61 2 6.84 6.84 0 0 1-4.85 1.34zm1.16-13.47a6.81 6.81 0 0 1 2.14-4.55 6.78 6.78 0 0 1 1.21 4.88 6.81 6.81 0 0 1-2.14 4.53 6.81 6.81 0 0 1-1.21-4.86zm-2.68 51.73c0 3.47-3.51 6.82-9.34 9.34V73.84l9.34-3.45zM28 40.34a6.8 6.8 0 0 1 5 .06 6.76 6.76 0 0 1-3.94 3.12 6.76 6.76 0 0 1-5-.06A6.83 6.83 0 0 1 28 40.34zm9.23-14.51c-.93-2.69-.24-6.41 1.86-9.71s5.18-5.51 8-5.8c.94 2.69.24 6.42-1.86 9.71a14.16 14.16 0 0 1-4.51 4.54c-.28.14-.56.3-.84.45a8 8 0 0 1-2.62.81zM16.12 53.17c-2.41-1.52-4.18-4.87-4.59-8.76s.64-7.54 2.67-9.53c2.41 1.53 4.18 4.88 4.59 8.77s-.63 7.53-2.67 9.52zm9-22.7a6.78 6.78 0 0 1 1.21-4.88 6.76 6.76 0 0 1 2.14 4.55 6.81 6.81 0 0 1-1.2 4.86 6.81 6.81 0 0 1-2.14-4.53zm2.41 74.92a6.81 6.81 0 0 1-4.72-1.75 6.71 6.71 0 0 1 4.78-1.64 6.81 6.81 0 0 1 4.71 1.75 6.71 6.71 0 0 1-4.76 1.64zM12 72.75a13.62 13.62 0 0 1 4.6 6c.12.48.24 1 .38 1.43a7.47 7.47 0 0 1 .1 1c-2.76.7-6.41-.31-9.52-2.69s-5-5.64-5.08-8.49c2.78-.65 6.43.37 9.52 2.75z"/><path d="M34.3 83.3a1 1 0 0 0-1.37 1.46c.17.16 4.21 3.86 15.39 6.26h.21a1 1 0 0 0 .21-2C38.2 86.8 34.34 83.34 34.3 83.3zM98.22 63.51a.78.78 0 0 0 .26 0 1 1 0 0 0 1-.74 1 1 0 0 0-.7-1.23l-13.85-3.73a1 1 0 0 0-1.22.7 1 1 0 0 0 .7 1.23zM69.14 115a48.49 48.49 0 0 0 6.23-1 1 1 0 1 0-.46-2 46.48 46.48 0 0 1-6 1c-1.59.16-3.21.25-4.82.25a1 1 0 0 0 0 2 49.34 49.34 0 0 0 5.05-.25zM54.61 25.44a48.47 48.47 0 0 0-6.07 1.75 1 1 0 0 0-.61 1.28 1 1 0 0 0 1 .66 1 1 0 0 0 .33-.06A46.33 46.33 0 0 1 55 27.39c1.55-.34 3.15-.6 4.75-.79a1 1 0 0 0-.23-2c-1.62.21-3.29.48-4.91.84z"/></svg>