<svg height="512" viewBox="0 0 128 128" width="512" xmlns="http://www.w3.org/2000/svg" data-name="Layer 1"><path d="M94.48 17.84a1 1 0 0 0-1.16.8.91.91 0 0 0 .07.54v35c-2.43.43-5 .81-7.57 1.14V39.15a14.25 14.25 0 0 0-3-8.81 1 1 0 0 0-1.58 1.23 12.2 12.2 0 0 1 2.59 7.58v16.38c-1.55.18-3.12.34-4.72.47V42.24a1 1 0 0 0-2 0v13.91c-4.24.31-8.62.48-13.1.48-2.43 0-4.89-.05-7.29-.14a1 1 0 0 0-1 1 1 1 0 0 0 1 1c2.43.09 4.91.14 7.37.14 4.5 0 8.88-.15 13.1-.44v33.67c-2.68.18-5.4.29-8.14.35V81.4a4.76 4.76 0 1 0-9.52 0v10.76q-4.12-.12-8.14-.42v-49.5a1 1 0 1 0-2 0V78a11.76 11.76 0 0 1-4.72-9.43V36.62a9.85 9.85 0 0 1 9.83-9.84h17a12.34 12.34 0 0 1 4.81 1 1 1 0 1 0 .78-1.84 14.25 14.25 0 0 0-5.59-1.13h-1.71a13.33 13.33 0 0 0 4.76-10.54c0-6.92-4.64-12.55-10.35-12.55s-10.36 5.6-10.36 12.52a13.34 13.34 0 0 0 4.77 10.54h-4.2a11.85 11.85 0 0 0-11.83 11.84v31.95a13.79 13.79 0 0 0 6.72 11.84v11.17c-4.9-.42-9.64-1-14.09-1.85a1 1 0 0 0-.36 2c4.56.83 9.42 1.46 14.45 1.89V107C22.79 104.81 2.5 97 2.5 87.89V42.44c4.58 6.16 16.77 11.33 34.07 14.11h.16a1 1 0 0 0 .15-2l-2.53-.43V18.88a1 1 0 0 0-1-1 1 1 0 0 0-.42.1 1.08 1.08 0 0 0-.18 0C12.55 21.82.5 28.9.5 36.93v51C.5 98.32 21 106.81 49.3 109v16.29a1 1 0 0 0 1 1h10.14a1 1 0 0 0 1-1v-15.73H64a1 1 0 0 0 0-2h-2.56V94.22h5.52v31.07a1 1 0 0 0 1 1H78.1a1 1 0 0 0 1-1V93.73a140.21 140.21 0 0 0 26.32-4.33 1 1 0 0 0 .7-1.23 1 1 0 0 0-1.23-.7 137.39 137.39 0 0 1-25.79 4.25V80.29a14.11 14.11 0 0 0 6.72-12V57.36c19.61-2.38 34.49-7.91 39.68-14.9v45.43c0 8.1-16.77 15.72-40.79 18.53a1 1 0 0 0 .11 2h.12c25.85-3 42.56-11.08 42.56-20.51v-51c0-8.13-12.34-15.27-33.02-19.07zm-38.64-3.6c0-5.82 3.75-10.55 8.36-10.55s8.35 4.73 8.35 10.55-3.74 10.54-8.35 10.54-8.36-4.73-8.36-10.54zM32.35 20.1v9.28l-13.51 4a1 1 0 0 0-.68 1.24 1 1 0 0 0 1 .72.92.92 0 0 0 .28-.05l13-3.8v7.47l-13.49 3.7a1 1 0 0 0 .26 2 1.15 1.15 0 0 0 .26 0l13-3.55v12.65C14.07 50.18 2.5 43.74 2.5 36.93S13.92 23.72 32.35 20.1zm27.09 104.21H51.3v-15.14c2.65.17 5.37.29 8.14.36zm0-16.79c-2.76-.07-5.48-.19-8.14-.38v-13.4c2.68.2 5.4.34 8.14.42zm5.63-15.26h-3.63V81.4a2.76 2.76 0 1 1 5.52 0v10.84zm12 32.05H69v-30.1c2.74-.06 5.46-.17 8.14-.34zm6.72-56a12.12 12.12 0 0 1-4.72 9.58V58c1.6-.13 3.17-.27 4.72-.44zm11.6-14.54V41.19l12.3 3.37a1.15 1.15 0 0 0 .26 0 1 1 0 0 0 .27-2l-12.83-3.44v-7.46l12.28 3.6a.92.92 0 0 0 .28.05 1 1 0 0 0 1-.72 1 1 0 0 0-.68-1.24l-12.88-3.77v-9.53c18.33 3.56 30.11 10.14 30.11 16.88 0 7.07-12.23 13.35-30.11 16.84z"/><path d="M102.23 80.38a1.07 1.07 0 0 0 .25 0 78 78 0 0 0 12.27-4.17 1 1 0 1 0-.82-1.82 74.62 74.62 0 0 1-12 4 1 1 0 0 0 .25 2zM115.26 65.5A1 1 0 0 0 114 65a96.38 96.38 0 0 1-21.24 5.7 1 1 0 0 0 .16 2h.16a98.18 98.18 0 0 0 21.65-5.86 1 1 0 0 0 .53-1.34zM13.51 66.06a8 8 0 0 1 4.36-2.44A7.78 7.78 0 0 1 22 64a1 1 0 0 0 .67-1.88 9.81 9.81 0 0 0-5.19-.44 10 10 0 0 0-5.44 3 1 1 0 0 0 .72 1.69 1 1 0 0 0 .75-.31zM9.56 76.39a1 1 0 0 0-.8 1.17 16.4 16.4 0 0 0 2.36 6 15.49 15.49 0 0 0 1.73 2.18 1 1 0 0 0 .72.31 1.05 1.05 0 0 0 .7-.28 1 1 0 0 0 0-1.42 12.57 12.57 0 0 1-1.49-1.88 14.34 14.34 0 0 1-2.07-5.23 1 1 0 0 0-1.15-.85zM16.51 88.35a10.28 10.28 0 0 0 4.4 1 9.74 9.74 0 0 0 1.78-.16 10.13 10.13 0 0 0 5-2.63 1 1 0 0 0 0-1.42 1 1 0 0 0-1.41 0 7.85 7.85 0 0 1-4 2.11 8.05 8.05 0 0 1-5-.69 1 1 0 1 0-.85 1.81zM30.6 78.64h.08a1 1 0 0 0 1-.92 17 17 0 0 0-.24-4.43A16.3 16.3 0 0 0 28.1 66a1 1 0 1 0-1.55 1.27 14.17 14.17 0 0 1 2.91 6.37 14.67 14.67 0 0 1 .22 3.9 1 1 0 0 0 .92 1.1zM23.89 81.41a1 1 0 0 0 1.35-.41 10.35 10.35 0 0 0 .88-6.71 1 1 0 1 0-2 .37 8.34 8.34 0 0 1-.68 5.39 1 1 0 0 0 .45 1.36zM20.9 84a1 1 0 0 0 0-2c-1.82 0-4.2-2.2-4.87-5.77a8.37 8.37 0 0 1 .67-5.4 3.47 3.47 0 0 1 2.17-1.87 1 1 0 1 0-.37-2 5.39 5.39 0 0 0-3.56 2.88 10.32 10.32 0 0 0-.87 6.72C15 81.37 18.26 84 20.9 84z"/></svg>