<svg height="512" viewBox="0 0 128 128" width="512" xmlns="http://www.w3.org/2000/svg" data-name="Layer 1"><path d="M33.29 50.27a1.09 1.09 0 0 0 .5.13 1.13 1.13 0 0 0 .5-.13L47 42.93a1 1 0 0 0 .5-.86 1 1 0 0 0-.5-.87l-12.7-7.33a1 1 0 0 0-1 0 1 1 0 0 0-.5.87V49.4a1 1 0 0 0 .49.87zm1.5-13.8l9.7 5.6-9.7 5.6zM58.3 63.1h-8.41v-.81a1 1 0 0 0-2 0v.81h-30a1 1 0 0 0 0 2h30v.8a1 1 0 0 0 2 0v-.8h8.41a1 1 0 1 0 0-2z"/><path d="M21.32 58.33h33.5a4.91 4.91 0 0 0 4.91-4.91v-22.7a4.92 4.92 0 0 0-4.91-4.92h-33.5a4.93 4.93 0 0 0-4.92 4.92v22.7a4.92 4.92 0 0 0 4.92 4.91zM18.4 30.72a2.92 2.92 0 0 1 2.92-2.92h33.5a2.92 2.92 0 0 1 2.91 2.92v22.7a2.91 2.91 0 0 1-2.91 2.91h-33.5a2.91 2.91 0 0 1-2.92-2.91z"/><path d="M.5 88.55a6.94 6.94 0 0 0 6.94 6.94h36.13l-3 14.19h-11a1 1 0 1 0 0 2h23.2v5.57a1 1 0 0 0 2 0V95.08a8.23 8.23 0 0 1 1.56-4.83 8.41 8.41 0 0 1 2.27-2.14l13.77-4.94a1 1 0 0 0 .45.11h34.67l14.25 5.16c3.3 1.71 3.79 5.09 3.79 7v21.85a1 1 0 0 0 2 0V95.4c0-4-1.75-7.15-4.93-8.77h-.12L118.07 85V16.69a7 7 0 0 0-6.94-6.94H7.44A6.94 6.94 0 0 0 .5 16.69zm42.08 21.13l3-14.19h7.12v14.19zm31.72-28.4l2.43-5.68h26.78l2.43 5.68zm9.32-9.8a18.61 18.61 0 0 1-8.3-10.65 1 1 0 0 0-.68-.65 4.16 4.16 0 0 1-3-4 4.27 4.27 0 0 1 1-2.8c5.26 8.86 11.65 12 17.11 12a13.73 13.73 0 0 0 4.94-.9c.36-.13 1-.37 2.17-4.2 1.43 1.64 2.08 1.88 2.77 1.34 1.65-1.29 5.39-4.47 7.25-8.15a4.25 4.25 0 0 1 1 2.67 4.16 4.16 0 0 1-3 4 1 1 0 0 0-.68.65A18.66 18.66 0 0 1 96 71.48a1 1 0 0 0-.51.87v1.25H84.14v-1.25a1 1 0 0 0-.52-.87zm22-20C104.44 54.85 101 58 99 59.6c-.46-.46-1.18-1.3-1.76-2a1 1 0 0 0-1.74.36 27.48 27.48 0 0 1-1.66 4.75c-7 2.56-14.66-1.74-20-11.28a21.37 21.37 0 0 1-.84-6.3c0-10.3 7.39-18.37 16.83-18.37s16.83 8.07 16.83 18.37a21.31 21.31 0 0 1-1 6.36zM7.44 11.75h103.69a5 5 0 0 1 4.94 4.94v58.77h-6.13a1 1 0 0 0 0 2h6.13v6.81l-7.9-2.86-3.08-7.21a1 1 0 0 0-.92-.6h-6.72v-.67a20.76 20.76 0 0 0 8.55-11 6.25 6.25 0 0 0 1.76-10.51 23 23 0 0 0 .86-6.3c0-11.43-8.27-20.37-18.83-20.37S71 33.7 71 45.13a23.36 23.36 0 0 0 .86 6.3 6.26 6.26 0 0 0 1.76 10.51 20.73 20.73 0 0 0 8.56 11v.67h-6.11a1 1 0 0 0-.92.6l-2.94 6.89-14.42 5.17a.66.66 0 0 0-.19.09 10.28 10.28 0 0 0-4.74 7.13H7.44a5 5 0 0 1-4.94-4.94V77.46h67.14a1 1 0 0 0 0-2H2.5V16.69a5 5 0 0 1 4.94-4.94z"/><path d="M66.26 108.52v8.7a1 1 0 0 0 2 0v-8.7a1 1 0 0 0-2 0zM114.88 117.22v-8.7a1 1 0 1 0-2 0v8.7a1 1 0 0 0 2 0zM104.57 97.55a1 1 0 0 0-1.42 0L91 109.73a1 1 0 0 0 0 1.41 1 1 0 0 0 1.41 0L104.57 99a1 1 0 0 0 0-1.45zM101.8 106.43l-4 4a1 1 0 0 0 .71 1.71 1 1 0 0 0 .7-.3l4-4a1 1 0 0 0 0-1.42 1 1 0 0 0-1.41.01z"/></svg>