<svg height="512" viewBox="0 0 128 128" width="512" xmlns="http://www.w3.org/2000/svg" data-name="Layer 1"><path d="M119.31 60.51l2.23-3.29a1 1 0 0 0-.27-1.39l-5-3.36a1 1 0 0 0-1.39.27L112.72 56a25.5 25.5 0 0 0-7.25-2.25v-3.66h1.06a3 3 0 0 0 3-3v-.27a3 3 0 0 0-3-3H96.4a3 3 0 0 0-3 3v.27a3 3 0 0 0 3 3h1.07v3.63a26 26 0 0 0-15.82 42.59H7.36a4.87 4.87 0 0 1-4.86-4.86V80.52h68.19a1 1 0 0 0 0-2H2.5V20.57a4.86 4.86 0 0 1 4.86-4.85h102.26a4.86 4.86 0 0 1 4.86 4.85v25.19a1 1 0 1 0 2 0V20.57a6.87 6.87 0 0 0-6.86-6.85H7.36A6.87 6.87 0 0 0 .5 20.57v70.88a6.87 6.87 0 0 0 6.86 6.86H43l-3 14H29.15a1 1 0 0 0 0 2h58.68a1 1 0 1 0 0-2H77l-3-14h9.55a26 26 0 1 0 35.76-37.8zM116 54.69l3.31 2.24-1.53 2.25a26.61 26.61 0 0 0-3.29-2.26zm-20.61-7.61v-.27a1 1 0 0 1 1-1h10.13a1 1 0 0 1 1 1v.27a1 1 0 0 1-1 1H96.4a1 1 0 0 1-1.01-1zm4.08 3h4v3.4c-.67-.05-1.33-.08-2-.08s-1.34 0-2 .08zM75 112.28H42l3-14h27zm26.52-8.8a24 24 0 1 1 24-24 24.06 24.06 0 0 1-24.05 24z"/><path d="M117.93 72.15a1 1 0 0 0-1.32-.52l-13.64 6a2.31 2.31 0 1 0 .8 1.83l13.64-6a1 1 0 0 0 .52-1.31z"/><path d="M116.52 64.31h-.06a21.23 21.23 0 0 0-30 0 21.23 21.23 0 0 0 0 30v.06a21.26 21.26 0 0 0 30 0h.06v-.06a21.23 21.23 0 0 0 0-30zm1.35 16h2.83a19.24 19.24 0 0 1-4.93 11.89l-2-2a1 1 0 0 0-1.41 1.41l2 2a19.08 19.08 0 0 1-11.88 4.93v-2.78a1 1 0 0 0-2 0v2.83a19.08 19.08 0 0 1-11.89-4.93l2-2a1 1 0 0 0 0-1.41 1 1 0 0 0-1.42 0l-2 2a19.24 19.24 0 0 1-4.93-11.89h2.83a1 1 0 0 0 0-2h-2.84a19.24 19.24 0 0 1 4.93-11.89l2 2a1 1 0 0 0 .71.29 1 1 0 0 0 .71-.29 1 1 0 0 0 0-1.41l-2-2a19.08 19.08 0 0 1 11.89-4.93V63a1 1 0 1 0 2 0v-2.87a19.13 19.13 0 0 1 11.89 4.93l-2 2a1 1 0 0 0 .7 1.7 1 1 0 0 0 .71-.29l2-2a19.24 19.24 0 0 1 4.93 11.89h-2.83a1 1 0 0 0 0 2zM55 88.7a3.54 3.54 0 1 0 3.54-3.54A3.54 3.54 0 0 0 55 88.7zm5.08 0a1.54 1.54 0 1 1-1.54-1.54A1.54 1.54 0 0 1 60 88.7zM27.59 30.55a1 1 0 0 0-1-1H14.83a1 1 0 0 0-1 1v11.76a1 1 0 0 0 1 1h11.76a1 1 0 0 0 1-1zm-2 10.76h-9.76v-9.76h9.76zM82.28 29.55H37a1 1 0 0 0 0 2h45.28a1 1 0 0 0 0-2zM82.28 35.43H37a1 1 0 0 0 0 2h45.28a1 1 0 0 0 0-2zM82.28 41.31H37a1 1 0 0 0 0 2h45.28a1 1 0 0 0 0-2zM26.59 53.07H14.83a1 1 0 0 0-1 1v11.76a1 1 0 0 0 1 1h11.76a1 1 0 0 0 1-1V54.07a1 1 0 0 0-1-1zm-1 11.76h-9.76v-9.76h9.76zM83.28 54.07a1 1 0 0 0-1-1H37a1 1 0 0 0 0 2h45.28a1 1 0 0 0 1-1zM60.83 59H37a1 1 0 0 0 0 2h23.83a1 1 0 0 0 0-2zM60.83 64.83H37a1 1 0 0 0 0 2h23.83a1 1 0 0 0 0-2z"/></svg>