<svg xmlns="http://www.w3.org/2000/svg" xmlns:xlink="http://www.w3.org/1999/xlink" viewBox="0 0 384 496"><defs><style>.cls-5{fill:#ffc440}.cls-6{fill:#a63039}.cls-12{fill:#51251f}.cls-14{fill:#7a5954}</style><linearGradient id="linear-gradient" x1="-133.75" y1="458.28" x2="-112.25" y2="436.78" gradientTransform="matrix(4 0 0 -4 684 2136.12)" gradientUnits="userSpaceOnUse"><stop offset="0" stop-color="#f9ddd1"/><stop offset=".51" stop-color="#f8dbce"/><stop offset=".82" stop-color="#f6d3c6"/><stop offset="1" stop-color="#f4cabd"/></linearGradient><linearGradient id="linear-gradient-2" x1="-123" y1="440.03" x2="-123" y2="410.03" xlink:href="#linear-gradient"/><linearGradient id="linear-gradient-3" x1="-129.5" y1="462.63" x2="-107.8" y2="440.75" gradientTransform="matrix(4 0 0 -4 684 2136.12)" gradientUnits="userSpaceOnUse"><stop offset="0" stop-color="#eeae9a"/><stop offset=".32" stop-color="#efb4a0"/><stop offset=".74" stop-color="#f4c3b1"/><stop offset="1" stop-color="#f7d0bf"/></linearGradient><linearGradient id="linear-gradient-4" x1="-123" y1="440.03" x2="-123" y2="410.03" gradientTransform="matrix(4 0 0 -4 684 2136.12)" gradientUnits="userSpaceOnUse"><stop offset="0" stop-color="#e15c63"/><stop offset=".41" stop-color="#de585f"/><stop offset=".83" stop-color="#d44b53"/><stop offset="1" stop-color="#ce444c"/></linearGradient><linearGradient id="linear-gradient-5" x1="-157" y1="482.03" x2="-145" y2="482.03" xlink:href="#linear-gradient"/><linearGradient id="linear-gradient-6" x1="-89" y1="482.03" x2="-101" y2="482.03" xlink:href="#linear-gradient"/><linearGradient id="linear-gradient-7" x1="-419.65" y1="89.73" x2="-412.77" y2="89.73" gradientTransform="scale(4 -4) rotate(15.4 326.46 1642.612)" gradientUnits="userSpaceOnUse"><stop offset="0" stop-color="#f7d0bf"/><stop offset="1" stop-color="#f1beae"/></linearGradient><linearGradient id="linear-gradient-8" x1="-3415.43" y1="916.42" x2="-3408.55" y2="916.42" gradientTransform="scale(-4) rotate(15.4 1831.37 12805.773)" xlink:href="#linear-gradient-7"/><linearGradient id="linear-gradient-9" x1="-149" y1="485.53" x2="-97" y2="485.53" xlink:href="#linear-gradient"/><linearGradient id="linear-gradient-10" x1="-123" y1="484.03" x2="-123" y2="470.03" gradientTransform="matrix(4 0 0 -4 684 2136.12)" gradientUnits="userSpaceOnUse"><stop offset="0" stop-color="#f7d0bf"/><stop offset="1" stop-color="#eeae9a"/></linearGradient><linearGradient id="linear-gradient-11" x1="-124" y1="534.03" x2="-124" y2="484.03" gradientTransform="matrix(4 0 0 -4 684 2136.12)" gradientUnits="userSpaceOnUse"><stop offset="0" stop-color="#a24d31"/><stop offset="1" stop-color="#5e2e22"/></linearGradient></defs><g id="Слой_2" data-name="Слой 2"><g id="Layer_3" data-name="Layer 3"><path d="M236 388h-88l4-88h80z" fill="url(#linear-gradient)"/><path d="M247.56 376H136.44C61.4 376 0 397.2 0 472v24h384v-24c0-74.8-61.4-96-136.44-96z" fill="url(#linear-gradient-2)"/><path d="M247.69 376h-12.1l-3.46-76h-80l-1 22.82 77 73.18 44-19.15q-11.91-.85-24.44-.85z" fill="url(#linear-gradient-3)"/><path d="M247.56 376S232 404 192 404s-55.56-28-55.56-28C61.4 376 0 397.2 0 472v24h384v-24c0-74.8-61.4-96-136.44-96z" fill="url(#linear-gradient-4)"/><path class="cls-5" d="M372 496h-8v-24c0-33-11.42-71.44-100.43-75.64l.38-8C360.8 392.94 372 438.28 372 472zM20 496h-8v-24c0-33.71 11.2-79.06 108.06-83.63l.37 8C31.42 400.56 20 439 20 472z"/><path class="cls-6" d="M60 496h-8v-44a4 4 0 0 1 8 0zM332 496h-8v-44a4 4 0 0 1 8 0z"/><path d="M102.18 201.77c5 17.33-.79 34.17-13 37.61s-26.28-7.82-31.33-25.16.8-34.17 13-37.6 26.29 7.82 31.33 25.15z" fill="url(#linear-gradient-5)"/><path d="M281.82 201.77c-5.05 17.33.79 34.17 13 37.61s26.28-7.82 31.33-25.16-.8-34.17-13.05-37.6-26.24 7.82-31.28 25.15z" fill="url(#linear-gradient-6)"/><path d="M101.28 204.42c2.44 8.61-1.53 17.19-8.86 19.17s-15.26-3.4-17.7-12 1.53-17.19 8.87-19.17 15.25 3.39 17.69 12z" fill="url(#linear-gradient-7)"/><path d="M282.72 204.42c-2.44 8.61 1.53 17.19 8.86 19.17s15.26-3.4 17.7-12-1.53-17.19-8.87-19.17-15.25 3.39-17.69 12z" fill="url(#linear-gradient-8)"/><path d="M192 332c-57.2 0-104-50.8-104-108v-64c0-57.2 46.8-104 104-104s104 46.8 104 104v64c0 57.2-46.8 108-104 108z" fill="url(#linear-gradient-9)"/><path class="cls-12" d="M153.05 208h-2.11a7 7 0 0 1-6.94-6.95v-10.11a7 7 0 0 1 7-6.94h2.11a7 7 0 0 1 6.89 7v10.11a7 7 0 0 1-6.95 6.89zM233.05 208h-2.11a7 7 0 0 1-6.94-6.95v-10.11a7 7 0 0 1 7-6.94h2.11a7 7 0 0 1 6.89 7v10.11a7 7 0 0 1-6.95 6.89z"/><path d="M192.63 256h-1.26A11.41 11.41 0 0 1 180 244.63v-33.26A11.41 11.41 0 0 1 191.37 200h1.26A11.41 11.41 0 0 1 204 211.37v33.26A11.41 11.41 0 0 1 192.63 256z" fill="url(#linear-gradient-10)"/><path class="cls-14" d="M164 175.58h-.59l-24-3.58a4 4 0 1 1 1.18-7.92l24 3.58a4 4 0 0 1-.59 8zM220 175.58a4 4 0 0 1-.59-8l24-3.58a4 4 0 1 1 1.18 7.92l-24 3.58c-.2.06-.4.08-.59.08z"/><path d="M236 132l-68 64-8-56-52 60 4-48-24 36-32-56 16-24-24-32h36L68 32l48 12 12-36 36 28 28-36 28 36 40-28 4 40 40-20-12 48h32l-16 36 20 20-32 56z" fill="url(#linear-gradient-11)"/><path class="cls-5" d="M192 432c-41.05 0-75.42-22.93-81.74-54.53l7.84-1.57c5.48 27.42 37.26 48.1 73.9 48.1s68.42-20.68 73.9-48.1l7.84 1.57C267.42 409.07 233.05 432 192 432z"/><path class="cls-5" d="M265.74 376.46C259.94 403.6 228.39 424 192 424s-68.06-20.47-73.76-47.54q-4.06.21-8.06.52l.08.49C116.58 409.07 151 432 192 432s75.42-22.93 81.75-54.58l.08-.44q-4-.32-8.09-.52z"/><path d="M192 290.37c-9.62 0-32-1-32-10.08a4 4 0 0 1 7.78-1.31c2.12 1.31 10.57 3.39 24.22 3.39s22.1-2.08 24.22-3.38a4 4 0 0 1 7.78 1.31c0 9.09-22.38 10.07-32 10.07z" fill="#f09890"/></g></g></svg>