<svg xmlns="http://www.w3.org/2000/svg" xmlns:xlink="http://www.w3.org/1999/xlink" viewBox="0 0 384 496"><defs><style>.cls-9{fill:#51251f}.cls-11{fill:#7a5954}.cls-17{fill:#a7a9ac}.cls-24{fill:#9ecdef}</style><linearGradient id="linear-gradient" x1="-157" y1="478.03" x2="-145" y2="478.03" gradientTransform="matrix(4 0 0 -4 684 2136.12)" gradientUnits="userSpaceOnUse"><stop offset="0" stop-color="#f9ddd1"/><stop offset=".51" stop-color="#f8dbce"/><stop offset=".82" stop-color="#f6d3c6"/><stop offset="1" stop-color="#f4cabd"/></linearGradient><linearGradient id="linear-gradient-2" x1="-89" y1="478.03" x2="-101" y2="478.03" xlink:href="#linear-gradient"/><linearGradient id="linear-gradient-3" x1="-223.13" y1="7.08" x2="-216.25" y2="7.08" gradientTransform="scale(4 -4) rotate(15.4 134.106 870.629)" gradientUnits="userSpaceOnUse"><stop offset="0" stop-color="#f7d0bf"/><stop offset="1" stop-color="#f1beae"/></linearGradient><linearGradient id="linear-gradient-4" x1="-3589.04" y1="935.91" x2="-3582.17" y2="935.91" gradientTransform="scale(-4) rotate(15.4 1830.877 13456.99)" xlink:href="#linear-gradient-3"/><linearGradient id="linear-gradient-5" x1="-133" y1="455.03" x2="-113" y2="435.03" xlink:href="#linear-gradient"/><linearGradient id="linear-gradient-6" x1="-129.91" y1="458.45" x2="-110.19" y2="438.73" gradientTransform="matrix(4 0 0 -4 684 2136.12)" gradientUnits="userSpaceOnUse"><stop offset="0" stop-color="#eeae9a"/><stop offset=".32" stop-color="#efb4a0"/><stop offset=".74" stop-color="#f4c3b1"/><stop offset="1" stop-color="#f7d0bf"/></linearGradient><linearGradient id="linear-gradient-7" x1="-123" y1="438.03" x2="-123" y2="410.03" gradientTransform="matrix(4 0 0 -4 684 2136.12)" gradientUnits="userSpaceOnUse"><stop offset="0" stop-color="#d0e3ff"/><stop offset="1" stop-color="#bfe6ff"/></linearGradient><linearGradient id="linear-gradient-8" x1="-145.63" y1="504.13" x2="-100.37" y2="458.88" xlink:href="#linear-gradient"/><linearGradient id="linear-gradient-9" x1="-123" y1="480.03" x2="-123" y2="466.03" gradientTransform="matrix(4 0 0 -4 684 2136.12)" gradientUnits="userSpaceOnUse"><stop offset="0" stop-color="#f7d0bf"/><stop offset="1" stop-color="#eeae9a"/></linearGradient><linearGradient id="linear-gradient-10" x1="-123" y1="514.92" x2="-123" y2="484.35" gradientTransform="matrix(4 0 0 -4 684 2136.12)" gradientUnits="userSpaceOnUse"><stop offset="0" stop-color="#9d766a"/><stop offset="1" stop-color="#53371a"/></linearGradient><linearGradient id="linear-gradient-11" x1="-123" y1="424.91" x2="-123" y2="406.69" gradientTransform="matrix(4 0 0 -4 684 2136.12)" gradientUnits="userSpaceOnUse"><stop offset="0" stop-color="#198dc4"/><stop offset="1" stop-color="#12639b"/></linearGradient><linearGradient id="linear-gradient-12" x1="-123" y1="425.62" x2="-123" y2="434.7" gradientTransform="matrix(4 0 0 -4 684 2136.12)" gradientUnits="userSpaceOnUse"><stop offset="0" stop-color="#198dc4"/><stop offset="1" stop-color="#198dc4"/></linearGradient><linearGradient id="linear-gradient-13" x1="-133" y1="446.3" x2="-133" y2="419.82" gradientTransform="matrix(4 0 0 -4 684 2136.12)" gradientUnits="userSpaceOnUse"><stop offset="0" stop-color="#f1f7ff"/><stop offset="1" stop-color="#e7f4ff"/></linearGradient><linearGradient id="linear-gradient-14" x1="-113" y1="451.46" x2="-113" y2="423.1" xlink:href="#linear-gradient-13"/><linearGradient id="linear-gradient-15" x1="-123" y1="503.03" x2="-123" y2="491.03" gradientTransform="matrix(4 0 0 -4 684 2136.12)" gradientUnits="userSpaceOnUse"><stop offset="0" stop-color="#ffe886"/><stop offset="1" stop-color="#ffc96a"/></linearGradient><linearGradient id="linear-gradient-16" x1="-123" y1="504.03" x2="-123" y2="500.03" xlink:href="#linear-gradient-15"/><linearGradient id="linear-gradient-17" x1="-66.57" y1="532.03" x2="-66.57" y2="504.03" gradientTransform="matrix(4.15 0 0 -4 468.39 2136.12)" xlink:href="#linear-gradient-15"/><linearGradient id="linear-gradient-18" x1="-123" y1="534.03" x2="-123" y2="504.03" gradientTransform="matrix(4 0 0 -4 684 2136.12)" gradientUnits="userSpaceOnUse"><stop offset="0" stop-color="#ffe886"/><stop offset=".5" stop-color="#ffe684"/><stop offset=".74" stop-color="#ffde7d"/><stop offset=".92" stop-color="#ffd172"/><stop offset="1" stop-color="#ffc96a"/></linearGradient><linearGradient id="linear-gradient-19" x1="-123" y1="530.03" x2="-123" y2="516.03" xlink:href="#linear-gradient-15"/></defs><g id="Слой_2" data-name="Слой 2"><g id="Layer_3" data-name="Layer 3"><path d="M102.18 217.77c5 17.33-.79 34.17-13 37.61s-26.28-7.82-31.33-25.16.8-34.17 13-37.6 26.29 7.82 31.33 25.15z" fill="url(#linear-gradient)"/><path d="M281.82 217.77c-5.05 17.33.79 34.17 13 37.61s26.28-7.82 31.33-25.16-.8-34.17-13.05-37.6-26.24 7.82-31.28 25.15z" fill="url(#linear-gradient-2)"/><path d="M101.28 220.42c2.44 8.61-1.53 17.19-8.86 19.17s-15.26-3.4-17.7-12 1.53-17.19 8.87-19.17 15.25 3.39 17.69 12z" fill="url(#linear-gradient-3)"/><path d="M282.72 220.42c-2.44 8.61 1.53 17.19 8.86 19.17s15.26-3.4 17.7-12-1.53-17.19-8.87-19.17-15.25 3.39-17.69 12z" fill="url(#linear-gradient-4)"/><path d="M240 388h-96l8-72h80z" fill="url(#linear-gradient-5)"/><path d="M232 316h-80l-2.32 25.56L212.12 388H240z" fill="url(#linear-gradient-6)"/><path d="M248 384H136C18.92 384 0 496 0 496h384s-18.92-112-136-112z" fill="url(#linear-gradient-7)"/><path d="M192 352c-57.2 0-104-54.8-104-112v-64c0-57.2 46.8-104 104-104s104 46.8 104 104v64c0 57.2-46.8 112-104 112z" fill="url(#linear-gradient-8)"/><path class="cls-9" d="M153.05 224h-2.11a7 7 0 0 1-6.94-6.95v-10.11a7 7 0 0 1 7-6.94h2.11a7 7 0 0 1 6.89 7v10.11a7 7 0 0 1-6.95 6.89zM233.05 224h-2.11a7 7 0 0 1-6.94-6.95v-10.11a7 7 0 0 1 7-6.94h2.11a7 7 0 0 1 6.89 7v10.11a7 7 0 0 1-6.95 6.89z"/><path d="M192.63 272h-1.26A11.41 11.41 0 0 1 180 260.63v-33.26A11.41 11.41 0 0 1 191.37 216h1.26A11.41 11.41 0 0 1 204 227.37v33.26A11.41 11.41 0 0 1 192.63 272z" fill="url(#linear-gradient-9)"/><path class="cls-11" d="M140 188a4 4 0 0 1-.07-8l24-.42a3.9 3.9 0 0 1 4.07 3.93 4 4 0 0 1-3.93 4.07l-24 .42zM244 188h-.07l-24-.42a4 4 0 0 1-3.93-4.07 3.94 3.94 0 0 1 4.07-3.93l24 .42a4 4 0 0 1-.07 8z"/><path d="M192 72c-57.2 0-104 46.8-104 104v21.71c20-4.81 32.11-16.29 38.26-29.51a54.44 54.44 0 0 0 4.81-27.73c13.63 9.15 35.73 9.59 60.93 12 25.2-2.37 47.3-2.81 60.93-12a54.4 54.4 0 0 0 4.81 27.72c6.16 13.22 18.3 24.7 38.26 29.51V176c0-57.2-46.8-104-104-104z" fill="url(#linear-gradient-10)"/><path d="M204 436h-24l-4 60h32z" fill="url(#linear-gradient-11)"/><path d="M200 396h-16s-16 23.9-16 24l12 16h24l12-16c-.09-.31-16-24-16-24z" fill="url(#linear-gradient-12)"/><path d="M144 356l48 28-40 60-40-60z" fill="url(#linear-gradient-13)"/><path d="M240 356l-48 28 40 60 40-60z" fill="url(#linear-gradient-14)"/><path class="cls-17" d="M87.47 180a4 4 0 0 1-3.16-1.54c-.39-.5-9.5-12.58-8.18-42.64l8 .36c-.81 18.53 2.61 29.3 4.8 34.19 14.14-10.44 19.1-34.88 19.15-35.14l7.85 1.54c-.25 1.31-6.55 32.25-26.59 42.77a4 4 0 0 1-1.87.46zM296.53 180a4 4 0 0 1-1.86-.46c-20.05-10.51-26.34-41.46-26.59-42.77l7.85-1.55c.05.27 5.05 24.72 19.15 35.15 2.19-4.87 5.61-15.65 4.8-34.19l8-.36c1.32 30.06-7.79 42.14-8.18 42.64a4 4 0 0 1-3.17 1.54z"/><path d="M300 124v7.37c0 22.35-17.74 40.63-39.42 40.63H123.42C101.74 172 84 153.72 84 131.37V124z" fill="url(#linear-gradient-15)"/><path d="M308 136H76a8 8 0 0 1-8-8 8 8 0 0 1 8-8h232a8 8 0 0 1 8 8 8 8 0 0 1-8 8z" fill="url(#linear-gradient-16)"/><path d="M304 120c-4.35-27.82-13-48.64-20.78-61.12C265.05 29.72 237.81 8 192 8s-69.24 19.27-88.58 47.53C94.42 68.67 84.84 90.92 80 120z" fill="url(#linear-gradient-17)"/><path d="M152 0h80v120h-80z" fill="url(#linear-gradient-18)"/><path d="M180 16h24v56h-24z" fill="url(#linear-gradient-19)"/><path d="M192 300c-9.62 0-32-1-32-10.08a4 4 0 0 1 7.78-1.31c2.12 1.31 10.57 3.39 24.22 3.39s22.1-2.08 24.22-3.38a4 4 0 0 1 7.78 1.3C224 299 201.62 300 192 300z" fill="#f09890"/><path class="cls-24" d="M60 496h-8v-44a4 4 0 0 1 8 0zM332 496h-8v-44a4 4 0 0 1 8 0z"/></g></g></svg>