<svg xmlns="http://www.w3.org/2000/svg" width="30.5" height="23.129" viewBox="0 0 30.5 23.129">
  <defs>
    <style>
      .cls-1 {
        fill: #1f5af4;
        fill-rule: evenodd;
      }
    </style>
  </defs>
  <path class="cls-1" d="M1484.95,992.474l-6.74-3.691a1.233,1.233,0,0,0-1.83,1.087v7.318a1.231,1.231,0,0,0,1.82,1.091l6.74-3.627a1.235,1.235,0,0,0,.65-1.087A1.255,1.255,0,0,0,1484.95,992.474Zm-6.79,3.794V990.8l5.04,2.759Zm17.12-8.533-0.01-.014a6.928,6.928,0,0,0-1.34-3.544,4.973,4.973,0,0,0-3.29-1.543c-0.05-.006-0.1-0.011-0.15-0.018l-0.05,0c-4.03-.294-10.12-0.334-10.18-0.334h-0.01c-0.06,0-6.15.04-10.22,0.334l-0.06,0-0.14.018a4.838,4.838,0,0,0-3.27,1.59,7.318,7.318,0,0,0-1.33,3.48v0.031c-0.01.1-.23,2.536-0.23,4.98V995c0,2.445.22,4.879,0.23,4.982V1000a6.926,6.926,0,0,0,1.34,3.5,5.068,5.068,0,0,0,3.4,1.52,1.825,1.825,0,0,1,.3.04l0.07,0.01c2.33,0.22,9.63.33,9.94,0.33h0.01c0.06,0,6.15-.04,10.18-0.33l0.06-.01a1.114,1.114,0,0,0,.17-0.02,4.7,4.7,0,0,0,3.24-1.55,7.321,7.321,0,0,0,1.33-3.48l0.01-.028c0-.1.22-2.537,0.22-4.982v-2.285C1495.5,990.271,1495.28,987.837,1495.28,987.735ZM1493.71,995c0,2.263-.19,4.592-0.21,4.807a5.757,5.757,0,0,1-.88,2.473,2.924,2.924,0,0,1-2.11.98c-0.07.01-.13,0.02-0.19,0.03-3.9.28-9.76,0.32-10.03,0.32-0.3,0-7.49-.11-9.75-0.32-0.11-.02-0.24-0.03-0.37-0.05a3.354,3.354,0,0,1-2.29-.96l-0.01-.01a5.051,5.051,0,0,1-.86-2.457c-0.02-.161-0.22-2.519-0.22-4.813v-2.285c0-2.259.2-4.586,0.22-4.8a5.575,5.575,0,0,1,.87-2.479,3.1,3.1,0,0,1,2.16-1.021l0.14-.018c3.96-.283,9.86-0.325,10.07-0.327s6.11,0.044,10.03.327c0.05,0.006.1,0.013,0.16,0.019a3.2,3.2,0,0,1,2.19.993l0.01,0.007a5.33,5.33,0,0,1,.86,2.49c0.01,0.153.21,2.515,0.21,4.813V995Z" transform="translate(-1465 -982.281)"/>
</svg>
